<?xml version="1.0" encoding="utf-8" standalone="no"?>
<!DOCTYPE svg PUBLIC "-//W3C//DTD SVG 1.1//EN"
  "http://www.w3.org/Graphics/SVG/1.1/DTD/svg11.dtd">
<svg xmlns:xlink="http://www.w3.org/1999/xlink" width="990.430419pt" height="712.921187pt" viewBox="0 0 990.430419 712.921187" xmlns="http://www.w3.org/2000/svg" version="1.1">
 <metadata>
  <rdf:RDF xmlns:dc="http://purl.org/dc/elements/1.1/" xmlns:cc="http://creativecommons.org/ns#" xmlns:rdf="http://www.w3.org/1999/02/22-rdf-syntax-ns#">
   <cc:Work>
    <dc:type rdf:resource="http://purl.org/dc/dcmitype/StillImage"/>
    <dc:date>2025-09-29T03:17:50.375504</dc:date>
    <dc:format>image/svg+xml</dc:format>
    <dc:creator>
     <cc:Agent>
      <dc:title>Matplotlib v3.7.2, https://matplotlib.org/</dc:title>
     </cc:Agent>
    </dc:creator>
   </cc:Work>
  </rdf:RDF>
 </metadata>
 <defs>
  <style type="text/css">*{stroke-linejoin: round; stroke-linecap: butt}</style>
 </defs>
 <g id="figure_1">
  <g id="patch_1">
   <path d="M 0 712.921187 
L 990.430419 712.921187 
L 990.430419 0 
L 0 0 
L 0 712.921187 
z
" style="fill: none"/>
  </g>
  <g id="axes_1">
   <g id="patch_2">
    <path d="M 106.42887 611.01625 
L 983.230419 611.01625 
L 983.230419 39.2325 
L 106.42887 39.2325 
L 106.42887 611.01625 
z
" style="fill: none"/>
   </g>
   <g id="patch_3">
    <path d="M 282.847693 574.630011 
L 406.340869 574.630011 
L 406.340869 543.441807 
L 282.847693 543.441807 
z
" clip-path="url(#p0117fbd6bf)" style="fill: #47d7ac; opacity: 0.8; stroke: #2c2c2c; stroke-width: 0.5; stroke-linejoin: miter"/>
   </g>
   <g id="patch_4">
    <path d="M 282.847693 522.64967 
L 429.275316 522.64967 
L 429.275316 491.461466 
L 282.847693 491.461466 
z
" clip-path="url(#p0117fbd6bf)" style="fill: #5e8aff; opacity: 0.8; stroke: #2c2c2c; stroke-width: 0.5; stroke-linejoin: miter"/>
   </g>
   <g id="patch_5">
    <path d="M 282.847693 470.66933 
L 429.275316 470.66933 
L 429.275316 439.481125 
L 282.847693 439.481125 
z
" clip-path="url(#p0117fbd6bf)" style="fill: #5e8aff; opacity: 0.8; stroke: #2c2c2c; stroke-width: 0.5; stroke-linejoin: miter"/>
   </g>
   <g id="patch_6">
    <path d="M 282.847693 418.688989 
L 351.651034 418.688989 
L 351.651034 387.500784 
L 282.847693 387.500784 
z
" clip-path="url(#p0117fbd6bf)" style="fill: #ffa500; opacity: 0.8; stroke: #2c2c2c; stroke-width: 0.5; stroke-linejoin: miter"/>
   </g>
   <g id="patch_7">
    <path d="M 282.847693 366.708648 
L 304.017951 366.708648 
L 304.017951 335.520443 
L 282.847693 335.520443 
z
" clip-path="url(#p0117fbd6bf)" style="fill: #ff5e5e; opacity: 0.8; stroke: #2c2c2c; stroke-width: 0.5; stroke-linejoin: miter"/>
   </g>
   <g id="patch_8">
    <path d="M 282.847693 314.728307 
L 293.432822 314.728307 
L 293.432822 283.540102 
L 282.847693 283.540102 
z
" clip-path="url(#p0117fbd6bf)" style="fill: #888888; opacity: 0.8; stroke: #2c2c2c; stroke-width: 0.5; stroke-linejoin: miter"/>
   </g>
   <g id="patch_9">
    <path d="M 282.847693 262.747966 
L 519.248915 262.747966 
L 519.248915 231.559761 
L 282.847693 231.559761 
z
" clip-path="url(#p0117fbd6bf)" style="fill: #5e8aff; opacity: 0.8; stroke: #2c2c2c; stroke-width: 0.5; stroke-linejoin: miter"/>
   </g>
   <g id="patch_10">
    <path d="M 282.847693 210.767625 
L 288.140257 210.767625 
L 288.140257 179.57942 
L 282.847693 179.57942 
z
" clip-path="url(#p0117fbd6bf)" style="fill: #ffa500; opacity: 0.8; stroke: #2c2c2c; stroke-width: 0.5; stroke-linejoin: miter"/>
   </g>
   <g id="patch_11">
    <path d="M 282.847693 158.787284 
L 565.117809 158.787284 
L 565.117809 127.59908 
L 282.847693 127.59908 
z
" clip-path="url(#p0117fbd6bf)" style="fill: #ff5e5e; opacity: 0.8; stroke: #2c2c2c; stroke-width: 0.5; stroke-linejoin: miter"/>
   </g>
   <g id="patch_12">
    <path d="M 282.847693 106.806943 
L 806.811596 106.806943 
L 806.811596 75.618739 
L 282.847693 75.618739 
z
" clip-path="url(#p0117fbd6bf)" style="fill: #5e8aff; opacity: 0.8; stroke: #2c2c2c; stroke-width: 0.5; stroke-linejoin: miter"/>
   </g>
   <g id="matplotlib.axis_1">
    <g id="xtick_1">
     <g id="line2d_1">
      <defs>
       <path id="m010861b9eb" d="M 0 0 
L 0 3.5 
" style="stroke: #2c2c2c; stroke-width: 0.8"/>
      </defs>
      <g>
       <use xlink:href="#m010861b9eb" x="106.42887" y="611.01625" style="fill: #2c2c2c; stroke: #2c2c2c; stroke-width: 0.8"/>
      </g>
     </g>
     <g id="text_1">
      <!-- −100 -->
      <g style="fill: #2c2c2c" transform="translate(92.695276 625.614687) scale(0.1 -0.1)">
       <defs>
        <path id="DejaVuSans-2212" d="M 678 2272 
L 4684 2272 
L 4684 1741 
L 678 1741 
L 678 2272 
z
" transform="scale(0.015625)"/>
        <path id="DejaVuSans-31" d="M 794 531 
L 1825 531 
L 1825 4091 
L 703 3866 
L 703 4441 
L 1819 4666 
L 2450 4666 
L 2450 531 
L 3481 531 
L 3481 0 
L 794 0 
L 794 531 
z
" transform="scale(0.015625)"/>
        <path id="DejaVuSans-30" d="M 2034 4250 
Q 1547 4250 1301 3770 
Q 1056 3291 1056 2328 
Q 1056 1369 1301 889 
Q 1547 409 2034 409 
Q 2525 409 2770 889 
Q 3016 1369 3016 2328 
Q 3016 3291 2770 3770 
Q 2525 4250 2034 4250 
z
M 2034 4750 
Q 2819 4750 3233 4129 
Q 3647 3509 3647 2328 
Q 3647 1150 3233 529 
Q 2819 -91 2034 -91 
Q 1250 -91 836 529 
Q 422 1150 422 2328 
Q 422 3509 836 4129 
Q 1250 4750 2034 4750 
z
" transform="scale(0.015625)"/>
       </defs>
       <use xlink:href="#DejaVuSans-2212"/>
       <use xlink:href="#DejaVuSans-31" x="83.789062"/>
       <use xlink:href="#DejaVuSans-30" x="147.412109"/>
       <use xlink:href="#DejaVuSans-30" x="211.035156"/>
      </g>
     </g>
    </g>
    <g id="xtick_2">
     <g id="line2d_2">
      <g>
       <use xlink:href="#m010861b9eb" x="282.847693" y="611.01625" style="fill: #2c2c2c; stroke: #2c2c2c; stroke-width: 0.8"/>
      </g>
     </g>
     <g id="text_2">
      <!-- 0 -->
      <g style="fill: #2c2c2c" transform="translate(279.666443 625.614687) scale(0.1 -0.1)">
       <use xlink:href="#DejaVuSans-30"/>
      </g>
     </g>
    </g>
    <g id="xtick_3">
     <g id="line2d_3">
      <g>
       <use xlink:href="#m010861b9eb" x="459.266515" y="611.01625" style="fill: #2c2c2c; stroke: #2c2c2c; stroke-width: 0.8"/>
      </g>
     </g>
     <g id="text_3">
      <!-- 100 -->
      <g style="fill: #2c2c2c" transform="translate(449.722765 625.614687) scale(0.1 -0.1)">
       <use xlink:href="#DejaVuSans-31"/>
       <use xlink:href="#DejaVuSans-30" x="63.623047"/>
       <use xlink:href="#DejaVuSans-30" x="127.246094"/>
      </g>
     </g>
    </g>
    <g id="xtick_4">
     <g id="line2d_4">
      <g>
       <use xlink:href="#m010861b9eb" x="635.685338" y="611.01625" style="fill: #2c2c2c; stroke: #2c2c2c; stroke-width: 0.8"/>
      </g>
     </g>
     <g id="text_4">
      <!-- 200 -->
      <g style="fill: #2c2c2c" transform="translate(626.141588 625.614687) scale(0.1 -0.1)">
       <defs>
        <path id="DejaVuSans-32" d="M 1228 531 
L 3431 531 
L 3431 0 
L 469 0 
L 469 531 
Q 828 903 1448 1529 
Q 2069 2156 2228 2338 
Q 2531 2678 2651 2914 
Q 2772 3150 2772 3378 
Q 2772 3750 2511 3984 
Q 2250 4219 1831 4219 
Q 1534 4219 1204 4116 
Q 875 4013 500 3803 
L 500 4441 
Q 881 4594 1212 4672 
Q 1544 4750 1819 4750 
Q 2544 4750 2975 4387 
Q 3406 4025 3406 3419 
Q 3406 3131 3298 2873 
Q 3191 2616 2906 2266 
Q 2828 2175 2409 1742 
Q 1991 1309 1228 531 
z
" transform="scale(0.015625)"/>
       </defs>
       <use xlink:href="#DejaVuSans-32"/>
       <use xlink:href="#DejaVuSans-30" x="63.623047"/>
       <use xlink:href="#DejaVuSans-30" x="127.246094"/>
      </g>
     </g>
    </g>
    <g id="xtick_5">
     <g id="line2d_5">
      <g>
       <use xlink:href="#m010861b9eb" x="812.104161" y="611.01625" style="fill: #2c2c2c; stroke: #2c2c2c; stroke-width: 0.8"/>
      </g>
     </g>
     <g id="text_5">
      <!-- 300 -->
      <g style="fill: #2c2c2c" transform="translate(802.560411 625.614687) scale(0.1 -0.1)">
       <defs>
        <path id="DejaVuSans-33" d="M 2597 2516 
Q 3050 2419 3304 2112 
Q 3559 1806 3559 1356 
Q 3559 666 3084 287 
Q 2609 -91 1734 -91 
Q 1441 -91 1130 -33 
Q 819 25 488 141 
L 488 750 
Q 750 597 1062 519 
Q 1375 441 1716 441 
Q 2309 441 2620 675 
Q 2931 909 2931 1356 
Q 2931 1769 2642 2001 
Q 2353 2234 1838 2234 
L 1294 2234 
L 1294 2753 
L 1863 2753 
Q 2328 2753 2575 2939 
Q 2822 3125 2822 3475 
Q 2822 3834 2567 4026 
Q 2313 4219 1838 4219 
Q 1578 4219 1281 4162 
Q 984 4106 628 3988 
L 628 4550 
Q 988 4650 1302 4700 
Q 1616 4750 1894 4750 
Q 2613 4750 3031 4423 
Q 3450 4097 3450 3541 
Q 3450 3153 3228 2886 
Q 3006 2619 2597 2516 
z
" transform="scale(0.015625)"/>
       </defs>
       <use xlink:href="#DejaVuSans-33"/>
       <use xlink:href="#DejaVuSans-30" x="63.623047"/>
       <use xlink:href="#DejaVuSans-30" x="127.246094"/>
      </g>
     </g>
    </g>
    <g id="text_6">
     <!-- Количество человек -->
     <g style="fill: #2c2c2c" transform="translate(480.423394 640.8125) scale(0.12 -0.12)">
      <defs>
       <path id="DejaVuSans-41a" d="M 628 4666 
L 1259 4666 
L 1259 2359 
L 3516 4666 
L 4325 4666 
L 2522 2822 
L 4419 0 
L 3731 0 
L 2113 2403 
L 1259 1531 
L 1259 0 
L 628 0 
L 628 4666 
z
" transform="scale(0.015625)"/>
       <path id="DejaVuSans-43e" d="M 1959 3097 
Q 1497 3097 1228 2736 
Q 959 2375 959 1747 
Q 959 1119 1226 758 
Q 1494 397 1959 397 
Q 2419 397 2687 759 
Q 2956 1122 2956 1747 
Q 2956 2369 2687 2733 
Q 2419 3097 1959 3097 
z
M 1959 3584 
Q 2709 3584 3137 3096 
Q 3566 2609 3566 1747 
Q 3566 888 3137 398 
Q 2709 -91 1959 -91 
Q 1206 -91 779 398 
Q 353 888 353 1747 
Q 353 2609 779 3096 
Q 1206 3584 1959 3584 
z
" transform="scale(0.015625)"/>
       <path id="DejaVuSans-43b" d="M 238 0 
L 238 478 
Q 806 566 981 959 
Q 1194 1513 1194 2928 
L 1194 3500 
L 3559 3500 
L 3559 0 
L 2984 0 
L 2984 3041 
L 1769 3041 
L 1769 2694 
Q 1769 1344 1494 738 
Q 1200 91 238 0 
z
" transform="scale(0.015625)"/>
       <path id="DejaVuSans-438" d="M 3578 3500 
L 3578 0 
L 3006 0 
L 3006 2809 
L 1319 0 
L 581 0 
L 581 3500 
L 1153 3500 
L 1153 697 
L 2838 3500 
L 3578 3500 
z
" transform="scale(0.015625)"/>
       <path id="DejaVuSans-447" d="M 2625 0 
L 2625 1472 
L 1553 1472 
Q 1075 1472 756 1769 
Q 469 2038 469 2613 
L 469 3500 
L 1044 3500 
L 1044 2666 
Q 1044 2300 1206 2116 
Q 1372 1931 1697 1931 
L 2625 1931 
L 2625 3500 
L 3200 3500 
L 3200 0 
L 2625 0 
z
" transform="scale(0.015625)"/>
       <path id="DejaVuSans-435" d="M 3597 1894 
L 3597 1613 
L 953 1613 
Q 991 1019 1311 708 
Q 1631 397 2203 397 
Q 2534 397 2845 478 
Q 3156 559 3463 722 
L 3463 178 
Q 3153 47 2828 -22 
Q 2503 -91 2169 -91 
Q 1331 -91 842 396 
Q 353 884 353 1716 
Q 353 2575 817 3079 
Q 1281 3584 2069 3584 
Q 2775 3584 3186 3129 
Q 3597 2675 3597 1894 
z
M 3022 2063 
Q 3016 2534 2758 2815 
Q 2500 3097 2075 3097 
Q 1594 3097 1305 2825 
Q 1016 2553 972 2059 
L 3022 2063 
z
" transform="scale(0.015625)"/>
       <path id="DejaVuSans-441" d="M 3122 3366 
L 3122 2828 
Q 2878 2963 2633 3030 
Q 2388 3097 2138 3097 
Q 1578 3097 1268 2742 
Q 959 2388 959 1747 
Q 959 1106 1268 751 
Q 1578 397 2138 397 
Q 2388 397 2633 464 
Q 2878 531 3122 666 
L 3122 134 
Q 2881 22 2623 -34 
Q 2366 -91 2075 -91 
Q 1284 -91 818 406 
Q 353 903 353 1747 
Q 353 2603 823 3093 
Q 1294 3584 2113 3584 
Q 2378 3584 2631 3529 
Q 2884 3475 3122 3366 
z
" transform="scale(0.015625)"/>
       <path id="DejaVuSans-442" d="M 188 3500 
L 3541 3500 
L 3541 3041 
L 2147 3041 
L 2147 0 
L 1581 0 
L 1581 3041 
L 188 3041 
L 188 3500 
z
" transform="scale(0.015625)"/>
       <path id="DejaVuSans-432" d="M 1156 1613 
L 1156 459 
L 1975 459 
Q 2369 459 2575 607 
Q 2781 756 2781 1038 
Q 2781 1319 2575 1466 
Q 2369 1613 1975 1613 
L 1156 1613 
z
M 1156 3041 
L 1156 2072 
L 1913 2072 
Q 2238 2072 2444 2201 
Q 2650 2331 2650 2563 
Q 2650 2794 2444 2917 
Q 2238 3041 1913 3041 
L 1156 3041 
z
M 581 3500 
L 1950 3500 
Q 2566 3500 2897 3275 
Q 3228 3050 3228 2634 
Q 3228 2313 3059 2123 
Q 2891 1934 2559 1888 
Q 2956 1813 3175 1575 
Q 3394 1338 3394 981 
Q 3394 513 3033 256 
Q 2672 0 2003 0 
L 581 0 
L 581 3500 
z
" transform="scale(0.015625)"/>
       <path id="DejaVuSans-20" transform="scale(0.015625)"/>
       <path id="DejaVuSans-43a" d="M 581 3500 
L 1153 3500 
L 1153 1856 
L 2775 3500 
L 3481 3500 
L 2144 2147 
L 3653 0 
L 3009 0 
L 1769 1766 
L 1153 1141 
L 1153 0 
L 581 0 
L 581 3500 
z
" transform="scale(0.015625)"/>
      </defs>
      <use xlink:href="#DejaVuSans-41a"/>
      <use xlink:href="#DejaVuSans-43e" x="70.996094"/>
      <use xlink:href="#DejaVuSans-43b" x="132.177734"/>
      <use xlink:href="#DejaVuSans-438" x="196.09375"/>
      <use xlink:href="#DejaVuSans-447" x="261.083984"/>
      <use xlink:href="#DejaVuSans-435" x="320.166016"/>
      <use xlink:href="#DejaVuSans-441" x="381.689453"/>
      <use xlink:href="#DejaVuSans-442" x="436.669922"/>
      <use xlink:href="#DejaVuSans-432" x="494.921875"/>
      <use xlink:href="#DejaVuSans-43e" x="553.857422"/>
      <use xlink:href="#DejaVuSans-20" x="615.039062"/>
      <use xlink:href="#DejaVuSans-447" x="646.826172"/>
      <use xlink:href="#DejaVuSans-435" x="705.908203"/>
      <use xlink:href="#DejaVuSans-43b" x="767.431641"/>
      <use xlink:href="#DejaVuSans-43e" x="831.347656"/>
      <use xlink:href="#DejaVuSans-432" x="892.529297"/>
      <use xlink:href="#DejaVuSans-435" x="951.464844"/>
      <use xlink:href="#DejaVuSans-43a" x="1012.988281"/>
     </g>
    </g>
   </g>
   <g id="matplotlib.axis_2">
    <g id="ytick_1"/>
    <g id="ytick_2"/>
    <g id="ytick_3"/>
    <g id="ytick_4"/>
    <g id="ytick_5"/>
    <g id="ytick_6"/>
   </g>
   <g id="patch_13">
    <path d="M 106.42887 611.01625 
L 983.230419 611.01625 
" style="fill: none; stroke: #5c5c5c; stroke-width: 0.8; stroke-linejoin: miter; stroke-linecap: square"/>
   </g>
   <g id="text_7">
    <!-- 70 -->
    <g style="fill: #ffffff" transform="translate(337.636468 561.795284) scale(0.1 -0.1)">
     <defs>
      <path id="DejaVuSans-Bold-37" d="M 428 4666 
L 3944 4666 
L 3944 3988 
L 2125 0 
L 953 0 
L 2675 3781 
L 428 3781 
L 428 4666 
z
" transform="scale(0.015625)"/>
      <path id="DejaVuSans-Bold-30" d="M 2944 2338 
Q 2944 3213 2780 3570 
Q 2616 3928 2228 3928 
Q 1841 3928 1675 3570 
Q 1509 3213 1509 2338 
Q 1509 1453 1675 1090 
Q 1841 728 2228 728 
Q 2613 728 2778 1090 
Q 2944 1453 2944 2338 
z
M 4147 2328 
Q 4147 1169 3647 539 
Q 3147 -91 2228 -91 
Q 1306 -91 806 539 
Q 306 1169 306 2328 
Q 306 3491 806 4120 
Q 1306 4750 2228 4750 
Q 3147 4750 3647 4120 
Q 4147 3491 4147 2328 
z
" transform="scale(0.015625)"/>
     </defs>
     <use xlink:href="#DejaVuSans-Bold-37"/>
     <use xlink:href="#DejaVuSans-Bold-30" x="69.580078"/>
    </g>
   </g>
   <g id="text_8">
    <!-- Подали согласие на зачисление -->
    <g style="fill: #2c2c2c" transform="translate(7.2 562.071222) scale(0.11 -0.11)">
     <defs>
      <path id="DejaVuSans-41f" d="M 4184 4666 
L 4184 0 
L 3553 0 
L 3553 4134 
L 1259 4134 
L 1259 0 
L 628 0 
L 628 4666 
L 4184 4666 
z
" transform="scale(0.015625)"/>
      <path id="DejaVuSans-434" d="M 1384 459 
L 3053 459 
L 3053 3041 
L 1844 3041 
L 1844 2603 
Q 1844 1316 1475 628 
L 1384 459 
z
M 550 459 
Q 834 584 959 850 
Q 1266 1509 1266 2838 
L 1266 3500 
L 3631 3500 
L 3631 459 
L 4091 459 
L 4091 -884 
L 3631 -884 
L 3631 0 
L 794 0 
L 794 -884 
L 334 -884 
L 334 459 
L 550 459 
z
" transform="scale(0.015625)"/>
      <path id="DejaVuSans-430" d="M 2194 1759 
Q 1497 1759 1228 1600 
Q 959 1441 959 1056 
Q 959 750 1161 570 
Q 1363 391 1709 391 
Q 2188 391 2477 730 
Q 2766 1069 2766 1631 
L 2766 1759 
L 2194 1759 
z
M 3341 1997 
L 3341 0 
L 2766 0 
L 2766 531 
Q 2569 213 2275 61 
Q 1981 -91 1556 -91 
Q 1019 -91 701 211 
Q 384 513 384 1019 
Q 384 1609 779 1909 
Q 1175 2209 1959 2209 
L 2766 2209 
L 2766 2266 
Q 2766 2663 2505 2880 
Q 2244 3097 1772 3097 
Q 1472 3097 1187 3025 
Q 903 2953 641 2809 
L 641 3341 
Q 956 3463 1253 3523 
Q 1550 3584 1831 3584 
Q 2591 3584 2966 3190 
Q 3341 2797 3341 1997 
z
" transform="scale(0.015625)"/>
      <path id="DejaVuSans-433" d="M 581 0 
L 581 3500 
L 3050 3500 
L 3050 3041 
L 1159 3041 
L 1159 0 
L 581 0 
z
" transform="scale(0.015625)"/>
      <path id="DejaVuSans-43d" d="M 581 3500 
L 1159 3500 
L 1159 2072 
L 3025 2072 
L 3025 3500 
L 3603 3500 
L 3603 0 
L 3025 0 
L 3025 1613 
L 1159 1613 
L 1159 0 
L 581 0 
L 581 3500 
z
" transform="scale(0.015625)"/>
      <path id="DejaVuSans-437" d="M 2206 1888 
Q 2594 1813 2809 1584 
Q 3025 1356 3025 1019 
Q 3025 478 2622 193 
Q 2219 -91 1475 -91 
Q 1225 -91 961 -47 
Q 697 -3 416 84 
L 416 619 
Q 638 503 903 445 
Q 1169 388 1459 388 
Q 1931 388 2195 563 
Q 2459 738 2459 1019 
Q 2459 1294 2225 1461 
Q 1991 1628 1563 1628 
L 1100 1628 
L 1100 2103 
L 1584 2103 
Q 1947 2103 2158 2242 
Q 2369 2381 2369 2600 
Q 2369 2800 2151 2944 
Q 1934 3088 1563 3088 
Q 1341 3088 1089 3047 
Q 838 3006 534 2916 
L 534 3438 
Q 841 3513 1106 3550 
Q 1372 3588 1609 3588 
Q 2222 3588 2576 3342 
Q 2931 3097 2931 2656 
Q 2931 2366 2743 2164 
Q 2556 1963 2206 1888 
z
" transform="scale(0.015625)"/>
     </defs>
     <use xlink:href="#DejaVuSans-41f"/>
     <use xlink:href="#DejaVuSans-43e" x="75.195312"/>
     <use xlink:href="#DejaVuSans-434" x="136.376953"/>
     <use xlink:href="#DejaVuSans-430" x="205.517578"/>
     <use xlink:href="#DejaVuSans-43b" x="266.796875"/>
     <use xlink:href="#DejaVuSans-438" x="330.712891"/>
     <use xlink:href="#DejaVuSans-20" x="395.703125"/>
     <use xlink:href="#DejaVuSans-441" x="427.490234"/>
     <use xlink:href="#DejaVuSans-43e" x="482.470703"/>
     <use xlink:href="#DejaVuSans-433" x="543.652344"/>
     <use xlink:href="#DejaVuSans-43b" x="596.191406"/>
     <use xlink:href="#DejaVuSans-430" x="660.107422"/>
     <use xlink:href="#DejaVuSans-441" x="721.386719"/>
     <use xlink:href="#DejaVuSans-438" x="776.367188"/>
     <use xlink:href="#DejaVuSans-435" x="841.357422"/>
     <use xlink:href="#DejaVuSans-20" x="902.880859"/>
     <use xlink:href="#DejaVuSans-43d" x="934.667969"/>
     <use xlink:href="#DejaVuSans-430" x="1000.048828"/>
     <use xlink:href="#DejaVuSans-20" x="1061.328125"/>
     <use xlink:href="#DejaVuSans-437" x="1093.115234"/>
     <use xlink:href="#DejaVuSans-430" x="1146.289062"/>
     <use xlink:href="#DejaVuSans-447" x="1207.568359"/>
     <use xlink:href="#DejaVuSans-438" x="1266.650391"/>
     <use xlink:href="#DejaVuSans-441" x="1331.640625"/>
     <use xlink:href="#DejaVuSans-43b" x="1386.621094"/>
     <use xlink:href="#DejaVuSans-435" x="1450.537109"/>
     <use xlink:href="#DejaVuSans-43d" x="1512.060547"/>
     <use xlink:href="#DejaVuSans-438" x="1577.441406"/>
     <use xlink:href="#DejaVuSans-435" x="1642.431641"/>
    </g>
   </g>
   <g id="text_9">
    <!-- 23.6% -->
    <g style="fill: #5c5c5c" transform="translate(423.982751 561.795284) scale(0.1 -0.1)">
     <defs>
      <path id="DejaVuSans-2e" d="M 684 794 
L 1344 794 
L 1344 0 
L 684 0 
L 684 794 
z
" transform="scale(0.015625)"/>
      <path id="DejaVuSans-36" d="M 2113 2584 
Q 1688 2584 1439 2293 
Q 1191 2003 1191 1497 
Q 1191 994 1439 701 
Q 1688 409 2113 409 
Q 2538 409 2786 701 
Q 3034 994 3034 1497 
Q 3034 2003 2786 2293 
Q 2538 2584 2113 2584 
z
M 3366 4563 
L 3366 3988 
Q 3128 4100 2886 4159 
Q 2644 4219 2406 4219 
Q 1781 4219 1451 3797 
Q 1122 3375 1075 2522 
Q 1259 2794 1537 2939 
Q 1816 3084 2150 3084 
Q 2853 3084 3261 2657 
Q 3669 2231 3669 1497 
Q 3669 778 3244 343 
Q 2819 -91 2113 -91 
Q 1303 -91 875 529 
Q 447 1150 447 2328 
Q 447 3434 972 4092 
Q 1497 4750 2381 4750 
Q 2619 4750 2861 4703 
Q 3103 4656 3366 4563 
z
" transform="scale(0.015625)"/>
      <path id="DejaVuSans-25" d="M 4653 2053 
Q 4381 2053 4226 1822 
Q 4072 1591 4072 1178 
Q 4072 772 4226 539 
Q 4381 306 4653 306 
Q 4919 306 5073 539 
Q 5228 772 5228 1178 
Q 5228 1588 5073 1820 
Q 4919 2053 4653 2053 
z
M 4653 2450 
Q 5147 2450 5437 2106 
Q 5728 1763 5728 1178 
Q 5728 594 5436 251 
Q 5144 -91 4653 -91 
Q 4153 -91 3862 251 
Q 3572 594 3572 1178 
Q 3572 1766 3864 2108 
Q 4156 2450 4653 2450 
z
M 1428 4353 
Q 1159 4353 1004 4120 
Q 850 3888 850 3481 
Q 850 3069 1003 2837 
Q 1156 2606 1428 2606 
Q 1700 2606 1854 2837 
Q 2009 3069 2009 3481 
Q 2009 3884 1853 4118 
Q 1697 4353 1428 4353 
z
M 4250 4750 
L 4750 4750 
L 1831 -91 
L 1331 -91 
L 4250 4750 
z
M 1428 4750 
Q 1922 4750 2215 4408 
Q 2509 4066 2509 3481 
Q 2509 2891 2217 2550 
Q 1925 2209 1428 2209 
Q 931 2209 642 2551 
Q 353 2894 353 3481 
Q 353 4063 643 4406 
Q 934 4750 1428 4750 
z
" transform="scale(0.015625)"/>
     </defs>
     <use xlink:href="#DejaVuSans-32"/>
     <use xlink:href="#DejaVuSans-33" x="63.623047"/>
     <use xlink:href="#DejaVuSans-2e" x="127.246094"/>
     <use xlink:href="#DejaVuSans-36" x="159.033203"/>
     <use xlink:href="#DejaVuSans-25" x="222.65625"/>
    </g>
   </g>
   <g id="text_10">
    <!-- 83 -->
    <g style="fill: #ffffff" transform="translate(349.103692 509.814943) scale(0.1 -0.1)">
     <defs>
      <path id="DejaVuSans-Bold-38" d="M 2228 2088 
Q 1891 2088 1709 1903 
Q 1528 1719 1528 1375 
Q 1528 1031 1709 848 
Q 1891 666 2228 666 
Q 2563 666 2741 848 
Q 2919 1031 2919 1375 
Q 2919 1722 2741 1905 
Q 2563 2088 2228 2088 
z
M 1350 2484 
Q 925 2613 709 2878 
Q 494 3144 494 3541 
Q 494 4131 934 4440 
Q 1375 4750 2228 4750 
Q 3075 4750 3515 4442 
Q 3956 4134 3956 3541 
Q 3956 3144 3739 2878 
Q 3522 2613 3097 2484 
Q 3572 2353 3814 2058 
Q 4056 1763 4056 1313 
Q 4056 619 3595 264 
Q 3134 -91 2228 -91 
Q 1319 -91 855 264 
Q 391 619 391 1313 
Q 391 1763 633 2058 
Q 875 2353 1350 2484 
z
M 1631 3419 
Q 1631 3141 1786 2991 
Q 1941 2841 2228 2841 
Q 2509 2841 2662 2991 
Q 2816 3141 2816 3419 
Q 2816 3697 2662 3845 
Q 2509 3994 2228 3994 
Q 1941 3994 1786 3844 
Q 1631 3694 1631 3419 
z
" transform="scale(0.015625)"/>
      <path id="DejaVuSans-Bold-33" d="M 2981 2516 
Q 3453 2394 3698 2092 
Q 3944 1791 3944 1325 
Q 3944 631 3412 270 
Q 2881 -91 1863 -91 
Q 1503 -91 1142 -33 
Q 781 25 428 141 
L 428 1069 
Q 766 900 1098 814 
Q 1431 728 1753 728 
Q 2231 728 2486 893 
Q 2741 1059 2741 1369 
Q 2741 1688 2480 1852 
Q 2219 2016 1709 2016 
L 1228 2016 
L 1228 2791 
L 1734 2791 
Q 2188 2791 2409 2933 
Q 2631 3075 2631 3366 
Q 2631 3634 2415 3781 
Q 2200 3928 1806 3928 
Q 1516 3928 1219 3862 
Q 922 3797 628 3669 
L 628 4550 
Q 984 4650 1334 4700 
Q 1684 4750 2022 4750 
Q 2931 4750 3382 4451 
Q 3834 4153 3834 3553 
Q 3834 3144 3618 2883 
Q 3403 2622 2981 2516 
z
" transform="scale(0.015625)"/>
     </defs>
     <use xlink:href="#DejaVuSans-Bold-38"/>
     <use xlink:href="#DejaVuSans-Bold-33" x="69.580078"/>
    </g>
   </g>
   <g id="text_11">
    <!-- Вошли в итоговый список -->
    <g style="fill: #2c2c2c" transform="translate(44.220156 510.090881) scale(0.11 -0.11)">
     <defs>
      <path id="DejaVuSans-412" d="M 1259 2228 
L 1259 519 
L 2272 519 
Q 2781 519 3026 730 
Q 3272 941 3272 1375 
Q 3272 1813 3026 2020 
Q 2781 2228 2272 2228 
L 1259 2228 
z
M 1259 4147 
L 1259 2741 
L 2194 2741 
Q 2656 2741 2882 2914 
Q 3109 3088 3109 3444 
Q 3109 3797 2882 3972 
Q 2656 4147 2194 4147 
L 1259 4147 
z
M 628 4666 
L 2241 4666 
Q 2963 4666 3353 4366 
Q 3744 4066 3744 3513 
Q 3744 3084 3544 2831 
Q 3344 2578 2956 2516 
Q 3422 2416 3680 2098 
Q 3938 1781 3938 1306 
Q 3938 681 3513 340 
Q 3088 0 2303 0 
L 628 0 
L 628 4666 
z
" transform="scale(0.015625)"/>
      <path id="DejaVuSans-448" d="M 3216 459 
L 4697 459 
L 4697 3500 
L 5275 3500 
L 5275 0 
L 581 0 
L 581 3500 
L 1159 3500 
L 1159 459 
L 2638 459 
L 2638 3500 
L 3216 3500 
L 3216 459 
z
" transform="scale(0.015625)"/>
      <path id="DejaVuSans-44b" d="M 3909 3500 
L 4484 3500 
L 4484 0 
L 3909 0 
L 3909 3500 
z
M 4197 3584 
L 4197 3584 
z
M 2781 1038 
Q 2781 1319 2576 1466 
Q 2372 1613 1978 1613 
L 1159 1613 
L 1159 459 
L 1978 459 
Q 2372 459 2576 607 
Q 2781 756 2781 1038 
z
M 581 3500 
L 1159 3500 
L 1159 2072 
L 2003 2072 
Q 2672 2072 3033 1817 
Q 3394 1563 3394 1038 
Q 3394 513 3033 256 
Q 2672 0 2003 0 
L 581 0 
L 581 3500 
z
" transform="scale(0.015625)"/>
      <path id="DejaVuSans-439" d="M 3578 3500 
L 3578 0 
L 3006 0 
L 3006 2809 
L 1319 0 
L 581 0 
L 581 3500 
L 1153 3500 
L 1153 697 
L 2838 3500 
L 3578 3500 
z
M 1103 4862 
L 1472 4862 
Q 1506 4628 1657 4510 
Q 1809 4393 2081 4393 
Q 2350 4393 2500 4509 
Q 2650 4625 2691 4862 
L 3059 4862 
Q 3028 4415 2781 4190 
Q 2534 3965 2081 3965 
Q 1628 3965 1381 4190 
Q 1134 4415 1103 4862 
z
" transform="scale(0.015625)"/>
      <path id="DejaVuSans-43f" d="M 3603 3500 
L 3603 0 
L 3025 0 
L 3025 3041 
L 1159 3041 
L 1159 0 
L 581 0 
L 581 3500 
L 3603 3500 
z
" transform="scale(0.015625)"/>
     </defs>
     <use xlink:href="#DejaVuSans-412"/>
     <use xlink:href="#DejaVuSans-43e" x="68.603516"/>
     <use xlink:href="#DejaVuSans-448" x="129.785156"/>
     <use xlink:href="#DejaVuSans-43b" x="221.289062"/>
     <use xlink:href="#DejaVuSans-438" x="285.205078"/>
     <use xlink:href="#DejaVuSans-20" x="350.195312"/>
     <use xlink:href="#DejaVuSans-432" x="381.982422"/>
     <use xlink:href="#DejaVuSans-20" x="440.917969"/>
     <use xlink:href="#DejaVuSans-438" x="472.705078"/>
     <use xlink:href="#DejaVuSans-442" x="537.695312"/>
     <use xlink:href="#DejaVuSans-43e" x="595.947266"/>
     <use xlink:href="#DejaVuSans-433" x="657.128906"/>
     <use xlink:href="#DejaVuSans-43e" x="709.667969"/>
     <use xlink:href="#DejaVuSans-432" x="770.849609"/>
     <use xlink:href="#DejaVuSans-44b" x="829.785156"/>
     <use xlink:href="#DejaVuSans-439" x="908.740234"/>
     <use xlink:href="#DejaVuSans-20" x="973.730469"/>
     <use xlink:href="#DejaVuSans-441" x="1005.517578"/>
     <use xlink:href="#DejaVuSans-43f" x="1060.498047"/>
     <use xlink:href="#DejaVuSans-438" x="1125.878906"/>
     <use xlink:href="#DejaVuSans-441" x="1190.869141"/>
     <use xlink:href="#DejaVuSans-43e" x="1245.849609"/>
     <use xlink:href="#DejaVuSans-43a" x="1307.03125"/>
    </g>
   </g>
   <g id="text_12">
    <!-- 27.9% -->
    <g style="fill: #5c5c5c" transform="translate(446.917198 509.814943) scale(0.1 -0.1)">
     <defs>
      <path id="DejaVuSans-37" d="M 525 4666 
L 3525 4666 
L 3525 4397 
L 1831 0 
L 1172 0 
L 2766 4134 
L 525 4134 
L 525 4666 
z
" transform="scale(0.015625)"/>
      <path id="DejaVuSans-39" d="M 703 97 
L 703 672 
Q 941 559 1184 500 
Q 1428 441 1663 441 
Q 2288 441 2617 861 
Q 2947 1281 2994 2138 
Q 2813 1869 2534 1725 
Q 2256 1581 1919 1581 
Q 1219 1581 811 2004 
Q 403 2428 403 3163 
Q 403 3881 828 4315 
Q 1253 4750 1959 4750 
Q 2769 4750 3195 4129 
Q 3622 3509 3622 2328 
Q 3622 1225 3098 567 
Q 2575 -91 1691 -91 
Q 1453 -91 1209 -44 
Q 966 3 703 97 
z
M 1959 2075 
Q 2384 2075 2632 2365 
Q 2881 2656 2881 3163 
Q 2881 3666 2632 3958 
Q 2384 4250 1959 4250 
Q 1534 4250 1286 3958 
Q 1038 3666 1038 3163 
Q 1038 2656 1286 2365 
Q 1534 2075 1959 2075 
z
" transform="scale(0.015625)"/>
     </defs>
     <use xlink:href="#DejaVuSans-32"/>
     <use xlink:href="#DejaVuSans-37" x="63.623047"/>
     <use xlink:href="#DejaVuSans-2e" x="127.246094"/>
     <use xlink:href="#DejaVuSans-39" x="159.033203"/>
     <use xlink:href="#DejaVuSans-25" x="222.65625"/>
    </g>
   </g>
   <g id="text_13">
    <!-- 83 -->
    <g style="fill: #ffffff" transform="translate(349.103692 457.834602) scale(0.1 -0.1)">
     <use xlink:href="#DejaVuSans-Bold-38"/>
     <use xlink:href="#DejaVuSans-Bold-33" x="69.580078"/>
    </g>
   </g>
   <g id="text_14">
    <!-- Сдали статистику (≥22) -->
    <g style="fill: #2c2c2c" transform="translate(54.12875 458.11054) scale(0.11 -0.11)">
     <defs>
      <path id="DejaVuSans-421" d="M 4122 4306 
L 4122 3641 
Q 3803 3938 3442 4084 
Q 3081 4231 2675 4231 
Q 1875 4231 1450 3742 
Q 1025 3253 1025 2328 
Q 1025 1406 1450 917 
Q 1875 428 2675 428 
Q 3081 428 3442 575 
Q 3803 722 4122 1019 
L 4122 359 
Q 3791 134 3420 21 
Q 3050 -91 2638 -91 
Q 1578 -91 968 557 
Q 359 1206 359 2328 
Q 359 3453 968 4101 
Q 1578 4750 2638 4750 
Q 3056 4750 3426 4639 
Q 3797 4528 4122 4306 
z
" transform="scale(0.015625)"/>
      <path id="DejaVuSans-443" d="M 2059 -325 
Q 1816 -950 1584 -1140 
Q 1353 -1331 966 -1331 
L 506 -1331 
L 506 -850 
L 844 -850 
Q 1081 -850 1212 -737 
Q 1344 -625 1503 -206 
L 1606 56 
L 191 3500 
L 800 3500 
L 1894 763 
L 2988 3500 
L 3597 3500 
L 2059 -325 
z
" transform="scale(0.015625)"/>
      <path id="DejaVuSans-28" d="M 1984 4856 
Q 1566 4138 1362 3434 
Q 1159 2731 1159 2009 
Q 1159 1288 1364 580 
Q 1569 -128 1984 -844 
L 1484 -844 
Q 1016 -109 783 600 
Q 550 1309 550 2009 
Q 550 2706 781 3412 
Q 1013 4119 1484 4856 
L 1984 4856 
z
" transform="scale(0.015625)"/>
      <path id="DejaVuSans-2265" d="M 678 3175 
L 678 3725 
L 4684 2578 
L 4684 2047 
L 678 897 
L 678 1453 
L 3681 2309 
L 678 3175 
z
M 4684 531 
L 4684 0 
L 678 0 
L 678 531 
L 4684 531 
z
" transform="scale(0.015625)"/>
      <path id="DejaVuSans-29" d="M 513 4856 
L 1013 4856 
Q 1481 4119 1714 3412 
Q 1947 2706 1947 2009 
Q 1947 1309 1714 600 
Q 1481 -109 1013 -844 
L 513 -844 
Q 928 -128 1133 580 
Q 1338 1288 1338 2009 
Q 1338 2731 1133 3434 
Q 928 4138 513 4856 
z
" transform="scale(0.015625)"/>
     </defs>
     <use xlink:href="#DejaVuSans-421"/>
     <use xlink:href="#DejaVuSans-434" x="69.824219"/>
     <use xlink:href="#DejaVuSans-430" x="138.964844"/>
     <use xlink:href="#DejaVuSans-43b" x="200.244141"/>
     <use xlink:href="#DejaVuSans-438" x="264.160156"/>
     <use xlink:href="#DejaVuSans-20" x="329.150391"/>
     <use xlink:href="#DejaVuSans-441" x="360.9375"/>
     <use xlink:href="#DejaVuSans-442" x="415.917969"/>
     <use xlink:href="#DejaVuSans-430" x="474.169922"/>
     <use xlink:href="#DejaVuSans-442" x="535.449219"/>
     <use xlink:href="#DejaVuSans-438" x="593.701172"/>
     <use xlink:href="#DejaVuSans-441" x="658.691406"/>
     <use xlink:href="#DejaVuSans-442" x="713.671875"/>
     <use xlink:href="#DejaVuSans-438" x="771.923828"/>
     <use xlink:href="#DejaVuSans-43a" x="836.914062"/>
     <use xlink:href="#DejaVuSans-443" x="897.314453"/>
     <use xlink:href="#DejaVuSans-20" x="956.494141"/>
     <use xlink:href="#DejaVuSans-28" x="988.28125"/>
     <use xlink:href="#DejaVuSans-2265" x="1027.294922"/>
     <use xlink:href="#DejaVuSans-32" x="1111.083984"/>
     <use xlink:href="#DejaVuSans-32" x="1174.707031"/>
     <use xlink:href="#DejaVuSans-29" x="1238.330078"/>
    </g>
   </g>
   <g id="text_15">
    <!-- 27.9% -->
    <g style="fill: #5c5c5c" transform="translate(446.917198 457.834602) scale(0.1 -0.1)">
     <use xlink:href="#DejaVuSans-32"/>
     <use xlink:href="#DejaVuSans-37" x="63.623047"/>
     <use xlink:href="#DejaVuSans-2e" x="127.246094"/>
     <use xlink:href="#DejaVuSans-39" x="159.033203"/>
     <use xlink:href="#DejaVuSans-25" x="222.65625"/>
    </g>
   </g>
   <g id="text_16">
    <!-- 39 -->
    <g style="fill: #ffffff" transform="translate(310.291551 405.854261) scale(0.1 -0.1)">
     <defs>
      <path id="DejaVuSans-Bold-39" d="M 641 103 
L 641 966 
Q 928 831 1190 764 
Q 1453 697 1709 697 
Q 2247 697 2547 995 
Q 2847 1294 2900 1881 
Q 2688 1725 2447 1647 
Q 2206 1569 1925 1569 
Q 1209 1569 770 1986 
Q 331 2403 331 3084 
Q 331 3838 820 4291 
Q 1309 4744 2131 4744 
Q 3044 4744 3544 4128 
Q 4044 3513 4044 2388 
Q 4044 1231 3459 570 
Q 2875 -91 1856 -91 
Q 1528 -91 1228 -42 
Q 928 6 641 103 
z
M 2125 2350 
Q 2441 2350 2600 2554 
Q 2759 2759 2759 3169 
Q 2759 3575 2600 3781 
Q 2441 3988 2125 3988 
Q 1809 3988 1650 3781 
Q 1491 3575 1491 3169 
Q 1491 2759 1650 2554 
Q 1809 2350 2125 2350 
z
" transform="scale(0.015625)"/>
     </defs>
     <use xlink:href="#DejaVuSans-Bold-33"/>
     <use xlink:href="#DejaVuSans-Bold-39" x="69.580078"/>
    </g>
   </g>
   <g id="text_17">
    <!-- Не сдали статистику (&lt;22) -->
    <g style="fill: #2c2c2c" transform="translate(37.224844 406.130199) scale(0.11 -0.11)">
     <defs>
      <path id="DejaVuSans-41d" d="M 628 4666 
L 1259 4666 
L 1259 2753 
L 3553 2753 
L 3553 4666 
L 4184 4666 
L 4184 0 
L 3553 0 
L 3553 2222 
L 1259 2222 
L 1259 0 
L 628 0 
L 628 4666 
z
" transform="scale(0.015625)"/>
      <path id="DejaVuSans-3c" d="M 4684 3150 
L 1459 2003 
L 4684 863 
L 4684 294 
L 678 1747 
L 678 2266 
L 4684 3719 
L 4684 3150 
z
" transform="scale(0.015625)"/>
     </defs>
     <use xlink:href="#DejaVuSans-41d"/>
     <use xlink:href="#DejaVuSans-435" x="75.195312"/>
     <use xlink:href="#DejaVuSans-20" x="136.71875"/>
     <use xlink:href="#DejaVuSans-441" x="168.505859"/>
     <use xlink:href="#DejaVuSans-434" x="223.486328"/>
     <use xlink:href="#DejaVuSans-430" x="292.626953"/>
     <use xlink:href="#DejaVuSans-43b" x="353.90625"/>
     <use xlink:href="#DejaVuSans-438" x="417.822266"/>
     <use xlink:href="#DejaVuSans-20" x="482.8125"/>
     <use xlink:href="#DejaVuSans-441" x="514.599609"/>
     <use xlink:href="#DejaVuSans-442" x="569.580078"/>
     <use xlink:href="#DejaVuSans-430" x="627.832031"/>
     <use xlink:href="#DejaVuSans-442" x="689.111328"/>
     <use xlink:href="#DejaVuSans-438" x="747.363281"/>
     <use xlink:href="#DejaVuSans-441" x="812.353516"/>
     <use xlink:href="#DejaVuSans-442" x="867.333984"/>
     <use xlink:href="#DejaVuSans-438" x="925.585938"/>
     <use xlink:href="#DejaVuSans-43a" x="990.576172"/>
     <use xlink:href="#DejaVuSans-443" x="1050.976562"/>
     <use xlink:href="#DejaVuSans-20" x="1110.15625"/>
     <use xlink:href="#DejaVuSans-28" x="1141.943359"/>
     <use xlink:href="#DejaVuSans-3c" x="1180.957031"/>
     <use xlink:href="#DejaVuSans-32" x="1264.746094"/>
     <use xlink:href="#DejaVuSans-32" x="1328.369141"/>
     <use xlink:href="#DejaVuSans-29" x="1391.992188"/>
    </g>
   </g>
   <g id="text_18">
    <!-- 13.1% -->
    <g style="fill: #5c5c5c" transform="translate(369.292916 405.854261) scale(0.1 -0.1)">
     <use xlink:href="#DejaVuSans-31"/>
     <use xlink:href="#DejaVuSans-33" x="63.623047"/>
     <use xlink:href="#DejaVuSans-2e" x="127.246094"/>
     <use xlink:href="#DejaVuSans-31" x="159.033203"/>
     <use xlink:href="#DejaVuSans-25" x="222.65625"/>
    </g>
   </g>
   <g id="text_19">
    <!-- 12 -->
    <g style="fill: #ffffff" transform="translate(286.47501 353.87392) scale(0.1 -0.1)">
     <defs>
      <path id="DejaVuSans-Bold-31" d="M 750 831 
L 1813 831 
L 1813 3847 
L 722 3622 
L 722 4441 
L 1806 4666 
L 2950 4666 
L 2950 831 
L 4013 831 
L 4013 0 
L 750 0 
L 750 831 
z
" transform="scale(0.015625)"/>
      <path id="DejaVuSans-Bold-32" d="M 1844 884 
L 3897 884 
L 3897 0 
L 506 0 
L 506 884 
L 2209 2388 
Q 2438 2594 2547 2791 
Q 2656 2988 2656 3200 
Q 2656 3528 2436 3728 
Q 2216 3928 1850 3928 
Q 1569 3928 1234 3808 
Q 900 3688 519 3450 
L 519 4475 
Q 925 4609 1322 4679 
Q 1719 4750 2100 4750 
Q 2938 4750 3402 4381 
Q 3866 4013 3866 3353 
Q 3866 2972 3669 2642 
Q 3472 2313 2841 1759 
L 1844 884 
z
" transform="scale(0.015625)"/>
     </defs>
     <use xlink:href="#DejaVuSans-Bold-31"/>
     <use xlink:href="#DejaVuSans-Bold-32" x="69.580078"/>
    </g>
   </g>
   <g id="text_20">
    <!-- Не явились на статистику -->
    <g style="fill: #2c2c2c" transform="translate(42.705938 354.149858) scale(0.11 -0.11)">
     <defs>
      <path id="DejaVuSans-44f" d="M 1181 2491 
Q 1181 2231 1381 2084 
Q 1581 1938 1953 1938 
L 2728 1938 
L 2728 3041 
L 1953 3041 
Q 1581 3041 1381 2897 
Q 1181 2753 1181 2491 
z
M 363 0 
L 1431 1534 
Q 1069 1616 828 1830 
Q 588 2044 588 2491 
Q 588 2997 923 3248 
Q 1259 3500 1938 3500 
L 3306 3500 
L 3306 0 
L 2728 0 
L 2728 1478 
L 2013 1478 
L 981 0 
L 363 0 
z
" transform="scale(0.015625)"/>
      <path id="DejaVuSans-44c" d="M 2781 1038 
Q 2781 1319 2576 1466 
Q 2372 1613 1978 1613 
L 1159 1613 
L 1159 459 
L 1978 459 
Q 2372 459 2576 607 
Q 2781 756 2781 1038 
z
M 581 3500 
L 1159 3500 
L 1159 2072 
L 2003 2072 
Q 2672 2072 3033 1817 
Q 3394 1563 3394 1038 
Q 3394 513 3033 256 
Q 2672 0 2003 0 
L 581 0 
L 581 3500 
z
" transform="scale(0.015625)"/>
     </defs>
     <use xlink:href="#DejaVuSans-41d"/>
     <use xlink:href="#DejaVuSans-435" x="75.195312"/>
     <use xlink:href="#DejaVuSans-20" x="136.71875"/>
     <use xlink:href="#DejaVuSans-44f" x="168.505859"/>
     <use xlink:href="#DejaVuSans-432" x="228.662109"/>
     <use xlink:href="#DejaVuSans-438" x="287.597656"/>
     <use xlink:href="#DejaVuSans-43b" x="352.587891"/>
     <use xlink:href="#DejaVuSans-438" x="416.503906"/>
     <use xlink:href="#DejaVuSans-441" x="481.494141"/>
     <use xlink:href="#DejaVuSans-44c" x="536.474609"/>
     <use xlink:href="#DejaVuSans-20" x="595.410156"/>
     <use xlink:href="#DejaVuSans-43d" x="627.197266"/>
     <use xlink:href="#DejaVuSans-430" x="692.578125"/>
     <use xlink:href="#DejaVuSans-20" x="753.857422"/>
     <use xlink:href="#DejaVuSans-441" x="785.644531"/>
     <use xlink:href="#DejaVuSans-442" x="840.625"/>
     <use xlink:href="#DejaVuSans-430" x="898.876953"/>
     <use xlink:href="#DejaVuSans-442" x="960.15625"/>
     <use xlink:href="#DejaVuSans-438" x="1018.408203"/>
     <use xlink:href="#DejaVuSans-441" x="1083.398438"/>
     <use xlink:href="#DejaVuSans-442" x="1138.378906"/>
     <use xlink:href="#DejaVuSans-438" x="1196.630859"/>
     <use xlink:href="#DejaVuSans-43a" x="1261.621094"/>
     <use xlink:href="#DejaVuSans-443" x="1322.021484"/>
    </g>
   </g>
   <g id="text_21">
    <!-- 4.0% -->
    <g style="fill: #5c5c5c" transform="translate(321.659834 353.87392) scale(0.1 -0.1)">
     <defs>
      <path id="DejaVuSans-34" d="M 2419 4116 
L 825 1625 
L 2419 1625 
L 2419 4116 
z
M 2253 4666 
L 3047 4666 
L 3047 1625 
L 3713 1625 
L 3713 1100 
L 3047 1100 
L 3047 0 
L 2419 0 
L 2419 1100 
L 313 1100 
L 313 1709 
L 2253 4666 
z
" transform="scale(0.015625)"/>
     </defs>
     <use xlink:href="#DejaVuSans-34"/>
     <use xlink:href="#DejaVuSans-2e" x="63.623047"/>
     <use xlink:href="#DejaVuSans-30" x="95.410156"/>
     <use xlink:href="#DejaVuSans-25" x="159.033203"/>
    </g>
   </g>
   <g id="text_22">
    <!-- 6 -->
    <g style="fill: #ffffff" transform="translate(284.661351 301.89358) scale(0.1 -0.1)">
     <defs>
      <path id="DejaVuSans-Bold-36" d="M 2316 2303 
Q 2000 2303 1842 2098 
Q 1684 1894 1684 1484 
Q 1684 1075 1842 870 
Q 2000 666 2316 666 
Q 2634 666 2792 870 
Q 2950 1075 2950 1484 
Q 2950 1894 2792 2098 
Q 2634 2303 2316 2303 
z
M 3803 4544 
L 3803 3681 
Q 3506 3822 3243 3889 
Q 2981 3956 2731 3956 
Q 2194 3956 1894 3657 
Q 1594 3359 1544 2772 
Q 1750 2925 1990 3001 
Q 2231 3078 2516 3078 
Q 3231 3078 3670 2659 
Q 4109 2241 4109 1563 
Q 4109 813 3618 361 
Q 3128 -91 2303 -91 
Q 1394 -91 895 523 
Q 397 1138 397 2266 
Q 397 3422 980 4083 
Q 1563 4744 2578 4744 
Q 2900 4744 3203 4694 
Q 3506 4644 3803 4544 
z
" transform="scale(0.015625)"/>
     </defs>
     <use xlink:href="#DejaVuSans-Bold-36"/>
    </g>
   </g>
   <g id="text_23">
    <!-- Сдали только статистику -->
    <g style="fill: #2c2c2c" transform="translate(45.899375 296.01072) scale(0.11 -0.11)">
     <use xlink:href="#DejaVuSans-421"/>
     <use xlink:href="#DejaVuSans-434" x="69.824219"/>
     <use xlink:href="#DejaVuSans-430" x="138.964844"/>
     <use xlink:href="#DejaVuSans-43b" x="200.244141"/>
     <use xlink:href="#DejaVuSans-438" x="264.160156"/>
     <use xlink:href="#DejaVuSans-20" x="329.150391"/>
     <use xlink:href="#DejaVuSans-442" x="360.9375"/>
     <use xlink:href="#DejaVuSans-43e" x="419.189453"/>
     <use xlink:href="#DejaVuSans-43b" x="480.371094"/>
     <use xlink:href="#DejaVuSans-44c" x="544.287109"/>
     <use xlink:href="#DejaVuSans-43a" x="603.222656"/>
     <use xlink:href="#DejaVuSans-43e" x="663.623047"/>
     <use xlink:href="#DejaVuSans-20" x="724.804688"/>
     <use xlink:href="#DejaVuSans-441" x="756.591797"/>
     <use xlink:href="#DejaVuSans-442" x="811.572266"/>
     <use xlink:href="#DejaVuSans-430" x="869.824219"/>
     <use xlink:href="#DejaVuSans-442" x="931.103516"/>
     <use xlink:href="#DejaVuSans-438" x="989.355469"/>
     <use xlink:href="#DejaVuSans-441" x="1054.345703"/>
     <use xlink:href="#DejaVuSans-442" x="1109.326172"/>
     <use xlink:href="#DejaVuSans-438" x="1167.578125"/>
     <use xlink:href="#DejaVuSans-43a" x="1232.568359"/>
     <use xlink:href="#DejaVuSans-443" x="1292.96875"/>
    </g>
    <!-- (не явились на экономику) -->
    <g style="fill: #2c2c2c" transform="translate(38.778594 308.328314) scale(0.11 -0.11)">
     <defs>
      <path id="DejaVuSans-44d" d="M 353 666 
Q 847 397 1338 397 
Q 1797 397 2125 664 
Q 2453 931 2513 1613 
L 738 1613 
L 738 2072 
L 2494 2072 
Q 2456 2400 2207 2748 
Q 1959 3097 1338 3097 
Q 856 3097 353 2828 
L 353 3366 
Q 844 3584 1363 3584 
Q 2181 3584 2651 3089 
Q 3122 2594 3122 1747 
Q 3122 903 2664 406 
Q 2206 -91 1403 -91 
Q 813 -91 353 134 
L 353 666 
z
" transform="scale(0.015625)"/>
      <path id="DejaVuSans-43c" d="M 581 3500 
L 1422 3500 
L 2416 1156 
L 3413 3500 
L 4247 3500 
L 4247 0 
L 3669 0 
L 3669 2950 
L 2703 672 
L 2128 672 
L 1159 2950 
L 1159 0 
L 581 0 
L 581 3500 
z
" transform="scale(0.015625)"/>
     </defs>
     <use xlink:href="#DejaVuSans-28"/>
     <use xlink:href="#DejaVuSans-43d" x="39.013672"/>
     <use xlink:href="#DejaVuSans-435" x="104.394531"/>
     <use xlink:href="#DejaVuSans-20" x="165.917969"/>
     <use xlink:href="#DejaVuSans-44f" x="197.705078"/>
     <use xlink:href="#DejaVuSans-432" x="257.861328"/>
     <use xlink:href="#DejaVuSans-438" x="316.796875"/>
     <use xlink:href="#DejaVuSans-43b" x="381.787109"/>
     <use xlink:href="#DejaVuSans-438" x="445.703125"/>
     <use xlink:href="#DejaVuSans-441" x="510.693359"/>
     <use xlink:href="#DejaVuSans-44c" x="565.673828"/>
     <use xlink:href="#DejaVuSans-20" x="624.609375"/>
     <use xlink:href="#DejaVuSans-43d" x="656.396484"/>
     <use xlink:href="#DejaVuSans-430" x="721.777344"/>
     <use xlink:href="#DejaVuSans-20" x="783.056641"/>
     <use xlink:href="#DejaVuSans-44d" x="814.84375"/>
     <use xlink:href="#DejaVuSans-43a" x="869.726562"/>
     <use xlink:href="#DejaVuSans-43e" x="930.126953"/>
     <use xlink:href="#DejaVuSans-43d" x="991.308594"/>
     <use xlink:href="#DejaVuSans-43e" x="1056.689453"/>
     <use xlink:href="#DejaVuSans-43c" x="1117.871094"/>
     <use xlink:href="#DejaVuSans-438" x="1193.310547"/>
     <use xlink:href="#DejaVuSans-43a" x="1258.300781"/>
     <use xlink:href="#DejaVuSans-443" x="1318.701172"/>
     <use xlink:href="#DejaVuSans-29" x="1377.880859"/>
    </g>
   </g>
   <g id="text_24">
    <!-- 2.0% -->
    <g style="fill: #5c5c5c" transform="translate(311.074704 301.89358) scale(0.1 -0.1)">
     <use xlink:href="#DejaVuSans-32"/>
     <use xlink:href="#DejaVuSans-2e" x="63.623047"/>
     <use xlink:href="#DejaVuSans-30" x="95.410156"/>
     <use xlink:href="#DejaVuSans-25" x="159.033203"/>
    </g>
   </g>
   <g id="text_25">
    <!-- 134 -->
    <g style="fill: #ffffff" transform="translate(390.611585 249.913239) scale(0.1 -0.1)">
     <defs>
      <path id="DejaVuSans-Bold-34" d="M 2356 3675 
L 1038 1722 
L 2356 1722 
L 2356 3675 
z
M 2156 4666 
L 3494 4666 
L 3494 1722 
L 4159 1722 
L 4159 850 
L 3494 850 
L 3494 0 
L 2356 0 
L 2356 850 
L 288 850 
L 288 1881 
L 2156 4666 
z
" transform="scale(0.015625)"/>
     </defs>
     <use xlink:href="#DejaVuSans-Bold-31"/>
     <use xlink:href="#DejaVuSans-Bold-33" x="69.580078"/>
     <use xlink:href="#DejaVuSans-Bold-34" x="139.160156"/>
    </g>
   </g>
   <g id="text_26">
    <!-- Сдали экономику (≥36) -->
    <g style="fill: #2c2c2c" transform="translate(57.70375 250.189176) scale(0.11 -0.11)">
     <use xlink:href="#DejaVuSans-421"/>
     <use xlink:href="#DejaVuSans-434" x="69.824219"/>
     <use xlink:href="#DejaVuSans-430" x="138.964844"/>
     <use xlink:href="#DejaVuSans-43b" x="200.244141"/>
     <use xlink:href="#DejaVuSans-438" x="264.160156"/>
     <use xlink:href="#DejaVuSans-20" x="329.150391"/>
     <use xlink:href="#DejaVuSans-44d" x="360.9375"/>
     <use xlink:href="#DejaVuSans-43a" x="415.820312"/>
     <use xlink:href="#DejaVuSans-43e" x="476.220703"/>
     <use xlink:href="#DejaVuSans-43d" x="537.402344"/>
     <use xlink:href="#DejaVuSans-43e" x="602.783203"/>
     <use xlink:href="#DejaVuSans-43c" x="663.964844"/>
     <use xlink:href="#DejaVuSans-438" x="739.404297"/>
     <use xlink:href="#DejaVuSans-43a" x="804.394531"/>
     <use xlink:href="#DejaVuSans-443" x="864.794922"/>
     <use xlink:href="#DejaVuSans-20" x="923.974609"/>
     <use xlink:href="#DejaVuSans-28" x="955.761719"/>
     <use xlink:href="#DejaVuSans-2265" x="994.775391"/>
     <use xlink:href="#DejaVuSans-33" x="1078.564453"/>
     <use xlink:href="#DejaVuSans-36" x="1142.1875"/>
     <use xlink:href="#DejaVuSans-29" x="1205.810547"/>
    </g>
   </g>
   <g id="text_27">
    <!-- 45.1% -->
    <g style="fill: #5c5c5c" transform="translate(536.890797 249.913239) scale(0.1 -0.1)">
     <defs>
      <path id="DejaVuSans-35" d="M 691 4666 
L 3169 4666 
L 3169 4134 
L 1269 4134 
L 1269 2991 
Q 1406 3038 1543 3061 
Q 1681 3084 1819 3084 
Q 2600 3084 3056 2656 
Q 3513 2228 3513 1497 
Q 3513 744 3044 326 
Q 2575 -91 1722 -91 
Q 1428 -91 1123 -41 
Q 819 9 494 109 
L 494 744 
Q 775 591 1075 516 
Q 1375 441 1709 441 
Q 2250 441 2565 725 
Q 2881 1009 2881 1497 
Q 2881 1984 2565 2268 
Q 2250 2553 1709 2553 
Q 1456 2553 1204 2497 
Q 953 2441 691 2322 
L 691 4666 
z
" transform="scale(0.015625)"/>
     </defs>
     <use xlink:href="#DejaVuSans-34"/>
     <use xlink:href="#DejaVuSans-35" x="63.623047"/>
     <use xlink:href="#DejaVuSans-2e" x="127.246094"/>
     <use xlink:href="#DejaVuSans-31" x="159.033203"/>
     <use xlink:href="#DejaVuSans-25" x="222.65625"/>
    </g>
   </g>
   <g id="text_28">
    <!-- 3 -->
    <g style="fill: #ffffff" transform="translate(282.015069 197.932898) scale(0.1 -0.1)">
     <use xlink:href="#DejaVuSans-Bold-33"/>
    </g>
   </g>
   <g id="text_29">
    <!-- Не сдали экономику (&lt;36) -->
    <g style="fill: #2c2c2c" transform="translate(40.799844 198.208835) scale(0.11 -0.11)">
     <use xlink:href="#DejaVuSans-41d"/>
     <use xlink:href="#DejaVuSans-435" x="75.195312"/>
     <use xlink:href="#DejaVuSans-20" x="136.71875"/>
     <use xlink:href="#DejaVuSans-441" x="168.505859"/>
     <use xlink:href="#DejaVuSans-434" x="223.486328"/>
     <use xlink:href="#DejaVuSans-430" x="292.626953"/>
     <use xlink:href="#DejaVuSans-43b" x="353.90625"/>
     <use xlink:href="#DejaVuSans-438" x="417.822266"/>
     <use xlink:href="#DejaVuSans-20" x="482.8125"/>
     <use xlink:href="#DejaVuSans-44d" x="514.599609"/>
     <use xlink:href="#DejaVuSans-43a" x="569.482422"/>
     <use xlink:href="#DejaVuSans-43e" x="629.882812"/>
     <use xlink:href="#DejaVuSans-43d" x="691.064453"/>
     <use xlink:href="#DejaVuSans-43e" x="756.445312"/>
     <use xlink:href="#DejaVuSans-43c" x="817.626953"/>
     <use xlink:href="#DejaVuSans-438" x="893.066406"/>
     <use xlink:href="#DejaVuSans-43a" x="958.056641"/>
     <use xlink:href="#DejaVuSans-443" x="1018.457031"/>
     <use xlink:href="#DejaVuSans-20" x="1077.636719"/>
     <use xlink:href="#DejaVuSans-28" x="1109.423828"/>
     <use xlink:href="#DejaVuSans-3c" x="1148.4375"/>
     <use xlink:href="#DejaVuSans-33" x="1232.226562"/>
     <use xlink:href="#DejaVuSans-36" x="1295.849609"/>
     <use xlink:href="#DejaVuSans-29" x="1359.472656"/>
    </g>
   </g>
   <g id="text_30">
    <!-- 1.0% -->
    <g style="fill: #5c5c5c" transform="translate(305.78214 197.932898) scale(0.1 -0.1)">
     <use xlink:href="#DejaVuSans-31"/>
     <use xlink:href="#DejaVuSans-2e" x="63.623047"/>
     <use xlink:href="#DejaVuSans-30" x="95.410156"/>
     <use xlink:href="#DejaVuSans-25" x="159.033203"/>
    </g>
   </g>
   <g id="text_31">
    <!-- 160 -->
    <g style="fill: #ffffff" transform="translate(413.546032 145.952557) scale(0.1 -0.1)">
     <use xlink:href="#DejaVuSans-Bold-31"/>
     <use xlink:href="#DejaVuSans-Bold-36" x="69.580078"/>
     <use xlink:href="#DejaVuSans-Bold-30" x="139.160156"/>
    </g>
   </g>
   <g id="text_32">
    <!-- Не явились на экономику -->
    <g style="fill: #2c2c2c" transform="translate(46.280937 146.228494) scale(0.11 -0.11)">
     <use xlink:href="#DejaVuSans-41d"/>
     <use xlink:href="#DejaVuSans-435" x="75.195312"/>
     <use xlink:href="#DejaVuSans-20" x="136.71875"/>
     <use xlink:href="#DejaVuSans-44f" x="168.505859"/>
     <use xlink:href="#DejaVuSans-432" x="228.662109"/>
     <use xlink:href="#DejaVuSans-438" x="287.597656"/>
     <use xlink:href="#DejaVuSans-43b" x="352.587891"/>
     <use xlink:href="#DejaVuSans-438" x="416.503906"/>
     <use xlink:href="#DejaVuSans-441" x="481.494141"/>
     <use xlink:href="#DejaVuSans-44c" x="536.474609"/>
     <use xlink:href="#DejaVuSans-20" x="595.410156"/>
     <use xlink:href="#DejaVuSans-43d" x="627.197266"/>
     <use xlink:href="#DejaVuSans-430" x="692.578125"/>
     <use xlink:href="#DejaVuSans-20" x="753.857422"/>
     <use xlink:href="#DejaVuSans-44d" x="785.644531"/>
     <use xlink:href="#DejaVuSans-43a" x="840.527344"/>
     <use xlink:href="#DejaVuSans-43e" x="900.927734"/>
     <use xlink:href="#DejaVuSans-43d" x="962.109375"/>
     <use xlink:href="#DejaVuSans-43e" x="1027.490234"/>
     <use xlink:href="#DejaVuSans-43c" x="1088.671875"/>
     <use xlink:href="#DejaVuSans-438" x="1164.111328"/>
     <use xlink:href="#DejaVuSans-43a" x="1229.101562"/>
     <use xlink:href="#DejaVuSans-443" x="1289.501953"/>
    </g>
   </g>
   <g id="text_33">
    <!-- 53.9% -->
    <g style="fill: #5c5c5c" transform="translate(582.759691 145.952557) scale(0.1 -0.1)">
     <use xlink:href="#DejaVuSans-35"/>
     <use xlink:href="#DejaVuSans-33" x="63.623047"/>
     <use xlink:href="#DejaVuSans-2e" x="127.246094"/>
     <use xlink:href="#DejaVuSans-39" x="159.033203"/>
     <use xlink:href="#DejaVuSans-25" x="222.65625"/>
    </g>
   </g>
   <g id="text_34">
    <!-- 297 -->
    <g style="fill: #ffffff" transform="translate(534.392926 93.972216) scale(0.1 -0.1)">
     <use xlink:href="#DejaVuSans-Bold-32"/>
     <use xlink:href="#DejaVuSans-Bold-39" x="69.580078"/>
     <use xlink:href="#DejaVuSans-Bold-37" x="139.160156"/>
    </g>
   </g>
   <g id="text_35">
    <!-- Все поступающие -->
    <g style="fill: #2c2c2c" transform="translate(90.420156 94.248153) scale(0.11 -0.11)">
     <defs>
      <path id="DejaVuSans-44e" d="M 3431 3097 
Q 2969 3097 2700 2736 
Q 2431 2375 2431 1747 
Q 2431 1119 2698 758 
Q 2966 397 3431 397 
Q 3891 397 4159 759 
Q 4428 1122 4428 1747 
Q 4428 2369 4159 2733 
Q 3891 3097 3431 3097 
z
M 1844 2103 
Q 1903 2697 2292 3140 
Q 2681 3584 3431 3584 
Q 4181 3584 4609 3096 
Q 5038 2609 5038 1747 
Q 5038 888 4609 398 
Q 4181 -91 3431 -91 
Q 2678 -91 2267 381 
Q 1856 853 1828 1628 
L 1178 1628 
L 1178 0 
L 603 0 
L 603 3500 
L 1178 3500 
L 1178 2103 
L 1844 2103 
z
" transform="scale(0.015625)"/>
      <path id="DejaVuSans-449" d="M 5275 0 
L 581 0 
L 581 3500 
L 1159 3500 
L 1159 459 
L 2638 459 
L 2638 3500 
L 3216 3500 
L 3216 459 
L 4697 459 
L 4697 3500 
L 5275 3500 
L 5275 459 
L 5734 459 
L 5734 -884 
L 5275 -884 
L 5275 0 
z
" transform="scale(0.015625)"/>
     </defs>
     <use xlink:href="#DejaVuSans-412"/>
     <use xlink:href="#DejaVuSans-441" x="68.603516"/>
     <use xlink:href="#DejaVuSans-435" x="123.583984"/>
     <use xlink:href="#DejaVuSans-20" x="185.107422"/>
     <use xlink:href="#DejaVuSans-43f" x="216.894531"/>
     <use xlink:href="#DejaVuSans-43e" x="282.275391"/>
     <use xlink:href="#DejaVuSans-441" x="343.457031"/>
     <use xlink:href="#DejaVuSans-442" x="398.4375"/>
     <use xlink:href="#DejaVuSans-443" x="456.689453"/>
     <use xlink:href="#DejaVuSans-43f" x="515.869141"/>
     <use xlink:href="#DejaVuSans-430" x="581.25"/>
     <use xlink:href="#DejaVuSans-44e" x="642.529297"/>
     <use xlink:href="#DejaVuSans-449" x="726.708984"/>
     <use xlink:href="#DejaVuSans-438" x="820.898438"/>
     <use xlink:href="#DejaVuSans-435" x="885.888672"/>
    </g>
   </g>
   <g id="text_36">
    <!-- 100.0% -->
    <g style="fill: #5c5c5c" transform="translate(824.453479 93.972216) scale(0.1 -0.1)">
     <use xlink:href="#DejaVuSans-31"/>
     <use xlink:href="#DejaVuSans-30" x="63.623047"/>
     <use xlink:href="#DejaVuSans-30" x="127.246094"/>
     <use xlink:href="#DejaVuSans-2e" x="190.869141"/>
     <use xlink:href="#DejaVuSans-30" x="222.65625"/>
     <use xlink:href="#DejaVuSans-25" x="286.279297"/>
    </g>
   </g>
   <g id="text_37">
    <!-- Детализированная воронка поступления в аспирантуру -->
    <g style="fill: #2c2c2c" transform="translate(285.492144 19.2325) scale(0.16 -0.16)">
     <defs>
      <path id="DejaVuSans-Bold-414" d="M 2153 909 
L 3453 909 
L 3453 3756 
L 2444 3756 
L 2444 3472 
Q 2444 1472 2153 909 
z
M 734 909 
Q 1059 1125 1150 1442 
Q 1241 1759 1241 3784 
L 1241 4666 
L 4656 4666 
L 4656 909 
L 5316 909 
L 5316 -1003 
L 4406 -1003 
L 4406 0 
L 1294 0 
L 1294 -1003 
L 384 -1003 
L 384 909 
L 734 909 
z
" transform="scale(0.015625)"/>
      <path id="DejaVuSans-Bold-435" d="M 4031 1759 
L 4031 1441 
L 1416 1441 
Q 1456 1047 1700 850 
Q 1944 653 2381 653 
Q 2734 653 3104 758 
Q 3475 863 3866 1075 
L 3866 213 
Q 3469 63 3072 -14 
Q 2675 -91 2278 -91 
Q 1328 -91 801 392 
Q 275 875 275 1747 
Q 275 2603 792 3093 
Q 1309 3584 2216 3584 
Q 3041 3584 3536 3087 
Q 4031 2591 4031 1759 
z
M 2881 2131 
Q 2881 2450 2695 2645 
Q 2509 2841 2209 2841 
Q 1884 2841 1681 2658 
Q 1478 2475 1428 2131 
L 2881 2131 
z
" transform="scale(0.015625)"/>
      <path id="DejaVuSans-Bold-442" d="M 25 3500 
L 3681 3500 
L 3681 2809 
L 2413 2809 
L 2413 0 
L 1297 0 
L 1297 2809 
L 25 2809 
L 25 3500 
z
" transform="scale(0.015625)"/>
      <path id="DejaVuSans-Bold-430" d="M 2106 1575 
Q 1756 1575 1579 1456 
Q 1403 1338 1403 1106 
Q 1403 894 1545 773 
Q 1688 653 1941 653 
Q 2256 653 2472 879 
Q 2688 1106 2688 1447 
L 2688 1575 
L 2106 1575 
z
M 3816 1997 
L 3816 0 
L 2688 0 
L 2688 519 
Q 2463 200 2181 54 
Q 1900 -91 1497 -91 
Q 953 -91 614 226 
Q 275 544 275 1050 
Q 275 1666 698 1953 
Q 1122 2241 2028 2241 
L 2688 2241 
L 2688 2328 
Q 2688 2594 2478 2717 
Q 2269 2841 1825 2841 
Q 1466 2841 1156 2769 
Q 847 2697 581 2553 
L 581 3406 
Q 941 3494 1303 3539 
Q 1666 3584 2028 3584 
Q 2975 3584 3395 3211 
Q 3816 2838 3816 1997 
z
" transform="scale(0.015625)"/>
      <path id="DejaVuSans-Bold-43b" d="M 353 0 
L 353 800 
Q 906 913 1031 1278 
Q 1125 1556 1125 2928 
L 1125 3500 
L 4150 3500 
L 4150 0 
L 3031 0 
L 3031 2700 
L 2244 2700 
L 2244 2584 
Q 2244 1213 2028 813 
Q 1591 0 353 0 
z
" transform="scale(0.015625)"/>
      <path id="DejaVuSans-Bold-438" d="M 3947 3500 
L 3947 0 
L 2828 0 
L 2828 1863 
L 1700 0 
L 538 0 
L 538 3500 
L 1656 3500 
L 1656 1638 
L 2784 3500 
L 3947 3500 
z
" transform="scale(0.015625)"/>
      <path id="DejaVuSans-Bold-437" d="M 900 2181 
L 1413 2181 
Q 1872 2181 2039 2281 
Q 2206 2381 2206 2519 
Q 2206 2841 1469 2841 
Q 853 2841 472 2625 
L 472 3434 
Q 1041 3584 1713 3584 
Q 2500 3584 2862 3361 
Q 3225 3138 3225 2666 
Q 3225 2047 2541 1888 
Q 3313 1697 3313 994 
Q 3313 453 2888 181 
Q 2463 -91 1553 -91 
Q 875 -91 313 84 
L 313 947 
Q 1013 653 1428 653 
Q 1884 653 2089 776 
Q 2294 900 2294 1056 
Q 2294 1491 1394 1491 
L 900 1491 
L 900 2181 
z
" transform="scale(0.015625)"/>
      <path id="DejaVuSans-Bold-440" d="M 1656 506 
L 1656 -1331 
L 538 -1331 
L 538 3500 
L 1656 3500 
L 1656 2988 
Q 1888 3294 2169 3439 
Q 2450 3584 2816 3584 
Q 3463 3584 3878 3070 
Q 4294 2556 4294 1747 
Q 4294 938 3878 423 
Q 3463 -91 2816 -91 
Q 2450 -91 2169 54 
Q 1888 200 1656 506 
z
M 2400 2772 
Q 2041 2772 1848 2508 
Q 1656 2244 1656 1747 
Q 1656 1250 1848 986 
Q 2041 722 2400 722 
Q 2759 722 2948 984 
Q 3138 1247 3138 1747 
Q 3138 2247 2948 2509 
Q 2759 2772 2400 2772 
z
" transform="scale(0.015625)"/>
      <path id="DejaVuSans-Bold-43e" d="M 2203 2784 
Q 1831 2784 1636 2517 
Q 1441 2250 1441 1747 
Q 1441 1244 1636 976 
Q 1831 709 2203 709 
Q 2569 709 2762 976 
Q 2956 1244 2956 1747 
Q 2956 2250 2762 2517 
Q 2569 2784 2203 2784 
z
M 2203 3584 
Q 3106 3584 3614 3096 
Q 4122 2609 4122 1747 
Q 4122 884 3614 396 
Q 3106 -91 2203 -91 
Q 1297 -91 786 396 
Q 275 884 275 1747 
Q 275 2609 786 3096 
Q 1297 3584 2203 3584 
z
" transform="scale(0.015625)"/>
      <path id="DejaVuSans-Bold-432" d="M 2184 2181 
Q 2378 2181 2478 2261 
Q 2578 2341 2578 2497 
Q 2578 2653 2478 2731 
Q 2378 2809 2184 2809 
L 1656 2809 
L 1656 2181 
L 2184 2181 
z
M 2222 700 
Q 2469 700 2594 798 
Q 2719 897 2719 1094 
Q 2719 1288 2594 1384 
Q 2469 1481 2222 1481 
L 1656 1481 
L 1656 700 
L 2222 700 
z
M 538 3500 
L 2141 3500 
Q 2919 3500 3267 3279 
Q 3616 3059 3616 2575 
Q 3616 2319 3487 2139 
Q 3359 1959 3119 1872 
Q 3428 1788 3598 1561 
Q 3769 1334 3769 1003 
Q 3769 497 3403 248 
Q 3038 0 2294 0 
L 538 0 
L 538 3500 
z
" transform="scale(0.015625)"/>
      <path id="DejaVuSans-Bold-43d" d="M 538 3500 
L 1656 3500 
L 1656 2169 
L 2766 2169 
L 2766 3500 
L 3884 3500 
L 3884 0 
L 2766 0 
L 2766 1478 
L 1656 1478 
L 1656 0 
L 538 0 
L 538 3500 
z
" transform="scale(0.015625)"/>
      <path id="DejaVuSans-Bold-44f" d="M 1528 2394 
Q 1528 2169 1651 2069 
Q 1775 1969 2059 1969 
L 2463 1969 
L 2463 2816 
L 2059 2816 
Q 1775 2816 1651 2719 
Q 1528 2622 1528 2394 
z
M 197 0 
L 1113 1497 
Q 847 1650 650 1917 
Q 453 2184 453 2516 
Q 453 3013 789 3256 
Q 1125 3500 1878 3500 
L 3581 3500 
L 3581 0 
L 2463 0 
L 2463 1278 
L 2069 1278 
L 1288 0 
L 197 0 
z
" transform="scale(0.015625)"/>
      <path id="DejaVuSans-Bold-20" transform="scale(0.015625)"/>
      <path id="DejaVuSans-Bold-43a" d="M 538 3500 
L 1656 3500 
L 1656 2316 
L 2903 3500 
L 4128 3500 
L 2634 2078 
L 4250 0 
L 3094 0 
L 1972 1447 
L 1656 1147 
L 1656 0 
L 538 0 
L 538 3500 
z
" transform="scale(0.015625)"/>
      <path id="DejaVuSans-Bold-43f" d="M 3884 3500 
L 3884 0 
L 2766 0 
L 2766 2700 
L 1656 2700 
L 1656 0 
L 538 0 
L 538 3500 
L 3884 3500 
z
" transform="scale(0.015625)"/>
      <path id="DejaVuSans-Bold-441" d="M 3366 3391 
L 3366 2478 
Q 3138 2634 2908 2709 
Q 2678 2784 2431 2784 
Q 1963 2784 1702 2511 
Q 1441 2238 1441 1747 
Q 1441 1256 1702 982 
Q 1963 709 2431 709 
Q 2694 709 2930 787 
Q 3166 866 3366 1019 
L 3366 103 
Q 3103 6 2833 -42 
Q 2563 -91 2291 -91 
Q 1344 -91 809 395 
Q 275 881 275 1747 
Q 275 2613 809 3098 
Q 1344 3584 2291 3584 
Q 2566 3584 2833 3536 
Q 3100 3488 3366 3391 
z
" transform="scale(0.015625)"/>
      <path id="DejaVuSans-Bold-443" d="M 78 3500 
L 1197 3500 
L 2138 1125 
L 2938 3500 
L 4056 3500 
L 2584 -331 
Q 2363 -916 2067 -1148 
Q 1772 -1381 1288 -1381 
L 641 -1381 
L 641 -647 
L 991 -647 
Q 1275 -647 1404 -556 
Q 1534 -466 1606 -231 
L 1638 -134 
L 78 3500 
z
" transform="scale(0.015625)"/>
     </defs>
     <use xlink:href="#DejaVuSans-Bold-414"/>
     <use xlink:href="#DejaVuSans-Bold-435" x="89.0625"/>
     <use xlink:href="#DejaVuSans-Bold-442" x="156.884766"/>
     <use xlink:href="#DejaVuSans-Bold-430" x="214.84375"/>
     <use xlink:href="#DejaVuSans-Bold-43b" x="282.324219"/>
     <use xlink:href="#DejaVuSans-Bold-438" x="355.566406"/>
     <use xlink:href="#DejaVuSans-Bold-437" x="425.634766"/>
     <use xlink:href="#DejaVuSans-Bold-438" x="483.740234"/>
     <use xlink:href="#DejaVuSans-Bold-440" x="553.808594"/>
     <use xlink:href="#DejaVuSans-Bold-43e" x="625.390625"/>
     <use xlink:href="#DejaVuSans-Bold-432" x="694.091797"/>
     <use xlink:href="#DejaVuSans-Bold-430" x="757.373047"/>
     <use xlink:href="#DejaVuSans-Bold-43d" x="824.853516"/>
     <use xlink:href="#DejaVuSans-Bold-43d" x="893.945312"/>
     <use xlink:href="#DejaVuSans-Bold-430" x="963.037109"/>
     <use xlink:href="#DejaVuSans-Bold-44f" x="1030.517578"/>
     <use xlink:href="#DejaVuSans-Bold-20" x="1094.726562"/>
     <use xlink:href="#DejaVuSans-Bold-432" x="1129.541016"/>
     <use xlink:href="#DejaVuSans-Bold-43e" x="1192.822266"/>
     <use xlink:href="#DejaVuSans-Bold-440" x="1261.523438"/>
     <use xlink:href="#DejaVuSans-Bold-43e" x="1333.105469"/>
     <use xlink:href="#DejaVuSans-Bold-43d" x="1401.806641"/>
     <use xlink:href="#DejaVuSans-Bold-43a" x="1470.898438"/>
     <use xlink:href="#DejaVuSans-Bold-430" x="1538.769531"/>
     <use xlink:href="#DejaVuSans-Bold-20" x="1606.25"/>
     <use xlink:href="#DejaVuSans-Bold-43f" x="1641.064453"/>
     <use xlink:href="#DejaVuSans-Bold-43e" x="1710.15625"/>
     <use xlink:href="#DejaVuSans-Bold-441" x="1778.857422"/>
     <use xlink:href="#DejaVuSans-Bold-442" x="1838.134766"/>
     <use xlink:href="#DejaVuSans-Bold-443" x="1896.09375"/>
     <use xlink:href="#DejaVuSans-Bold-43f" x="1961.279297"/>
     <use xlink:href="#DejaVuSans-Bold-43b" x="2030.371094"/>
     <use xlink:href="#DejaVuSans-Bold-435" x="2103.613281"/>
     <use xlink:href="#DejaVuSans-Bold-43d" x="2171.435547"/>
     <use xlink:href="#DejaVuSans-Bold-438" x="2240.527344"/>
     <use xlink:href="#DejaVuSans-Bold-44f" x="2310.595703"/>
     <use xlink:href="#DejaVuSans-Bold-20" x="2374.804688"/>
     <use xlink:href="#DejaVuSans-Bold-432" x="2409.619141"/>
     <use xlink:href="#DejaVuSans-Bold-20" x="2472.900391"/>
     <use xlink:href="#DejaVuSans-Bold-430" x="2507.714844"/>
     <use xlink:href="#DejaVuSans-Bold-441" x="2575.195312"/>
     <use xlink:href="#DejaVuSans-Bold-43f" x="2634.472656"/>
     <use xlink:href="#DejaVuSans-Bold-438" x="2703.564453"/>
     <use xlink:href="#DejaVuSans-Bold-440" x="2773.632812"/>
     <use xlink:href="#DejaVuSans-Bold-430" x="2845.214844"/>
     <use xlink:href="#DejaVuSans-Bold-43d" x="2912.695312"/>
     <use xlink:href="#DejaVuSans-Bold-442" x="2981.787109"/>
     <use xlink:href="#DejaVuSans-Bold-443" x="3039.746094"/>
     <use xlink:href="#DejaVuSans-Bold-440" x="3104.931641"/>
     <use xlink:href="#DejaVuSans-Bold-443" x="3176.513672"/>
    </g>
   </g>
   <g id="legend_1">
    <g id="patch_14">
     <path d="M 340.828863 684.793063 
L 360.828863 684.793063 
L 360.828863 677.793063 
L 340.828863 677.793063 
z
" style="fill: #5e8aff; opacity: 0.8"/>
    </g>
    <g id="text_38">
     <!-- Успешно пройдено -->
     <g transform="translate(368.828863 684.793063) scale(0.1 -0.1)">
      <defs>
       <path id="DejaVuSans-423" d="M 2047 566 
Q 1981 409 1881 291 
Q 1634 0 850 0 
L 609 0 
L 609 531 
L 806 531 
Q 1178 531 1322 616 
Q 1409 669 1466 800 
L 1606 1131 
L 109 4666 
L 788 4666 
L 1947 1928 
L 3113 4666 
L 3791 4666 
L 2047 566 
z
" transform="scale(0.015625)"/>
       <path id="DejaVuSans-440" d="M 1159 525 
L 1159 -1331 
L 581 -1331 
L 581 3500 
L 1159 3500 
L 1159 2969 
Q 1341 3281 1617 3432 
Q 1894 3584 2278 3584 
Q 2916 3584 3314 3078 
Q 3713 2572 3713 1747 
Q 3713 922 3314 415 
Q 2916 -91 2278 -91 
Q 1894 -91 1617 61 
Q 1341 213 1159 525 
z
M 3116 1747 
Q 3116 2381 2855 2742 
Q 2594 3103 2138 3103 
Q 1681 3103 1420 2742 
Q 1159 2381 1159 1747 
Q 1159 1113 1420 752 
Q 1681 391 2138 391 
Q 2594 391 2855 752 
Q 3116 1113 3116 1747 
z
" transform="scale(0.015625)"/>
      </defs>
      <use xlink:href="#DejaVuSans-423"/>
      <use xlink:href="#DejaVuSans-441" x="60.9375"/>
      <use xlink:href="#DejaVuSans-43f" x="115.917969"/>
      <use xlink:href="#DejaVuSans-435" x="181.298828"/>
      <use xlink:href="#DejaVuSans-448" x="242.822266"/>
      <use xlink:href="#DejaVuSans-43d" x="334.326172"/>
      <use xlink:href="#DejaVuSans-43e" x="399.707031"/>
      <use xlink:href="#DejaVuSans-20" x="460.888672"/>
      <use xlink:href="#DejaVuSans-43f" x="492.675781"/>
      <use xlink:href="#DejaVuSans-440" x="558.056641"/>
      <use xlink:href="#DejaVuSans-43e" x="621.533203"/>
      <use xlink:href="#DejaVuSans-439" x="682.714844"/>
      <use xlink:href="#DejaVuSans-434" x="747.705078"/>
      <use xlink:href="#DejaVuSans-435" x="816.845703"/>
      <use xlink:href="#DejaVuSans-43d" x="878.369141"/>
      <use xlink:href="#DejaVuSans-43e" x="943.75"/>
     </g>
    </g>
    <g id="patch_15">
     <path d="M 340.828863 699.471187 
L 360.828863 699.471187 
L 360.828863 692.471187 
L 340.828863 692.471187 
z
" style="fill: #ffa500; opacity: 0.8"/>
    </g>
    <g id="text_39">
     <!-- Не пройден порог -->
     <g transform="translate(368.828863 699.471187) scale(0.1 -0.1)">
      <use xlink:href="#DejaVuSans-41d"/>
      <use xlink:href="#DejaVuSans-435" x="75.195312"/>
      <use xlink:href="#DejaVuSans-20" x="136.71875"/>
      <use xlink:href="#DejaVuSans-43f" x="168.505859"/>
      <use xlink:href="#DejaVuSans-440" x="233.886719"/>
      <use xlink:href="#DejaVuSans-43e" x="297.363281"/>
      <use xlink:href="#DejaVuSans-439" x="358.544922"/>
      <use xlink:href="#DejaVuSans-434" x="423.535156"/>
      <use xlink:href="#DejaVuSans-435" x="492.675781"/>
      <use xlink:href="#DejaVuSans-43d" x="554.199219"/>
      <use xlink:href="#DejaVuSans-20" x="619.580078"/>
      <use xlink:href="#DejaVuSans-43f" x="651.367188"/>
      <use xlink:href="#DejaVuSans-43e" x="716.748047"/>
      <use xlink:href="#DejaVuSans-440" x="777.929688"/>
      <use xlink:href="#DejaVuSans-43e" x="841.40625"/>
      <use xlink:href="#DejaVuSans-433" x="902.587891"/>
     </g>
    </g>
    <g id="patch_16">
     <path d="M 489.322613 684.793063 
L 509.322613 684.793063 
L 509.322613 677.793063 
L 489.322613 677.793063 
z
" style="fill: #ff5e5e; opacity: 0.8"/>
    </g>
    <g id="text_40">
     <!-- Неявка -->
     <g transform="translate(517.322613 684.793063) scale(0.1 -0.1)">
      <use xlink:href="#DejaVuSans-41d"/>
      <use xlink:href="#DejaVuSans-435" x="75.195312"/>
      <use xlink:href="#DejaVuSans-44f" x="136.71875"/>
      <use xlink:href="#DejaVuSans-432" x="196.875"/>
      <use xlink:href="#DejaVuSans-43a" x="255.810547"/>
      <use xlink:href="#DejaVuSans-430" x="316.210938"/>
     </g>
    </g>
    <g id="patch_17">
     <path d="M 489.322613 699.6415 
L 509.322613 699.6415 
L 509.322613 692.6415 
L 489.322613 692.6415 
z
" style="fill: #888888; opacity: 0.8"/>
    </g>
    <g id="text_41">
     <!-- Особая категория -->
     <g transform="translate(517.322613 699.6415) scale(0.1 -0.1)">
      <defs>
       <path id="DejaVuSans-41e" d="M 2522 4238 
Q 1834 4238 1429 3725 
Q 1025 3213 1025 2328 
Q 1025 1447 1429 934 
Q 1834 422 2522 422 
Q 3209 422 3611 934 
Q 4013 1447 4013 2328 
Q 4013 3213 3611 3725 
Q 3209 4238 2522 4238 
z
M 2522 4750 
Q 3503 4750 4090 4092 
Q 4678 3434 4678 2328 
Q 4678 1225 4090 567 
Q 3503 -91 2522 -91 
Q 1538 -91 948 565 
Q 359 1222 359 2328 
Q 359 3434 948 4092 
Q 1538 4750 2522 4750 
z
" transform="scale(0.015625)"/>
       <path id="DejaVuSans-431" d="M 1991 3584 
Q 2741 3584 3169 3096 
Q 3597 2609 3597 1747 
Q 3597 888 3169 398 
Q 2741 -91 1991 -91 
Q 1238 -91 822 384 
Q 406 859 384 1747 
L 366 2463 
Q 350 2834 350 2963 
Q 350 3463 531 3831 
Q 816 4409 1308 4659 
Q 1800 4909 2625 4916 
Q 3006 4919 3175 4972 
L 3334 4516 
Q 3181 4453 3041 4450 
L 2259 4397 
Q 1866 4369 1628 4231 
Q 1006 3866 947 3388 
L 925 3213 
Q 1331 3584 1991 3584 
z
M 1991 3097 
Q 1528 3097 1259 2736 
Q 991 2375 991 1747 
Q 991 1119 1258 758 
Q 1525 397 1991 397 
Q 2450 397 2719 759 
Q 2988 1122 2988 1747 
Q 2988 2369 2719 2733 
Q 2450 3097 1991 3097 
z
" transform="scale(0.015625)"/>
      </defs>
      <use xlink:href="#DejaVuSans-41e"/>
      <use xlink:href="#DejaVuSans-441" x="78.710938"/>
      <use xlink:href="#DejaVuSans-43e" x="133.691406"/>
      <use xlink:href="#DejaVuSans-431" x="194.873047"/>
      <use xlink:href="#DejaVuSans-430" x="256.542969"/>
      <use xlink:href="#DejaVuSans-44f" x="317.822266"/>
      <use xlink:href="#DejaVuSans-20" x="377.978516"/>
      <use xlink:href="#DejaVuSans-43a" x="409.765625"/>
      <use xlink:href="#DejaVuSans-430" x="470.166016"/>
      <use xlink:href="#DejaVuSans-442" x="531.445312"/>
      <use xlink:href="#DejaVuSans-435" x="589.697266"/>
      <use xlink:href="#DejaVuSans-433" x="651.220703"/>
      <use xlink:href="#DejaVuSans-43e" x="703.759766"/>
      <use xlink:href="#DejaVuSans-440" x="764.941406"/>
      <use xlink:href="#DejaVuSans-438" x="828.417969"/>
      <use xlink:href="#DejaVuSans-44f" x="893.408203"/>
     </g>
    </g>
    <g id="patch_18">
     <path d="M 632.683551 684.793063 
L 652.683551 684.793063 
L 652.683551 677.793063 
L 632.683551 677.793063 
z
" style="fill: #47d7ac; opacity: 0.8"/>
    </g>
    <g id="text_42">
     <!-- Финальный этап -->
     <g transform="translate(660.683551 684.793063) scale(0.1 -0.1)">
      <defs>
       <path id="DejaVuSans-424" d="M 2441 3706 
Q 1763 3644 1403 3325 
Q 1044 3006 1044 2391 
Q 1044 1775 1403 1458 
Q 1763 1141 2441 1078 
L 2441 3706 
z
M 3075 1078 
Q 3753 1141 4109 1458 
Q 4466 1775 4466 2391 
Q 4466 3006 4109 3325 
Q 3753 3644 3075 3706 
L 3075 1078 
z
M 2441 556 
Q 1450 628 914 1095 
Q 378 1563 378 2391 
Q 378 3219 914 3689 
Q 1450 4159 2441 4231 
L 2441 4666 
L 3075 4666 
L 3075 4231 
Q 4066 4159 4598 3692 
Q 5131 3225 5131 2391 
Q 5131 1563 4598 1095 
Q 4066 628 3075 556 
L 3075 0 
L 2441 0 
L 2441 556 
z
" transform="scale(0.015625)"/>
      </defs>
      <use xlink:href="#DejaVuSans-424"/>
      <use xlink:href="#DejaVuSans-438" x="86.083984"/>
      <use xlink:href="#DejaVuSans-43d" x="151.074219"/>
      <use xlink:href="#DejaVuSans-430" x="216.455078"/>
      <use xlink:href="#DejaVuSans-43b" x="277.734375"/>
      <use xlink:href="#DejaVuSans-44c" x="341.650391"/>
      <use xlink:href="#DejaVuSans-43d" x="400.585938"/>
      <use xlink:href="#DejaVuSans-44b" x="465.966797"/>
      <use xlink:href="#DejaVuSans-439" x="544.921875"/>
      <use xlink:href="#DejaVuSans-20" x="609.912109"/>
      <use xlink:href="#DejaVuSans-44d" x="641.699219"/>
      <use xlink:href="#DejaVuSans-442" x="696.582031"/>
      <use xlink:href="#DejaVuSans-430" x="754.833984"/>
      <use xlink:href="#DejaVuSans-43f" x="816.113281"/>
     </g>
    </g>
   </g>
  </g>
 </g>
 <defs>
  <clipPath id="p0117fbd6bf">
   <rect x="106.42887" y="39.2325" width="876.801549" height="571.78375"/>
  </clipPath>
 </defs>
</svg>
