<?xml version="1.0" encoding="utf-8" standalone="no"?>
<!DOCTYPE svg PUBLIC "-//W3C//DTD SVG 1.1//EN"
  "http://www.w3.org/Graphics/SVG/1.1/DTD/svg11.dtd">
<svg xmlns:xlink="http://www.w3.org/1999/xlink" width="682.752318pt" height="597.312187pt" viewBox="0 0 682.752318 597.312187" xmlns="http://www.w3.org/2000/svg" version="1.1">
 <metadata>
  <rdf:RDF xmlns:dc="http://purl.org/dc/elements/1.1/" xmlns:cc="http://creativecommons.org/ns#" xmlns:rdf="http://www.w3.org/1999/02/22-rdf-syntax-ns#">
   <cc:Work>
    <dc:type rdf:resource="http://purl.org/dc/dcmitype/StillImage"/>
    <dc:date>2025-10-01T00:50:13.531583</dc:date>
    <dc:format>image/svg+xml</dc:format>
    <dc:creator>
     <cc:Agent>
      <dc:title>Matplotlib v3.7.2, https://matplotlib.org/</dc:title>
     </cc:Agent>
    </dc:creator>
   </cc:Work>
  </rdf:RDF>
 </metadata>
 <defs>
  <style type="text/css">*{stroke-linejoin: round; stroke-linecap: butt}</style>
 </defs>
 <g id="figure_1">
  <g id="patch_1">
   <path d="M 0 597.312187 
L 682.752318 597.312187 
L 682.752318 0 
L 0 0 
L 0 597.312187 
z
" style="fill: none"/>
  </g>
  <g id="axes_1">
   <g id="patch_2">
    <path d="M 434.023438 576.26375 
L 645.903854 576.26375 
L 645.903854 7.2 
L 434.023438 7.2 
L 434.023438 576.26375 
z
" style="fill: none"/>
   </g>
   <g id="patch_3">
    <path d="M 434.023438 550.397216 
L 434.023438 550.397216 
L 434.023438 532.760943 
L 434.023438 532.760943 
z
" clip-path="url(#pe35cb1a62d)" style="fill: #5e8aff"/>
   </g>
   <g id="patch_4">
    <path d="M 434.023438 521.003427 
L 464.292068 521.003427 
L 464.292068 503.367154 
L 434.023438 503.367154 
z
" clip-path="url(#pe35cb1a62d)" style="fill: #5e8aff"/>
   </g>
   <g id="patch_5">
    <path d="M 434.023438 491.609638 
L 481.107974 491.609638 
L 481.107974 473.973365 
L 434.023438 473.973365 
z
" clip-path="url(#pe35cb1a62d)" style="fill: #5e8aff"/>
   </g>
   <g id="patch_6">
    <path d="M 434.023438 462.21585 
L 483.462201 462.21585 
L 483.462201 444.579576 
L 434.023438 444.579576 
z
" clip-path="url(#pe35cb1a62d)" style="fill: #5e8aff"/>
   </g>
   <g id="patch_7">
    <path d="M 434.023438 432.822061 
L 504.650243 432.822061 
L 504.650243 415.185788 
L 434.023438 415.185788 
z
" clip-path="url(#pe35cb1a62d)" style="fill: #5e8aff"/>
   </g>
   <g id="patch_8">
    <path d="M 434.023438 403.428272 
L 513.478594 403.428272 
L 513.478594 385.791999 
L 434.023438 385.791999 
z
" clip-path="url(#pe35cb1a62d)" style="fill: #5e8aff"/>
   </g>
   <g id="patch_9">
    <path d="M 434.023438 374.034483 
L 524.82933 374.034483 
L 524.82933 356.39821 
L 434.023438 356.39821 
z
" clip-path="url(#pe35cb1a62d)" style="fill: #5e8aff"/>
   </g>
   <g id="patch_10">
    <path d="M 434.023438 344.640695 
L 539.963646 344.640695 
L 539.963646 327.004421 
L 434.023438 327.004421 
z
" clip-path="url(#pe35cb1a62d)" style="fill: #5e8aff"/>
   </g>
   <g id="patch_11">
    <path d="M 434.023438 315.246906 
L 539.963646 315.246906 
L 539.963646 297.610633 
L 434.023438 297.610633 
z
" clip-path="url(#pe35cb1a62d)" style="fill: #5e8aff"/>
   </g>
   <g id="patch_12">
    <path d="M 434.023438 285.853117 
L 539.963646 285.853117 
L 539.963646 268.216844 
L 434.023438 268.216844 
z
" clip-path="url(#pe35cb1a62d)" style="fill: #5e8aff"/>
   </g>
   <g id="patch_13">
    <path d="M 434.023438 256.459329 
L 551.73478 256.459329 
L 551.73478 238.823055 
L 434.023438 238.823055 
z
" clip-path="url(#pe35cb1a62d)" style="fill: #5e8aff"/>
   </g>
   <g id="patch_14">
    <path d="M 434.023438 227.06554 
L 555.097961 227.06554 
L 555.097961 209.429267 
L 434.023438 209.429267 
z
" clip-path="url(#pe35cb1a62d)" style="fill: #5e8aff"/>
   </g>
   <g id="patch_15">
    <path d="M 434.023438 197.671751 
L 561.151687 197.671751 
L 561.151687 180.035478 
L 434.023438 180.035478 
z
" clip-path="url(#pe35cb1a62d)" style="fill: #5e8aff"/>
   </g>
   <g id="patch_16">
    <path d="M 434.023438 168.277962 
L 594.760305 168.277962 
L 594.760305 150.641689 
L 434.023438 150.641689 
z
" clip-path="url(#pe35cb1a62d)" style="fill: #5e8aff"/>
   </g>
   <g id="patch_17">
    <path d="M 434.023438 138.884174 
L 645.903854 138.884174 
L 645.903854 121.2479 
L 434.023438 121.2479 
z
" clip-path="url(#pe35cb1a62d)" style="fill: #5e8aff"/>
   </g>
   <g id="patch_18">
    <path d="M 434.023438 109.490385 
L 645.903854 109.490385 
L 645.903854 91.854112 
L 434.023438 91.854112 
z
" clip-path="url(#pe35cb1a62d)" style="fill: #5e8aff"/>
   </g>
   <g id="patch_19">
    <path d="M 434.023438 80.096596 
L 645.903854 80.096596 
L 645.903854 62.460323 
L 434.023438 62.460323 
z
" clip-path="url(#pe35cb1a62d)" style="fill: #5e8aff"/>
   </g>
   <g id="patch_20">
    <path d="M 434.023438 50.702807 
L 645.903854 50.702807 
L 645.903854 33.066534 
L 434.023438 33.066534 
z
" clip-path="url(#pe35cb1a62d)" style="fill: #5e8aff"/>
   </g>
   <g id="matplotlib.axis_1">
    <g id="text_1">
     <!-- Процент абитуриентов с 60 баллами -->
     <g transform="translate(442.259739 588.0325) scale(0.1 -0.1)">
      <defs>
       <path id="DejaVuSans-41f" d="M 4184 4666 
L 4184 0 
L 3553 0 
L 3553 4134 
L 1259 4134 
L 1259 0 
L 628 0 
L 628 4666 
L 4184 4666 
z
" transform="scale(0.015625)"/>
       <path id="DejaVuSans-440" d="M 1159 525 
L 1159 -1331 
L 581 -1331 
L 581 3500 
L 1159 3500 
L 1159 2969 
Q 1341 3281 1617 3432 
Q 1894 3584 2278 3584 
Q 2916 3584 3314 3078 
Q 3713 2572 3713 1747 
Q 3713 922 3314 415 
Q 2916 -91 2278 -91 
Q 1894 -91 1617 61 
Q 1341 213 1159 525 
z
M 3116 1747 
Q 3116 2381 2855 2742 
Q 2594 3103 2138 3103 
Q 1681 3103 1420 2742 
Q 1159 2381 1159 1747 
Q 1159 1113 1420 752 
Q 1681 391 2138 391 
Q 2594 391 2855 752 
Q 3116 1113 3116 1747 
z
" transform="scale(0.015625)"/>
       <path id="DejaVuSans-43e" d="M 1959 3097 
Q 1497 3097 1228 2736 
Q 959 2375 959 1747 
Q 959 1119 1226 758 
Q 1494 397 1959 397 
Q 2419 397 2687 759 
Q 2956 1122 2956 1747 
Q 2956 2369 2687 2733 
Q 2419 3097 1959 3097 
z
M 1959 3584 
Q 2709 3584 3137 3096 
Q 3566 2609 3566 1747 
Q 3566 888 3137 398 
Q 2709 -91 1959 -91 
Q 1206 -91 779 398 
Q 353 888 353 1747 
Q 353 2609 779 3096 
Q 1206 3584 1959 3584 
z
" transform="scale(0.015625)"/>
       <path id="DejaVuSans-446" d="M 3603 0 
L 581 0 
L 581 3500 
L 1159 3500 
L 1159 459 
L 3025 459 
L 3025 3500 
L 3603 3500 
L 3603 459 
L 4063 459 
L 4063 -884 
L 3603 -884 
L 3603 0 
z
" transform="scale(0.015625)"/>
       <path id="DejaVuSans-435" d="M 3597 1894 
L 3597 1613 
L 953 1613 
Q 991 1019 1311 708 
Q 1631 397 2203 397 
Q 2534 397 2845 478 
Q 3156 559 3463 722 
L 3463 178 
Q 3153 47 2828 -22 
Q 2503 -91 2169 -91 
Q 1331 -91 842 396 
Q 353 884 353 1716 
Q 353 2575 817 3079 
Q 1281 3584 2069 3584 
Q 2775 3584 3186 3129 
Q 3597 2675 3597 1894 
z
M 3022 2063 
Q 3016 2534 2758 2815 
Q 2500 3097 2075 3097 
Q 1594 3097 1305 2825 
Q 1016 2553 972 2059 
L 3022 2063 
z
" transform="scale(0.015625)"/>
       <path id="DejaVuSans-43d" d="M 581 3500 
L 1159 3500 
L 1159 2072 
L 3025 2072 
L 3025 3500 
L 3603 3500 
L 3603 0 
L 3025 0 
L 3025 1613 
L 1159 1613 
L 1159 0 
L 581 0 
L 581 3500 
z
" transform="scale(0.015625)"/>
       <path id="DejaVuSans-442" d="M 188 3500 
L 3541 3500 
L 3541 3041 
L 2147 3041 
L 2147 0 
L 1581 0 
L 1581 3041 
L 188 3041 
L 188 3500 
z
" transform="scale(0.015625)"/>
       <path id="DejaVuSans-20" transform="scale(0.015625)"/>
       <path id="DejaVuSans-430" d="M 2194 1759 
Q 1497 1759 1228 1600 
Q 959 1441 959 1056 
Q 959 750 1161 570 
Q 1363 391 1709 391 
Q 2188 391 2477 730 
Q 2766 1069 2766 1631 
L 2766 1759 
L 2194 1759 
z
M 3341 1997 
L 3341 0 
L 2766 0 
L 2766 531 
Q 2569 213 2275 61 
Q 1981 -91 1556 -91 
Q 1019 -91 701 211 
Q 384 513 384 1019 
Q 384 1609 779 1909 
Q 1175 2209 1959 2209 
L 2766 2209 
L 2766 2266 
Q 2766 2663 2505 2880 
Q 2244 3097 1772 3097 
Q 1472 3097 1187 3025 
Q 903 2953 641 2809 
L 641 3341 
Q 956 3463 1253 3523 
Q 1550 3584 1831 3584 
Q 2591 3584 2966 3190 
Q 3341 2797 3341 1997 
z
" transform="scale(0.015625)"/>
       <path id="DejaVuSans-431" d="M 1991 3584 
Q 2741 3584 3169 3096 
Q 3597 2609 3597 1747 
Q 3597 888 3169 398 
Q 2741 -91 1991 -91 
Q 1238 -91 822 384 
Q 406 859 384 1747 
L 366 2463 
Q 350 2834 350 2963 
Q 350 3463 531 3831 
Q 816 4409 1308 4659 
Q 1800 4909 2625 4916 
Q 3006 4919 3175 4972 
L 3334 4516 
Q 3181 4453 3041 4450 
L 2259 4397 
Q 1866 4369 1628 4231 
Q 1006 3866 947 3388 
L 925 3213 
Q 1331 3584 1991 3584 
z
M 1991 3097 
Q 1528 3097 1259 2736 
Q 991 2375 991 1747 
Q 991 1119 1258 758 
Q 1525 397 1991 397 
Q 2450 397 2719 759 
Q 2988 1122 2988 1747 
Q 2988 2369 2719 2733 
Q 2450 3097 1991 3097 
z
" transform="scale(0.015625)"/>
       <path id="DejaVuSans-438" d="M 3578 3500 
L 3578 0 
L 3006 0 
L 3006 2809 
L 1319 0 
L 581 0 
L 581 3500 
L 1153 3500 
L 1153 697 
L 2838 3500 
L 3578 3500 
z
" transform="scale(0.015625)"/>
       <path id="DejaVuSans-443" d="M 2059 -325 
Q 1816 -950 1584 -1140 
Q 1353 -1331 966 -1331 
L 506 -1331 
L 506 -850 
L 844 -850 
Q 1081 -850 1212 -737 
Q 1344 -625 1503 -206 
L 1606 56 
L 191 3500 
L 800 3500 
L 1894 763 
L 2988 3500 
L 3597 3500 
L 2059 -325 
z
" transform="scale(0.015625)"/>
       <path id="DejaVuSans-432" d="M 1156 1613 
L 1156 459 
L 1975 459 
Q 2369 459 2575 607 
Q 2781 756 2781 1038 
Q 2781 1319 2575 1466 
Q 2369 1613 1975 1613 
L 1156 1613 
z
M 1156 3041 
L 1156 2072 
L 1913 2072 
Q 2238 2072 2444 2201 
Q 2650 2331 2650 2563 
Q 2650 2794 2444 2917 
Q 2238 3041 1913 3041 
L 1156 3041 
z
M 581 3500 
L 1950 3500 
Q 2566 3500 2897 3275 
Q 3228 3050 3228 2634 
Q 3228 2313 3059 2123 
Q 2891 1934 2559 1888 
Q 2956 1813 3175 1575 
Q 3394 1338 3394 981 
Q 3394 513 3033 256 
Q 2672 0 2003 0 
L 581 0 
L 581 3500 
z
" transform="scale(0.015625)"/>
       <path id="DejaVuSans-441" d="M 3122 3366 
L 3122 2828 
Q 2878 2963 2633 3030 
Q 2388 3097 2138 3097 
Q 1578 3097 1268 2742 
Q 959 2388 959 1747 
Q 959 1106 1268 751 
Q 1578 397 2138 397 
Q 2388 397 2633 464 
Q 2878 531 3122 666 
L 3122 134 
Q 2881 22 2623 -34 
Q 2366 -91 2075 -91 
Q 1284 -91 818 406 
Q 353 903 353 1747 
Q 353 2603 823 3093 
Q 1294 3584 2113 3584 
Q 2378 3584 2631 3529 
Q 2884 3475 3122 3366 
z
" transform="scale(0.015625)"/>
       <path id="DejaVuSans-36" d="M 2113 2584 
Q 1688 2584 1439 2293 
Q 1191 2003 1191 1497 
Q 1191 994 1439 701 
Q 1688 409 2113 409 
Q 2538 409 2786 701 
Q 3034 994 3034 1497 
Q 3034 2003 2786 2293 
Q 2538 2584 2113 2584 
z
M 3366 4563 
L 3366 3988 
Q 3128 4100 2886 4159 
Q 2644 4219 2406 4219 
Q 1781 4219 1451 3797 
Q 1122 3375 1075 2522 
Q 1259 2794 1537 2939 
Q 1816 3084 2150 3084 
Q 2853 3084 3261 2657 
Q 3669 2231 3669 1497 
Q 3669 778 3244 343 
Q 2819 -91 2113 -91 
Q 1303 -91 875 529 
Q 447 1150 447 2328 
Q 447 3434 972 4092 
Q 1497 4750 2381 4750 
Q 2619 4750 2861 4703 
Q 3103 4656 3366 4563 
z
" transform="scale(0.015625)"/>
       <path id="DejaVuSans-30" d="M 2034 4250 
Q 1547 4250 1301 3770 
Q 1056 3291 1056 2328 
Q 1056 1369 1301 889 
Q 1547 409 2034 409 
Q 2525 409 2770 889 
Q 3016 1369 3016 2328 
Q 3016 3291 2770 3770 
Q 2525 4250 2034 4250 
z
M 2034 4750 
Q 2819 4750 3233 4129 
Q 3647 3509 3647 2328 
Q 3647 1150 3233 529 
Q 2819 -91 2034 -91 
Q 1250 -91 836 529 
Q 422 1150 422 2328 
Q 422 3509 836 4129 
Q 1250 4750 2034 4750 
z
" transform="scale(0.015625)"/>
       <path id="DejaVuSans-43b" d="M 238 0 
L 238 478 
Q 806 566 981 959 
Q 1194 1513 1194 2928 
L 1194 3500 
L 3559 3500 
L 3559 0 
L 2984 0 
L 2984 3041 
L 1769 3041 
L 1769 2694 
Q 1769 1344 1494 738 
Q 1200 91 238 0 
z
" transform="scale(0.015625)"/>
       <path id="DejaVuSans-43c" d="M 581 3500 
L 1422 3500 
L 2416 1156 
L 3413 3500 
L 4247 3500 
L 4247 0 
L 3669 0 
L 3669 2950 
L 2703 672 
L 2128 672 
L 1159 2950 
L 1159 0 
L 581 0 
L 581 3500 
z
" transform="scale(0.015625)"/>
      </defs>
      <use xlink:href="#DejaVuSans-41f"/>
      <use xlink:href="#DejaVuSans-440" x="75.195312"/>
      <use xlink:href="#DejaVuSans-43e" x="138.671875"/>
      <use xlink:href="#DejaVuSans-446" x="199.853516"/>
      <use xlink:href="#DejaVuSans-435" x="267.919922"/>
      <use xlink:href="#DejaVuSans-43d" x="329.443359"/>
      <use xlink:href="#DejaVuSans-442" x="394.824219"/>
      <use xlink:href="#DejaVuSans-20" x="453.076172"/>
      <use xlink:href="#DejaVuSans-430" x="484.863281"/>
      <use xlink:href="#DejaVuSans-431" x="546.142578"/>
      <use xlink:href="#DejaVuSans-438" x="607.8125"/>
      <use xlink:href="#DejaVuSans-442" x="672.802734"/>
      <use xlink:href="#DejaVuSans-443" x="731.054688"/>
      <use xlink:href="#DejaVuSans-440" x="790.234375"/>
      <use xlink:href="#DejaVuSans-438" x="853.710938"/>
      <use xlink:href="#DejaVuSans-435" x="918.701172"/>
      <use xlink:href="#DejaVuSans-43d" x="980.224609"/>
      <use xlink:href="#DejaVuSans-442" x="1045.605469"/>
      <use xlink:href="#DejaVuSans-43e" x="1103.857422"/>
      <use xlink:href="#DejaVuSans-432" x="1165.039062"/>
      <use xlink:href="#DejaVuSans-20" x="1223.974609"/>
      <use xlink:href="#DejaVuSans-441" x="1255.761719"/>
      <use xlink:href="#DejaVuSans-20" x="1310.742188"/>
      <use xlink:href="#DejaVuSans-36" x="1342.529297"/>
      <use xlink:href="#DejaVuSans-30" x="1406.152344"/>
      <use xlink:href="#DejaVuSans-20" x="1469.775391"/>
      <use xlink:href="#DejaVuSans-431" x="1501.5625"/>
      <use xlink:href="#DejaVuSans-430" x="1563.232422"/>
      <use xlink:href="#DejaVuSans-43b" x="1624.511719"/>
      <use xlink:href="#DejaVuSans-43b" x="1688.427734"/>
      <use xlink:href="#DejaVuSans-430" x="1752.34375"/>
      <use xlink:href="#DejaVuSans-43c" x="1813.623047"/>
      <use xlink:href="#DejaVuSans-438" x="1889.0625"/>
     </g>
    </g>
   </g>
   <g id="matplotlib.axis_2">
    <g id="ytick_1">
     <g id="text_2">
      <!-- Транспорт и логистика -->
      <g style="fill: #2c2c2c" transform="translate(304.464063 545.378298) scale(0.1 -0.1)">
       <defs>
        <path id="DejaVuSans-422" d="M -19 4666 
L 3928 4666 
L 3928 4134 
L 2272 4134 
L 2272 0 
L 1638 0 
L 1638 4134 
L -19 4134 
L -19 4666 
z
" transform="scale(0.015625)"/>
        <path id="DejaVuSans-43f" d="M 3603 3500 
L 3603 0 
L 3025 0 
L 3025 3041 
L 1159 3041 
L 1159 0 
L 581 0 
L 581 3500 
L 3603 3500 
z
" transform="scale(0.015625)"/>
        <path id="DejaVuSans-433" d="M 581 0 
L 581 3500 
L 3050 3500 
L 3050 3041 
L 1159 3041 
L 1159 0 
L 581 0 
z
" transform="scale(0.015625)"/>
        <path id="DejaVuSans-43a" d="M 581 3500 
L 1153 3500 
L 1153 1856 
L 2775 3500 
L 3481 3500 
L 2144 2147 
L 3653 0 
L 3009 0 
L 1769 1766 
L 1153 1141 
L 1153 0 
L 581 0 
L 581 3500 
z
" transform="scale(0.015625)"/>
       </defs>
       <use xlink:href="#DejaVuSans-422"/>
       <use xlink:href="#DejaVuSans-440" x="61.083984"/>
       <use xlink:href="#DejaVuSans-430" x="124.560547"/>
       <use xlink:href="#DejaVuSans-43d" x="185.839844"/>
       <use xlink:href="#DejaVuSans-441" x="251.220703"/>
       <use xlink:href="#DejaVuSans-43f" x="306.201172"/>
       <use xlink:href="#DejaVuSans-43e" x="371.582031"/>
       <use xlink:href="#DejaVuSans-440" x="432.763672"/>
       <use xlink:href="#DejaVuSans-442" x="496.240234"/>
       <use xlink:href="#DejaVuSans-20" x="554.492188"/>
       <use xlink:href="#DejaVuSans-438" x="586.279297"/>
       <use xlink:href="#DejaVuSans-20" x="651.269531"/>
       <use xlink:href="#DejaVuSans-43b" x="683.056641"/>
       <use xlink:href="#DejaVuSans-43e" x="746.972656"/>
       <use xlink:href="#DejaVuSans-433" x="808.154297"/>
       <use xlink:href="#DejaVuSans-438" x="860.693359"/>
       <use xlink:href="#DejaVuSans-441" x="925.683594"/>
       <use xlink:href="#DejaVuSans-442" x="980.664062"/>
       <use xlink:href="#DejaVuSans-438" x="1038.916016"/>
       <use xlink:href="#DejaVuSans-43a" x="1103.90625"/>
       <use xlink:href="#DejaVuSans-430" x="1164.306641"/>
      </g>
     </g>
    </g>
    <g id="ytick_2">
     <g id="text_3">
      <!-- Экономика сферы услуг -->
      <g style="fill: #2c2c2c" transform="translate(299.229688 515.984509) scale(0.1 -0.1)">
       <defs>
        <path id="DejaVuSans-42d" d="M 347 1019 
Q 1006 428 1806 428 
Q 2631 428 3003 872 
Q 3375 1316 3444 2063 
L 950 2063 
L 950 2594 
L 3444 2594 
Q 3375 3341 3003 3786 
Q 2631 4231 1806 4231 
Q 1006 4231 347 3641 
L 347 4306 
Q 997 4750 1844 4750 
Q 2891 4750 3500 4101 
Q 4109 3453 4109 2331 
Q 4109 1206 3500 557 
Q 2891 -91 1844 -91 
Q 1009 -91 347 359 
L 347 1019 
z
" transform="scale(0.015625)"/>
        <path id="DejaVuSans-444" d="M 947 1747 
Q 947 1013 1173 702 
Q 1400 391 1784 391 
Q 2091 391 2447 916 
L 2447 2578 
Q 2091 3103 1784 3103 
Q 1400 3103 1173 2792 
Q 947 2481 947 1747 
z
M 2447 -1331 
L 2447 447 
Q 2269 153 2064 31 
Q 1859 -91 1600 -91 
Q 1078 -91 714 392 
Q 350 875 350 1734 
Q 350 2594 714 3089 
Q 1078 3584 1600 3584 
Q 1859 3584 2064 3465 
Q 2269 3347 2447 3053 
L 2447 4666 
L 3025 4666 
L 3025 3053 
Q 3203 3347 3408 3465 
Q 3613 3584 3872 3584 
Q 4394 3584 4758 3089 
Q 5122 2594 5122 1734 
Q 5122 875 4758 392 
Q 4394 -91 3872 -91 
Q 3613 -91 3408 31 
Q 3203 153 3025 447 
L 3025 -1331 
L 2447 -1331 
z
M 4525 1747 
Q 4525 2481 4298 2792 
Q 4072 3103 3688 3103 
Q 3381 3103 3025 2578 
L 3025 916 
Q 3381 391 3688 391 
Q 4072 391 4298 702 
Q 4525 1013 4525 1747 
z
" transform="scale(0.015625)"/>
        <path id="DejaVuSans-44b" d="M 3909 3500 
L 4484 3500 
L 4484 0 
L 3909 0 
L 3909 3500 
z
M 4197 3584 
L 4197 3584 
z
M 2781 1038 
Q 2781 1319 2576 1466 
Q 2372 1613 1978 1613 
L 1159 1613 
L 1159 459 
L 1978 459 
Q 2372 459 2576 607 
Q 2781 756 2781 1038 
z
M 581 3500 
L 1159 3500 
L 1159 2072 
L 2003 2072 
Q 2672 2072 3033 1817 
Q 3394 1563 3394 1038 
Q 3394 513 3033 256 
Q 2672 0 2003 0 
L 581 0 
L 581 3500 
z
" transform="scale(0.015625)"/>
       </defs>
       <use xlink:href="#DejaVuSans-42d"/>
       <use xlink:href="#DejaVuSans-43a" x="69.824219"/>
       <use xlink:href="#DejaVuSans-43e" x="130.224609"/>
       <use xlink:href="#DejaVuSans-43d" x="191.40625"/>
       <use xlink:href="#DejaVuSans-43e" x="256.787109"/>
       <use xlink:href="#DejaVuSans-43c" x="317.96875"/>
       <use xlink:href="#DejaVuSans-438" x="393.408203"/>
       <use xlink:href="#DejaVuSans-43a" x="458.398438"/>
       <use xlink:href="#DejaVuSans-430" x="518.798828"/>
       <use xlink:href="#DejaVuSans-20" x="580.078125"/>
       <use xlink:href="#DejaVuSans-441" x="611.865234"/>
       <use xlink:href="#DejaVuSans-444" x="666.845703"/>
       <use xlink:href="#DejaVuSans-435" x="752.34375"/>
       <use xlink:href="#DejaVuSans-440" x="813.867188"/>
       <use xlink:href="#DejaVuSans-44b" x="877.34375"/>
       <use xlink:href="#DejaVuSans-20" x="956.298828"/>
       <use xlink:href="#DejaVuSans-443" x="988.085938"/>
       <use xlink:href="#DejaVuSans-441" x="1047.265625"/>
       <use xlink:href="#DejaVuSans-43b" x="1102.246094"/>
       <use xlink:href="#DejaVuSans-443" x="1166.162109"/>
       <use xlink:href="#DejaVuSans-433" x="1225.341797"/>
      </g>
     </g>
    </g>
    <g id="ytick_3">
     <g id="text_4">
      <!-- Маркетинг -->
      <g style="fill: #2c2c2c" transform="translate(369.609375 486.590721) scale(0.1 -0.1)">
       <defs>
        <path id="DejaVuSans-41c" d="M 628 4666 
L 1569 4666 
L 2759 1491 
L 3956 4666 
L 4897 4666 
L 4897 0 
L 4281 0 
L 4281 4097 
L 3078 897 
L 2444 897 
L 1241 4097 
L 1241 0 
L 628 0 
L 628 4666 
z
" transform="scale(0.015625)"/>
       </defs>
       <use xlink:href="#DejaVuSans-41c"/>
       <use xlink:href="#DejaVuSans-430" x="86.279297"/>
       <use xlink:href="#DejaVuSans-440" x="147.558594"/>
       <use xlink:href="#DejaVuSans-43a" x="211.035156"/>
       <use xlink:href="#DejaVuSans-435" x="271.435547"/>
       <use xlink:href="#DejaVuSans-442" x="332.958984"/>
       <use xlink:href="#DejaVuSans-438" x="391.210938"/>
       <use xlink:href="#DejaVuSans-43d" x="456.201172"/>
       <use xlink:href="#DejaVuSans-433" x="521.582031"/>
      </g>
     </g>
    </g>
    <g id="ytick_4">
     <g id="text_5">
      <!-- Менеджмент -->
      <g style="fill: #2c2c2c" transform="translate(357.56875 457.196932) scale(0.1 -0.1)">
       <defs>
        <path id="DejaVuSans-434" d="M 1384 459 
L 3053 459 
L 3053 3041 
L 1844 3041 
L 1844 2603 
Q 1844 1316 1475 628 
L 1384 459 
z
M 550 459 
Q 834 584 959 850 
Q 1266 1509 1266 2838 
L 1266 3500 
L 3631 3500 
L 3631 459 
L 4091 459 
L 4091 -884 
L 3631 -884 
L 3631 0 
L 794 0 
L 794 -884 
L 334 -884 
L 334 459 
L 550 459 
z
" transform="scale(0.015625)"/>
        <path id="DejaVuSans-436" d="M 2597 3500 
L 3169 3500 
L 3169 1856 
L 4697 3500 
L 5366 3500 
L 4109 2153 
L 5547 0 
L 4931 0 
L 3753 1769 
L 3169 1141 
L 3169 0 
L 2597 0 
L 2597 1141 
L 2013 1769 
L 834 0 
L 219 0 
L 1656 2153 
L 400 3500 
L 1069 3500 
L 2597 1856 
L 2597 3500 
z
" transform="scale(0.015625)"/>
       </defs>
       <use xlink:href="#DejaVuSans-41c"/>
       <use xlink:href="#DejaVuSans-435" x="86.279297"/>
       <use xlink:href="#DejaVuSans-43d" x="147.802734"/>
       <use xlink:href="#DejaVuSans-435" x="213.183594"/>
       <use xlink:href="#DejaVuSans-434" x="274.707031"/>
       <use xlink:href="#DejaVuSans-436" x="343.847656"/>
       <use xlink:href="#DejaVuSans-43c" x="433.935547"/>
       <use xlink:href="#DejaVuSans-435" x="509.375"/>
       <use xlink:href="#DejaVuSans-43d" x="570.898438"/>
       <use xlink:href="#DejaVuSans-442" x="636.279297"/>
      </g>
     </g>
    </g>
    <g id="ytick_5">
     <g id="text_6">
      <!-- Экономика инноваций -->
      <g style="fill: #2c2c2c" transform="translate(308.31875 427.803143) scale(0.1 -0.1)">
       <defs>
        <path id="DejaVuSans-439" d="M 3578 3500 
L 3578 0 
L 3006 0 
L 3006 2809 
L 1319 0 
L 581 0 
L 581 3500 
L 1153 3500 
L 1153 697 
L 2838 3500 
L 3578 3500 
z
M 1103 4862 
L 1472 4862 
Q 1506 4628 1657 4510 
Q 1809 4393 2081 4393 
Q 2350 4393 2500 4509 
Q 2650 4625 2691 4862 
L 3059 4862 
Q 3028 4415 2781 4190 
Q 2534 3965 2081 3965 
Q 1628 3965 1381 4190 
Q 1134 4415 1103 4862 
z
" transform="scale(0.015625)"/>
       </defs>
       <use xlink:href="#DejaVuSans-42d"/>
       <use xlink:href="#DejaVuSans-43a" x="69.824219"/>
       <use xlink:href="#DejaVuSans-43e" x="130.224609"/>
       <use xlink:href="#DejaVuSans-43d" x="191.40625"/>
       <use xlink:href="#DejaVuSans-43e" x="256.787109"/>
       <use xlink:href="#DejaVuSans-43c" x="317.96875"/>
       <use xlink:href="#DejaVuSans-438" x="393.408203"/>
       <use xlink:href="#DejaVuSans-43a" x="458.398438"/>
       <use xlink:href="#DejaVuSans-430" x="518.798828"/>
       <use xlink:href="#DejaVuSans-20" x="580.078125"/>
       <use xlink:href="#DejaVuSans-438" x="611.865234"/>
       <use xlink:href="#DejaVuSans-43d" x="676.855469"/>
       <use xlink:href="#DejaVuSans-43d" x="742.236328"/>
       <use xlink:href="#DejaVuSans-43e" x="807.617188"/>
       <use xlink:href="#DejaVuSans-432" x="868.798828"/>
       <use xlink:href="#DejaVuSans-430" x="927.734375"/>
       <use xlink:href="#DejaVuSans-446" x="989.013672"/>
       <use xlink:href="#DejaVuSans-438" x="1057.080078"/>
       <use xlink:href="#DejaVuSans-439" x="1122.070312"/>
      </g>
     </g>
    </g>
    <g id="ytick_6">
     <g id="text_7">
      <!-- Государственное и муниципальное управление -->
      <g style="fill: #2c2c2c" transform="translate(173.123438 398.409354) scale(0.1 -0.1)">
       <defs>
        <path id="DejaVuSans-413" d="M 628 0 
L 628 4666 
L 3531 4666 
L 3531 4134 
L 1259 4134 
L 1259 0 
L 628 0 
z
" transform="scale(0.015625)"/>
        <path id="DejaVuSans-44c" d="M 2781 1038 
Q 2781 1319 2576 1466 
Q 2372 1613 1978 1613 
L 1159 1613 
L 1159 459 
L 1978 459 
Q 2372 459 2576 607 
Q 2781 756 2781 1038 
z
M 581 3500 
L 1159 3500 
L 1159 2072 
L 2003 2072 
Q 2672 2072 3033 1817 
Q 3394 1563 3394 1038 
Q 3394 513 3033 256 
Q 2672 0 2003 0 
L 581 0 
L 581 3500 
z
" transform="scale(0.015625)"/>
       </defs>
       <use xlink:href="#DejaVuSans-413"/>
       <use xlink:href="#DejaVuSans-43e" x="60.986328"/>
       <use xlink:href="#DejaVuSans-441" x="122.167969"/>
       <use xlink:href="#DejaVuSans-443" x="177.148438"/>
       <use xlink:href="#DejaVuSans-434" x="236.328125"/>
       <use xlink:href="#DejaVuSans-430" x="305.46875"/>
       <use xlink:href="#DejaVuSans-440" x="366.748047"/>
       <use xlink:href="#DejaVuSans-441" x="430.224609"/>
       <use xlink:href="#DejaVuSans-442" x="485.205078"/>
       <use xlink:href="#DejaVuSans-432" x="543.457031"/>
       <use xlink:href="#DejaVuSans-435" x="602.392578"/>
       <use xlink:href="#DejaVuSans-43d" x="663.916016"/>
       <use xlink:href="#DejaVuSans-43d" x="729.296875"/>
       <use xlink:href="#DejaVuSans-43e" x="794.677734"/>
       <use xlink:href="#DejaVuSans-435" x="855.859375"/>
       <use xlink:href="#DejaVuSans-20" x="917.382812"/>
       <use xlink:href="#DejaVuSans-438" x="949.169922"/>
       <use xlink:href="#DejaVuSans-20" x="1014.160156"/>
       <use xlink:href="#DejaVuSans-43c" x="1045.947266"/>
       <use xlink:href="#DejaVuSans-443" x="1121.386719"/>
       <use xlink:href="#DejaVuSans-43d" x="1180.566406"/>
       <use xlink:href="#DejaVuSans-438" x="1245.947266"/>
       <use xlink:href="#DejaVuSans-446" x="1310.9375"/>
       <use xlink:href="#DejaVuSans-438" x="1379.003906"/>
       <use xlink:href="#DejaVuSans-43f" x="1443.994141"/>
       <use xlink:href="#DejaVuSans-430" x="1509.375"/>
       <use xlink:href="#DejaVuSans-43b" x="1570.654297"/>
       <use xlink:href="#DejaVuSans-44c" x="1634.570312"/>
       <use xlink:href="#DejaVuSans-43d" x="1693.505859"/>
       <use xlink:href="#DejaVuSans-43e" x="1758.886719"/>
       <use xlink:href="#DejaVuSans-435" x="1820.068359"/>
       <use xlink:href="#DejaVuSans-20" x="1881.591797"/>
       <use xlink:href="#DejaVuSans-443" x="1913.378906"/>
       <use xlink:href="#DejaVuSans-43f" x="1972.558594"/>
       <use xlink:href="#DejaVuSans-440" x="2037.939453"/>
       <use xlink:href="#DejaVuSans-430" x="2101.416016"/>
       <use xlink:href="#DejaVuSans-432" x="2162.695312"/>
       <use xlink:href="#DejaVuSans-43b" x="2221.630859"/>
       <use xlink:href="#DejaVuSans-435" x="2285.546875"/>
       <use xlink:href="#DejaVuSans-43d" x="2347.070312"/>
       <use xlink:href="#DejaVuSans-438" x="2412.451172"/>
       <use xlink:href="#DejaVuSans-435" x="2477.441406"/>
      </g>
     </g>
    </g>
    <g id="ytick_7">
     <g id="text_8">
      <!-- Бухгалтерский учет, аудит и экономическая статистика -->
      <g style="fill: #2c2c2c" transform="translate(127.175 369.015566) scale(0.1 -0.1)">
       <defs>
        <path id="DejaVuSans-411" d="M 3272 1372 
Q 3272 1806 3026 2017 
Q 2781 2228 2272 2228 
L 1259 2228 
L 1259 519 
L 2272 519 
Q 2781 519 3026 730 
Q 3272 941 3272 1372 
z
M 3609 4666 
L 3609 4147 
L 1259 4147 
L 1259 2747 
L 2303 2747 
Q 3088 2747 3513 2406 
Q 3938 2066 3938 1372 
Q 3938 681 3527 340 
Q 3116 0 2303 0 
L 628 0 
L 628 4666 
L 3609 4666 
z
" transform="scale(0.015625)"/>
        <path id="DejaVuSans-445" d="M 3513 3500 
L 2247 1797 
L 3578 0 
L 2900 0 
L 1881 1375 
L 863 0 
L 184 0 
L 1544 1831 
L 300 3500 
L 978 3500 
L 1906 2253 
L 2834 3500 
L 3513 3500 
z
" transform="scale(0.015625)"/>
        <path id="DejaVuSans-447" d="M 2625 0 
L 2625 1472 
L 1553 1472 
Q 1075 1472 756 1769 
Q 469 2038 469 2613 
L 469 3500 
L 1044 3500 
L 1044 2666 
Q 1044 2300 1206 2116 
Q 1372 1931 1697 1931 
L 2625 1931 
L 2625 3500 
L 3200 3500 
L 3200 0 
L 2625 0 
z
" transform="scale(0.015625)"/>
        <path id="DejaVuSans-2c" d="M 750 794 
L 1409 794 
L 1409 256 
L 897 -744 
L 494 -744 
L 750 256 
L 750 794 
z
" transform="scale(0.015625)"/>
        <path id="DejaVuSans-44d" d="M 353 666 
Q 847 397 1338 397 
Q 1797 397 2125 664 
Q 2453 931 2513 1613 
L 738 1613 
L 738 2072 
L 2494 2072 
Q 2456 2400 2207 2748 
Q 1959 3097 1338 3097 
Q 856 3097 353 2828 
L 353 3366 
Q 844 3584 1363 3584 
Q 2181 3584 2651 3089 
Q 3122 2594 3122 1747 
Q 3122 903 2664 406 
Q 2206 -91 1403 -91 
Q 813 -91 353 134 
L 353 666 
z
" transform="scale(0.015625)"/>
        <path id="DejaVuSans-44f" d="M 1181 2491 
Q 1181 2231 1381 2084 
Q 1581 1938 1953 1938 
L 2728 1938 
L 2728 3041 
L 1953 3041 
Q 1581 3041 1381 2897 
Q 1181 2753 1181 2491 
z
M 363 0 
L 1431 1534 
Q 1069 1616 828 1830 
Q 588 2044 588 2491 
Q 588 2997 923 3248 
Q 1259 3500 1938 3500 
L 3306 3500 
L 3306 0 
L 2728 0 
L 2728 1478 
L 2013 1478 
L 981 0 
L 363 0 
z
" transform="scale(0.015625)"/>
       </defs>
       <use xlink:href="#DejaVuSans-411"/>
       <use xlink:href="#DejaVuSans-443" x="68.603516"/>
       <use xlink:href="#DejaVuSans-445" x="127.783203"/>
       <use xlink:href="#DejaVuSans-433" x="186.962891"/>
       <use xlink:href="#DejaVuSans-430" x="239.501953"/>
       <use xlink:href="#DejaVuSans-43b" x="300.78125"/>
       <use xlink:href="#DejaVuSans-442" x="364.697266"/>
       <use xlink:href="#DejaVuSans-435" x="422.949219"/>
       <use xlink:href="#DejaVuSans-440" x="484.472656"/>
       <use xlink:href="#DejaVuSans-441" x="547.949219"/>
       <use xlink:href="#DejaVuSans-43a" x="602.929688"/>
       <use xlink:href="#DejaVuSans-438" x="663.330078"/>
       <use xlink:href="#DejaVuSans-439" x="728.320312"/>
       <use xlink:href="#DejaVuSans-20" x="793.310547"/>
       <use xlink:href="#DejaVuSans-443" x="825.097656"/>
       <use xlink:href="#DejaVuSans-447" x="884.277344"/>
       <use xlink:href="#DejaVuSans-435" x="943.359375"/>
       <use xlink:href="#DejaVuSans-442" x="1004.882812"/>
       <use xlink:href="#DejaVuSans-2c" x="1063.134766"/>
       <use xlink:href="#DejaVuSans-20" x="1094.921875"/>
       <use xlink:href="#DejaVuSans-430" x="1126.708984"/>
       <use xlink:href="#DejaVuSans-443" x="1187.988281"/>
       <use xlink:href="#DejaVuSans-434" x="1247.167969"/>
       <use xlink:href="#DejaVuSans-438" x="1316.308594"/>
       <use xlink:href="#DejaVuSans-442" x="1381.298828"/>
       <use xlink:href="#DejaVuSans-20" x="1439.550781"/>
       <use xlink:href="#DejaVuSans-438" x="1471.337891"/>
       <use xlink:href="#DejaVuSans-20" x="1536.328125"/>
       <use xlink:href="#DejaVuSans-44d" x="1568.115234"/>
       <use xlink:href="#DejaVuSans-43a" x="1622.998047"/>
       <use xlink:href="#DejaVuSans-43e" x="1683.398438"/>
       <use xlink:href="#DejaVuSans-43d" x="1744.580078"/>
       <use xlink:href="#DejaVuSans-43e" x="1809.960938"/>
       <use xlink:href="#DejaVuSans-43c" x="1871.142578"/>
       <use xlink:href="#DejaVuSans-438" x="1946.582031"/>
       <use xlink:href="#DejaVuSans-447" x="2011.572266"/>
       <use xlink:href="#DejaVuSans-435" x="2070.654297"/>
       <use xlink:href="#DejaVuSans-441" x="2132.177734"/>
       <use xlink:href="#DejaVuSans-43a" x="2187.158203"/>
       <use xlink:href="#DejaVuSans-430" x="2247.558594"/>
       <use xlink:href="#DejaVuSans-44f" x="2308.837891"/>
       <use xlink:href="#DejaVuSans-20" x="2368.994141"/>
       <use xlink:href="#DejaVuSans-441" x="2400.78125"/>
       <use xlink:href="#DejaVuSans-442" x="2455.761719"/>
       <use xlink:href="#DejaVuSans-430" x="2514.013672"/>
       <use xlink:href="#DejaVuSans-442" x="2575.292969"/>
       <use xlink:href="#DejaVuSans-438" x="2633.544922"/>
       <use xlink:href="#DejaVuSans-441" x="2698.535156"/>
       <use xlink:href="#DejaVuSans-442" x="2753.515625"/>
       <use xlink:href="#DejaVuSans-438" x="2811.767578"/>
       <use xlink:href="#DejaVuSans-43a" x="2876.757812"/>
       <use xlink:href="#DejaVuSans-430" x="2937.158203"/>
      </g>
     </g>
    </g>
    <g id="ytick_8">
     <g id="text_9">
      <!-- Мировая экономика -->
      <g style="fill: #2c2c2c" transform="translate(321.698438 339.621777) scale(0.1 -0.1)">
       <use xlink:href="#DejaVuSans-41c"/>
       <use xlink:href="#DejaVuSans-438" x="86.279297"/>
       <use xlink:href="#DejaVuSans-440" x="151.269531"/>
       <use xlink:href="#DejaVuSans-43e" x="214.746094"/>
       <use xlink:href="#DejaVuSans-432" x="275.927734"/>
       <use xlink:href="#DejaVuSans-430" x="334.863281"/>
       <use xlink:href="#DejaVuSans-44f" x="396.142578"/>
       <use xlink:href="#DejaVuSans-20" x="456.298828"/>
       <use xlink:href="#DejaVuSans-44d" x="488.085938"/>
       <use xlink:href="#DejaVuSans-43a" x="542.96875"/>
       <use xlink:href="#DejaVuSans-43e" x="603.369141"/>
       <use xlink:href="#DejaVuSans-43d" x="664.550781"/>
       <use xlink:href="#DejaVuSans-43e" x="729.931641"/>
       <use xlink:href="#DejaVuSans-43c" x="791.113281"/>
       <use xlink:href="#DejaVuSans-438" x="866.552734"/>
       <use xlink:href="#DejaVuSans-43a" x="931.542969"/>
       <use xlink:href="#DejaVuSans-430" x="991.943359"/>
      </g>
     </g>
    </g>
    <g id="ytick_9">
     <g id="text_10">
      <!-- Региональная экономика -->
      <g style="fill: #2c2c2c" transform="translate(293.642188 310.227988) scale(0.1 -0.1)">
       <defs>
        <path id="DejaVuSans-420" d="M 1259 4147 
L 1259 2394 
L 2053 2394 
Q 2494 2394 2734 2622 
Q 2975 2850 2975 3272 
Q 2975 3691 2734 3919 
Q 2494 4147 2053 4147 
L 1259 4147 
z
M 628 4666 
L 2053 4666 
Q 2838 4666 3239 4311 
Q 3641 3956 3641 3272 
Q 3641 2581 3239 2228 
Q 2838 1875 2053 1875 
L 1259 1875 
L 1259 0 
L 628 0 
L 628 4666 
z
" transform="scale(0.015625)"/>
       </defs>
       <use xlink:href="#DejaVuSans-420"/>
       <use xlink:href="#DejaVuSans-435" x="60.302734"/>
       <use xlink:href="#DejaVuSans-433" x="121.826172"/>
       <use xlink:href="#DejaVuSans-438" x="174.365234"/>
       <use xlink:href="#DejaVuSans-43e" x="239.355469"/>
       <use xlink:href="#DejaVuSans-43d" x="300.537109"/>
       <use xlink:href="#DejaVuSans-430" x="365.917969"/>
       <use xlink:href="#DejaVuSans-43b" x="427.197266"/>
       <use xlink:href="#DejaVuSans-44c" x="491.113281"/>
       <use xlink:href="#DejaVuSans-43d" x="550.048828"/>
       <use xlink:href="#DejaVuSans-430" x="615.429688"/>
       <use xlink:href="#DejaVuSans-44f" x="676.708984"/>
       <use xlink:href="#DejaVuSans-20" x="736.865234"/>
       <use xlink:href="#DejaVuSans-44d" x="768.652344"/>
       <use xlink:href="#DejaVuSans-43a" x="823.535156"/>
       <use xlink:href="#DejaVuSans-43e" x="883.935547"/>
       <use xlink:href="#DejaVuSans-43d" x="945.117188"/>
       <use xlink:href="#DejaVuSans-43e" x="1010.498047"/>
       <use xlink:href="#DejaVuSans-43c" x="1071.679688"/>
       <use xlink:href="#DejaVuSans-438" x="1147.119141"/>
       <use xlink:href="#DejaVuSans-43a" x="1212.109375"/>
       <use xlink:href="#DejaVuSans-430" x="1272.509766"/>
      </g>
     </g>
    </g>
    <g id="ytick_10">
     <g id="text_11">
      <!-- Экономическая теория -->
      <g style="fill: #2c2c2c" transform="translate(305.301563 280.834199) scale(0.1 -0.1)">
       <use xlink:href="#DejaVuSans-42d"/>
       <use xlink:href="#DejaVuSans-43a" x="69.824219"/>
       <use xlink:href="#DejaVuSans-43e" x="130.224609"/>
       <use xlink:href="#DejaVuSans-43d" x="191.40625"/>
       <use xlink:href="#DejaVuSans-43e" x="256.787109"/>
       <use xlink:href="#DejaVuSans-43c" x="317.96875"/>
       <use xlink:href="#DejaVuSans-438" x="393.408203"/>
       <use xlink:href="#DejaVuSans-447" x="458.398438"/>
       <use xlink:href="#DejaVuSans-435" x="517.480469"/>
       <use xlink:href="#DejaVuSans-441" x="579.003906"/>
       <use xlink:href="#DejaVuSans-43a" x="633.984375"/>
       <use xlink:href="#DejaVuSans-430" x="694.384766"/>
       <use xlink:href="#DejaVuSans-44f" x="755.664062"/>
       <use xlink:href="#DejaVuSans-20" x="815.820312"/>
       <use xlink:href="#DejaVuSans-442" x="847.607422"/>
       <use xlink:href="#DejaVuSans-435" x="905.859375"/>
       <use xlink:href="#DejaVuSans-43e" x="967.382812"/>
       <use xlink:href="#DejaVuSans-440" x="1028.564453"/>
       <use xlink:href="#DejaVuSans-438" x="1092.041016"/>
       <use xlink:href="#DejaVuSans-44f" x="1157.03125"/>
      </g>
     </g>
    </g>
    <g id="ytick_11">
     <g id="text_12">
      <!-- Математические, статистические и инструментальные методы в экономике -->
      <g style="fill: #2c2c2c" transform="translate(20.878125 251.440411) scale(0.1 -0.1)">
       <use xlink:href="#DejaVuSans-41c"/>
       <use xlink:href="#DejaVuSans-430" x="86.279297"/>
       <use xlink:href="#DejaVuSans-442" x="147.558594"/>
       <use xlink:href="#DejaVuSans-435" x="205.810547"/>
       <use xlink:href="#DejaVuSans-43c" x="267.333984"/>
       <use xlink:href="#DejaVuSans-430" x="342.773438"/>
       <use xlink:href="#DejaVuSans-442" x="404.052734"/>
       <use xlink:href="#DejaVuSans-438" x="462.304688"/>
       <use xlink:href="#DejaVuSans-447" x="527.294922"/>
       <use xlink:href="#DejaVuSans-435" x="586.376953"/>
       <use xlink:href="#DejaVuSans-441" x="647.900391"/>
       <use xlink:href="#DejaVuSans-43a" x="702.880859"/>
       <use xlink:href="#DejaVuSans-438" x="763.28125"/>
       <use xlink:href="#DejaVuSans-435" x="828.271484"/>
       <use xlink:href="#DejaVuSans-2c" x="889.794922"/>
       <use xlink:href="#DejaVuSans-20" x="921.582031"/>
       <use xlink:href="#DejaVuSans-441" x="953.369141"/>
       <use xlink:href="#DejaVuSans-442" x="1008.349609"/>
       <use xlink:href="#DejaVuSans-430" x="1066.601562"/>
       <use xlink:href="#DejaVuSans-442" x="1127.880859"/>
       <use xlink:href="#DejaVuSans-438" x="1186.132812"/>
       <use xlink:href="#DejaVuSans-441" x="1251.123047"/>
       <use xlink:href="#DejaVuSans-442" x="1306.103516"/>
       <use xlink:href="#DejaVuSans-438" x="1364.355469"/>
       <use xlink:href="#DejaVuSans-447" x="1429.345703"/>
       <use xlink:href="#DejaVuSans-435" x="1488.427734"/>
       <use xlink:href="#DejaVuSans-441" x="1549.951172"/>
       <use xlink:href="#DejaVuSans-43a" x="1604.931641"/>
       <use xlink:href="#DejaVuSans-438" x="1665.332031"/>
       <use xlink:href="#DejaVuSans-435" x="1730.322266"/>
       <use xlink:href="#DejaVuSans-20" x="1791.845703"/>
       <use xlink:href="#DejaVuSans-438" x="1823.632812"/>
       <use xlink:href="#DejaVuSans-20" x="1888.623047"/>
       <use xlink:href="#DejaVuSans-438" x="1920.410156"/>
       <use xlink:href="#DejaVuSans-43d" x="1985.400391"/>
       <use xlink:href="#DejaVuSans-441" x="2050.78125"/>
       <use xlink:href="#DejaVuSans-442" x="2105.761719"/>
       <use xlink:href="#DejaVuSans-440" x="2164.013672"/>
       <use xlink:href="#DejaVuSans-443" x="2227.490234"/>
       <use xlink:href="#DejaVuSans-43c" x="2286.669922"/>
       <use xlink:href="#DejaVuSans-435" x="2362.109375"/>
       <use xlink:href="#DejaVuSans-43d" x="2423.632812"/>
       <use xlink:href="#DejaVuSans-442" x="2489.013672"/>
       <use xlink:href="#DejaVuSans-430" x="2547.265625"/>
       <use xlink:href="#DejaVuSans-43b" x="2608.544922"/>
       <use xlink:href="#DejaVuSans-44c" x="2672.460938"/>
       <use xlink:href="#DejaVuSans-43d" x="2731.396484"/>
       <use xlink:href="#DejaVuSans-44b" x="2796.777344"/>
       <use xlink:href="#DejaVuSans-435" x="2875.732422"/>
       <use xlink:href="#DejaVuSans-20" x="2937.255859"/>
       <use xlink:href="#DejaVuSans-43c" x="2969.042969"/>
       <use xlink:href="#DejaVuSans-435" x="3044.482422"/>
       <use xlink:href="#DejaVuSans-442" x="3106.005859"/>
       <use xlink:href="#DejaVuSans-43e" x="3164.257812"/>
       <use xlink:href="#DejaVuSans-434" x="3225.439453"/>
       <use xlink:href="#DejaVuSans-44b" x="3294.580078"/>
       <use xlink:href="#DejaVuSans-20" x="3373.535156"/>
       <use xlink:href="#DejaVuSans-432" x="3405.322266"/>
       <use xlink:href="#DejaVuSans-20" x="3464.257812"/>
       <use xlink:href="#DejaVuSans-44d" x="3496.044922"/>
       <use xlink:href="#DejaVuSans-43a" x="3550.927734"/>
       <use xlink:href="#DejaVuSans-43e" x="3611.328125"/>
       <use xlink:href="#DejaVuSans-43d" x="3672.509766"/>
       <use xlink:href="#DejaVuSans-43e" x="3737.890625"/>
       <use xlink:href="#DejaVuSans-43c" x="3799.072266"/>
       <use xlink:href="#DejaVuSans-438" x="3874.511719"/>
       <use xlink:href="#DejaVuSans-43a" x="3939.501953"/>
       <use xlink:href="#DejaVuSans-435" x="3999.902344"/>
      </g>
     </g>
    </g>
    <g id="ytick_12">
     <g id="text_13">
      <!-- Экономика промышленности -->
      <g style="fill: #2c2c2c" transform="translate(272.68125 222.046622) scale(0.1 -0.1)">
       <defs>
        <path id="DejaVuSans-448" d="M 3216 459 
L 4697 459 
L 4697 3500 
L 5275 3500 
L 5275 0 
L 581 0 
L 581 3500 
L 1159 3500 
L 1159 459 
L 2638 459 
L 2638 3500 
L 3216 3500 
L 3216 459 
z
" transform="scale(0.015625)"/>
       </defs>
       <use xlink:href="#DejaVuSans-42d"/>
       <use xlink:href="#DejaVuSans-43a" x="69.824219"/>
       <use xlink:href="#DejaVuSans-43e" x="130.224609"/>
       <use xlink:href="#DejaVuSans-43d" x="191.40625"/>
       <use xlink:href="#DejaVuSans-43e" x="256.787109"/>
       <use xlink:href="#DejaVuSans-43c" x="317.96875"/>
       <use xlink:href="#DejaVuSans-438" x="393.408203"/>
       <use xlink:href="#DejaVuSans-43a" x="458.398438"/>
       <use xlink:href="#DejaVuSans-430" x="518.798828"/>
       <use xlink:href="#DejaVuSans-20" x="580.078125"/>
       <use xlink:href="#DejaVuSans-43f" x="611.865234"/>
       <use xlink:href="#DejaVuSans-440" x="677.246094"/>
       <use xlink:href="#DejaVuSans-43e" x="740.722656"/>
       <use xlink:href="#DejaVuSans-43c" x="801.904297"/>
       <use xlink:href="#DejaVuSans-44b" x="877.34375"/>
       <use xlink:href="#DejaVuSans-448" x="956.298828"/>
       <use xlink:href="#DejaVuSans-43b" x="1047.802734"/>
       <use xlink:href="#DejaVuSans-435" x="1111.71875"/>
       <use xlink:href="#DejaVuSans-43d" x="1173.242188"/>
       <use xlink:href="#DejaVuSans-43d" x="1238.623047"/>
       <use xlink:href="#DejaVuSans-43e" x="1304.003906"/>
       <use xlink:href="#DejaVuSans-441" x="1365.185547"/>
       <use xlink:href="#DejaVuSans-442" x="1420.166016"/>
       <use xlink:href="#DejaVuSans-438" x="1478.417969"/>
      </g>
     </g>
    </g>
    <g id="ytick_13">
     <g id="text_14">
      <!-- Экономическая безопасность -->
      <g style="fill: #2c2c2c" transform="translate(270.467188 192.652833) scale(0.1 -0.1)">
       <defs>
        <path id="DejaVuSans-437" d="M 2206 1888 
Q 2594 1813 2809 1584 
Q 3025 1356 3025 1019 
Q 3025 478 2622 193 
Q 2219 -91 1475 -91 
Q 1225 -91 961 -47 
Q 697 -3 416 84 
L 416 619 
Q 638 503 903 445 
Q 1169 388 1459 388 
Q 1931 388 2195 563 
Q 2459 738 2459 1019 
Q 2459 1294 2225 1461 
Q 1991 1628 1563 1628 
L 1100 1628 
L 1100 2103 
L 1584 2103 
Q 1947 2103 2158 2242 
Q 2369 2381 2369 2600 
Q 2369 2800 2151 2944 
Q 1934 3088 1563 3088 
Q 1341 3088 1089 3047 
Q 838 3006 534 2916 
L 534 3438 
Q 841 3513 1106 3550 
Q 1372 3588 1609 3588 
Q 2222 3588 2576 3342 
Q 2931 3097 2931 2656 
Q 2931 2366 2743 2164 
Q 2556 1963 2206 1888 
z
" transform="scale(0.015625)"/>
       </defs>
       <use xlink:href="#DejaVuSans-42d"/>
       <use xlink:href="#DejaVuSans-43a" x="69.824219"/>
       <use xlink:href="#DejaVuSans-43e" x="130.224609"/>
       <use xlink:href="#DejaVuSans-43d" x="191.40625"/>
       <use xlink:href="#DejaVuSans-43e" x="256.787109"/>
       <use xlink:href="#DejaVuSans-43c" x="317.96875"/>
       <use xlink:href="#DejaVuSans-438" x="393.408203"/>
       <use xlink:href="#DejaVuSans-447" x="458.398438"/>
       <use xlink:href="#DejaVuSans-435" x="517.480469"/>
       <use xlink:href="#DejaVuSans-441" x="579.003906"/>
       <use xlink:href="#DejaVuSans-43a" x="633.984375"/>
       <use xlink:href="#DejaVuSans-430" x="694.384766"/>
       <use xlink:href="#DejaVuSans-44f" x="755.664062"/>
       <use xlink:href="#DejaVuSans-20" x="815.820312"/>
       <use xlink:href="#DejaVuSans-431" x="847.607422"/>
       <use xlink:href="#DejaVuSans-435" x="909.277344"/>
       <use xlink:href="#DejaVuSans-437" x="970.800781"/>
       <use xlink:href="#DejaVuSans-43e" x="1023.974609"/>
       <use xlink:href="#DejaVuSans-43f" x="1085.15625"/>
       <use xlink:href="#DejaVuSans-430" x="1150.537109"/>
       <use xlink:href="#DejaVuSans-441" x="1211.816406"/>
       <use xlink:href="#DejaVuSans-43d" x="1266.796875"/>
       <use xlink:href="#DejaVuSans-43e" x="1332.177734"/>
       <use xlink:href="#DejaVuSans-441" x="1393.359375"/>
       <use xlink:href="#DejaVuSans-442" x="1448.339844"/>
       <use xlink:href="#DejaVuSans-44c" x="1506.591797"/>
      </g>
     </g>
    </g>
    <g id="ytick_14">
     <g id="text_15">
      <!-- Финансы -->
      <g style="fill: #2c2c2c" transform="translate(379.320313 163.259044) scale(0.1 -0.1)">
       <defs>
        <path id="DejaVuSans-424" d="M 2441 3706 
Q 1763 3644 1403 3325 
Q 1044 3006 1044 2391 
Q 1044 1775 1403 1458 
Q 1763 1141 2441 1078 
L 2441 3706 
z
M 3075 1078 
Q 3753 1141 4109 1458 
Q 4466 1775 4466 2391 
Q 4466 3006 4109 3325 
Q 3753 3644 3075 3706 
L 3075 1078 
z
M 2441 556 
Q 1450 628 914 1095 
Q 378 1563 378 2391 
Q 378 3219 914 3689 
Q 1450 4159 2441 4231 
L 2441 4666 
L 3075 4666 
L 3075 4231 
Q 4066 4159 4598 3692 
Q 5131 3225 5131 2391 
Q 5131 1563 4598 1095 
Q 4066 628 3075 556 
L 3075 0 
L 2441 0 
L 2441 556 
z
" transform="scale(0.015625)"/>
       </defs>
       <use xlink:href="#DejaVuSans-424"/>
       <use xlink:href="#DejaVuSans-438" x="86.083984"/>
       <use xlink:href="#DejaVuSans-43d" x="151.074219"/>
       <use xlink:href="#DejaVuSans-430" x="216.455078"/>
       <use xlink:href="#DejaVuSans-43d" x="277.734375"/>
       <use xlink:href="#DejaVuSans-441" x="343.115234"/>
       <use xlink:href="#DejaVuSans-44b" x="398.095703"/>
      </g>
     </g>
    </g>
    <g id="ytick_15">
     <g id="text_16">
      <!-- Стандартизация и управление качеством продукции -->
      <g style="fill: #2c2c2c" transform="translate(144.507813 133.865256) scale(0.1 -0.1)">
       <defs>
        <path id="DejaVuSans-421" d="M 4122 4306 
L 4122 3641 
Q 3803 3938 3442 4084 
Q 3081 4231 2675 4231 
Q 1875 4231 1450 3742 
Q 1025 3253 1025 2328 
Q 1025 1406 1450 917 
Q 1875 428 2675 428 
Q 3081 428 3442 575 
Q 3803 722 4122 1019 
L 4122 359 
Q 3791 134 3420 21 
Q 3050 -91 2638 -91 
Q 1578 -91 968 557 
Q 359 1206 359 2328 
Q 359 3453 968 4101 
Q 1578 4750 2638 4750 
Q 3056 4750 3426 4639 
Q 3797 4528 4122 4306 
z
" transform="scale(0.015625)"/>
       </defs>
       <use xlink:href="#DejaVuSans-421"/>
       <use xlink:href="#DejaVuSans-442" x="69.824219"/>
       <use xlink:href="#DejaVuSans-430" x="128.076172"/>
       <use xlink:href="#DejaVuSans-43d" x="189.355469"/>
       <use xlink:href="#DejaVuSans-434" x="254.736328"/>
       <use xlink:href="#DejaVuSans-430" x="323.876953"/>
       <use xlink:href="#DejaVuSans-440" x="385.15625"/>
       <use xlink:href="#DejaVuSans-442" x="448.632812"/>
       <use xlink:href="#DejaVuSans-438" x="506.884766"/>
       <use xlink:href="#DejaVuSans-437" x="571.875"/>
       <use xlink:href="#DejaVuSans-430" x="625.048828"/>
       <use xlink:href="#DejaVuSans-446" x="686.328125"/>
       <use xlink:href="#DejaVuSans-438" x="754.394531"/>
       <use xlink:href="#DejaVuSans-44f" x="819.384766"/>
       <use xlink:href="#DejaVuSans-20" x="879.541016"/>
       <use xlink:href="#DejaVuSans-438" x="911.328125"/>
       <use xlink:href="#DejaVuSans-20" x="976.318359"/>
       <use xlink:href="#DejaVuSans-443" x="1008.105469"/>
       <use xlink:href="#DejaVuSans-43f" x="1067.285156"/>
       <use xlink:href="#DejaVuSans-440" x="1132.666016"/>
       <use xlink:href="#DejaVuSans-430" x="1196.142578"/>
       <use xlink:href="#DejaVuSans-432" x="1257.421875"/>
       <use xlink:href="#DejaVuSans-43b" x="1316.357422"/>
       <use xlink:href="#DejaVuSans-435" x="1380.273438"/>
       <use xlink:href="#DejaVuSans-43d" x="1441.796875"/>
       <use xlink:href="#DejaVuSans-438" x="1507.177734"/>
       <use xlink:href="#DejaVuSans-435" x="1572.167969"/>
       <use xlink:href="#DejaVuSans-20" x="1633.691406"/>
       <use xlink:href="#DejaVuSans-43a" x="1665.478516"/>
       <use xlink:href="#DejaVuSans-430" x="1725.878906"/>
       <use xlink:href="#DejaVuSans-447" x="1787.158203"/>
       <use xlink:href="#DejaVuSans-435" x="1846.240234"/>
       <use xlink:href="#DejaVuSans-441" x="1907.763672"/>
       <use xlink:href="#DejaVuSans-442" x="1962.744141"/>
       <use xlink:href="#DejaVuSans-432" x="2020.996094"/>
       <use xlink:href="#DejaVuSans-43e" x="2079.931641"/>
       <use xlink:href="#DejaVuSans-43c" x="2141.113281"/>
       <use xlink:href="#DejaVuSans-20" x="2216.552734"/>
       <use xlink:href="#DejaVuSans-43f" x="2248.339844"/>
       <use xlink:href="#DejaVuSans-440" x="2313.720703"/>
       <use xlink:href="#DejaVuSans-43e" x="2377.197266"/>
       <use xlink:href="#DejaVuSans-434" x="2438.378906"/>
       <use xlink:href="#DejaVuSans-443" x="2507.519531"/>
       <use xlink:href="#DejaVuSans-43a" x="2566.699219"/>
       <use xlink:href="#DejaVuSans-446" x="2627.099609"/>
       <use xlink:href="#DejaVuSans-438" x="2695.166016"/>
       <use xlink:href="#DejaVuSans-438" x="2760.15625"/>
      </g>
     </g>
    </g>
    <g id="ytick_16">
     <g id="text_17">
      <!-- Экономика народонаселения и труда -->
      <g style="fill: #2c2c2c" transform="translate(227.767188 104.471467) scale(0.1 -0.1)">
       <use xlink:href="#DejaVuSans-42d"/>
       <use xlink:href="#DejaVuSans-43a" x="69.824219"/>
       <use xlink:href="#DejaVuSans-43e" x="130.224609"/>
       <use xlink:href="#DejaVuSans-43d" x="191.40625"/>
       <use xlink:href="#DejaVuSans-43e" x="256.787109"/>
       <use xlink:href="#DejaVuSans-43c" x="317.96875"/>
       <use xlink:href="#DejaVuSans-438" x="393.408203"/>
       <use xlink:href="#DejaVuSans-43a" x="458.398438"/>
       <use xlink:href="#DejaVuSans-430" x="518.798828"/>
       <use xlink:href="#DejaVuSans-20" x="580.078125"/>
       <use xlink:href="#DejaVuSans-43d" x="611.865234"/>
       <use xlink:href="#DejaVuSans-430" x="677.246094"/>
       <use xlink:href="#DejaVuSans-440" x="738.525391"/>
       <use xlink:href="#DejaVuSans-43e" x="802.001953"/>
       <use xlink:href="#DejaVuSans-434" x="863.183594"/>
       <use xlink:href="#DejaVuSans-43e" x="932.324219"/>
       <use xlink:href="#DejaVuSans-43d" x="993.505859"/>
       <use xlink:href="#DejaVuSans-430" x="1058.886719"/>
       <use xlink:href="#DejaVuSans-441" x="1120.166016"/>
       <use xlink:href="#DejaVuSans-435" x="1175.146484"/>
       <use xlink:href="#DejaVuSans-43b" x="1236.669922"/>
       <use xlink:href="#DejaVuSans-435" x="1300.585938"/>
       <use xlink:href="#DejaVuSans-43d" x="1362.109375"/>
       <use xlink:href="#DejaVuSans-438" x="1427.490234"/>
       <use xlink:href="#DejaVuSans-44f" x="1492.480469"/>
       <use xlink:href="#DejaVuSans-20" x="1552.636719"/>
       <use xlink:href="#DejaVuSans-438" x="1584.423828"/>
       <use xlink:href="#DejaVuSans-20" x="1649.414062"/>
       <use xlink:href="#DejaVuSans-442" x="1681.201172"/>
       <use xlink:href="#DejaVuSans-440" x="1739.453125"/>
       <use xlink:href="#DejaVuSans-443" x="1802.929688"/>
       <use xlink:href="#DejaVuSans-434" x="1862.109375"/>
       <use xlink:href="#DejaVuSans-430" x="1931.25"/>
      </g>
     </g>
    </g>
    <g id="ytick_17">
     <g id="text_18">
      <!-- Экономика природопользования и землеустройства -->
      <g style="fill: #2c2c2c" transform="translate(149.532813 75.077678) scale(0.1 -0.1)">
       <use xlink:href="#DejaVuSans-42d"/>
       <use xlink:href="#DejaVuSans-43a" x="69.824219"/>
       <use xlink:href="#DejaVuSans-43e" x="130.224609"/>
       <use xlink:href="#DejaVuSans-43d" x="191.40625"/>
       <use xlink:href="#DejaVuSans-43e" x="256.787109"/>
       <use xlink:href="#DejaVuSans-43c" x="317.96875"/>
       <use xlink:href="#DejaVuSans-438" x="393.408203"/>
       <use xlink:href="#DejaVuSans-43a" x="458.398438"/>
       <use xlink:href="#DejaVuSans-430" x="518.798828"/>
       <use xlink:href="#DejaVuSans-20" x="580.078125"/>
       <use xlink:href="#DejaVuSans-43f" x="611.865234"/>
       <use xlink:href="#DejaVuSans-440" x="677.246094"/>
       <use xlink:href="#DejaVuSans-438" x="740.722656"/>
       <use xlink:href="#DejaVuSans-440" x="805.712891"/>
       <use xlink:href="#DejaVuSans-43e" x="869.189453"/>
       <use xlink:href="#DejaVuSans-434" x="930.371094"/>
       <use xlink:href="#DejaVuSans-43e" x="999.511719"/>
       <use xlink:href="#DejaVuSans-43f" x="1060.693359"/>
       <use xlink:href="#DejaVuSans-43e" x="1126.074219"/>
       <use xlink:href="#DejaVuSans-43b" x="1187.255859"/>
       <use xlink:href="#DejaVuSans-44c" x="1251.171875"/>
       <use xlink:href="#DejaVuSans-437" x="1310.107422"/>
       <use xlink:href="#DejaVuSans-43e" x="1363.28125"/>
       <use xlink:href="#DejaVuSans-432" x="1424.462891"/>
       <use xlink:href="#DejaVuSans-430" x="1483.398438"/>
       <use xlink:href="#DejaVuSans-43d" x="1544.677734"/>
       <use xlink:href="#DejaVuSans-438" x="1610.058594"/>
       <use xlink:href="#DejaVuSans-44f" x="1675.048828"/>
       <use xlink:href="#DejaVuSans-20" x="1735.205078"/>
       <use xlink:href="#DejaVuSans-438" x="1766.992188"/>
       <use xlink:href="#DejaVuSans-20" x="1831.982422"/>
       <use xlink:href="#DejaVuSans-437" x="1863.769531"/>
       <use xlink:href="#DejaVuSans-435" x="1916.943359"/>
       <use xlink:href="#DejaVuSans-43c" x="1978.466797"/>
       <use xlink:href="#DejaVuSans-43b" x="2053.90625"/>
       <use xlink:href="#DejaVuSans-435" x="2117.822266"/>
       <use xlink:href="#DejaVuSans-443" x="2179.345703"/>
       <use xlink:href="#DejaVuSans-441" x="2238.525391"/>
       <use xlink:href="#DejaVuSans-442" x="2293.505859"/>
       <use xlink:href="#DejaVuSans-440" x="2351.757812"/>
       <use xlink:href="#DejaVuSans-43e" x="2415.234375"/>
       <use xlink:href="#DejaVuSans-439" x="2476.416016"/>
       <use xlink:href="#DejaVuSans-441" x="2541.40625"/>
       <use xlink:href="#DejaVuSans-442" x="2596.386719"/>
       <use xlink:href="#DejaVuSans-432" x="2654.638672"/>
       <use xlink:href="#DejaVuSans-430" x="2713.574219"/>
      </g>
     </g>
    </g>
    <g id="ytick_18">
     <g id="text_19">
      <!-- Экономика строительства и операций с недвижимостью -->
      <g style="fill: #2c2c2c" transform="translate(125.335938 45.683889) scale(0.1 -0.1)">
       <defs>
        <path id="DejaVuSans-44e" d="M 3431 3097 
Q 2969 3097 2700 2736 
Q 2431 2375 2431 1747 
Q 2431 1119 2698 758 
Q 2966 397 3431 397 
Q 3891 397 4159 759 
Q 4428 1122 4428 1747 
Q 4428 2369 4159 2733 
Q 3891 3097 3431 3097 
z
M 1844 2103 
Q 1903 2697 2292 3140 
Q 2681 3584 3431 3584 
Q 4181 3584 4609 3096 
Q 5038 2609 5038 1747 
Q 5038 888 4609 398 
Q 4181 -91 3431 -91 
Q 2678 -91 2267 381 
Q 1856 853 1828 1628 
L 1178 1628 
L 1178 0 
L 603 0 
L 603 3500 
L 1178 3500 
L 1178 2103 
L 1844 2103 
z
" transform="scale(0.015625)"/>
       </defs>
       <use xlink:href="#DejaVuSans-42d"/>
       <use xlink:href="#DejaVuSans-43a" x="69.824219"/>
       <use xlink:href="#DejaVuSans-43e" x="130.224609"/>
       <use xlink:href="#DejaVuSans-43d" x="191.40625"/>
       <use xlink:href="#DejaVuSans-43e" x="256.787109"/>
       <use xlink:href="#DejaVuSans-43c" x="317.96875"/>
       <use xlink:href="#DejaVuSans-438" x="393.408203"/>
       <use xlink:href="#DejaVuSans-43a" x="458.398438"/>
       <use xlink:href="#DejaVuSans-430" x="518.798828"/>
       <use xlink:href="#DejaVuSans-20" x="580.078125"/>
       <use xlink:href="#DejaVuSans-441" x="611.865234"/>
       <use xlink:href="#DejaVuSans-442" x="666.845703"/>
       <use xlink:href="#DejaVuSans-440" x="725.097656"/>
       <use xlink:href="#DejaVuSans-43e" x="788.574219"/>
       <use xlink:href="#DejaVuSans-438" x="849.755859"/>
       <use xlink:href="#DejaVuSans-442" x="914.746094"/>
       <use xlink:href="#DejaVuSans-435" x="972.998047"/>
       <use xlink:href="#DejaVuSans-43b" x="1034.521484"/>
       <use xlink:href="#DejaVuSans-44c" x="1098.4375"/>
       <use xlink:href="#DejaVuSans-441" x="1157.373047"/>
       <use xlink:href="#DejaVuSans-442" x="1212.353516"/>
       <use xlink:href="#DejaVuSans-432" x="1270.605469"/>
       <use xlink:href="#DejaVuSans-430" x="1329.541016"/>
       <use xlink:href="#DejaVuSans-20" x="1390.820312"/>
       <use xlink:href="#DejaVuSans-438" x="1422.607422"/>
       <use xlink:href="#DejaVuSans-20" x="1487.597656"/>
       <use xlink:href="#DejaVuSans-43e" x="1519.384766"/>
       <use xlink:href="#DejaVuSans-43f" x="1580.566406"/>
       <use xlink:href="#DejaVuSans-435" x="1645.947266"/>
       <use xlink:href="#DejaVuSans-440" x="1707.470703"/>
       <use xlink:href="#DejaVuSans-430" x="1770.947266"/>
       <use xlink:href="#DejaVuSans-446" x="1832.226562"/>
       <use xlink:href="#DejaVuSans-438" x="1900.292969"/>
       <use xlink:href="#DejaVuSans-439" x="1965.283203"/>
       <use xlink:href="#DejaVuSans-20" x="2030.273438"/>
       <use xlink:href="#DejaVuSans-441" x="2062.060547"/>
       <use xlink:href="#DejaVuSans-20" x="2117.041016"/>
       <use xlink:href="#DejaVuSans-43d" x="2148.828125"/>
       <use xlink:href="#DejaVuSans-435" x="2214.208984"/>
       <use xlink:href="#DejaVuSans-434" x="2275.732422"/>
       <use xlink:href="#DejaVuSans-432" x="2344.873047"/>
       <use xlink:href="#DejaVuSans-438" x="2403.808594"/>
       <use xlink:href="#DejaVuSans-436" x="2468.798828"/>
       <use xlink:href="#DejaVuSans-438" x="2558.886719"/>
       <use xlink:href="#DejaVuSans-43c" x="2623.876953"/>
       <use xlink:href="#DejaVuSans-43e" x="2699.316406"/>
       <use xlink:href="#DejaVuSans-441" x="2760.498047"/>
       <use xlink:href="#DejaVuSans-442" x="2815.478516"/>
       <use xlink:href="#DejaVuSans-44c" x="2873.730469"/>
       <use xlink:href="#DejaVuSans-44e" x="2932.666016"/>
      </g>
     </g>
    </g>
    <g id="text_20">
     <!-- Группа -->
     <g transform="translate(14.798438 310.51625) rotate(-90) scale(0.1 -0.1)">
      <use xlink:href="#DejaVuSans-413"/>
      <use xlink:href="#DejaVuSans-440" x="60.986328"/>
      <use xlink:href="#DejaVuSans-443" x="124.462891"/>
      <use xlink:href="#DejaVuSans-43f" x="183.642578"/>
      <use xlink:href="#DejaVuSans-43f" x="249.023438"/>
      <use xlink:href="#DejaVuSans-430" x="314.404297"/>
     </g>
    </g>
   </g>
   <g id="text_21">
    <!-- 0% -->
    <g style="fill: #2c2c2c" transform="translate(435.08284 544.338454) scale(0.1 -0.1)">
     <defs>
      <path id="DejaVuSans-25" d="M 4653 2053 
Q 4381 2053 4226 1822 
Q 4072 1591 4072 1178 
Q 4072 772 4226 539 
Q 4381 306 4653 306 
Q 4919 306 5073 539 
Q 5228 772 5228 1178 
Q 5228 1588 5073 1820 
Q 4919 2053 4653 2053 
z
M 4653 2450 
Q 5147 2450 5437 2106 
Q 5728 1763 5728 1178 
Q 5728 594 5436 251 
Q 5144 -91 4653 -91 
Q 4153 -91 3862 251 
Q 3572 594 3572 1178 
Q 3572 1766 3864 2108 
Q 4156 2450 4653 2450 
z
M 1428 4353 
Q 1159 4353 1004 4120 
Q 850 3888 850 3481 
Q 850 3069 1003 2837 
Q 1156 2606 1428 2606 
Q 1700 2606 1854 2837 
Q 2009 3069 2009 3481 
Q 2009 3884 1853 4118 
Q 1697 4353 1428 4353 
z
M 4250 4750 
L 4750 4750 
L 1831 -91 
L 1331 -91 
L 4250 4750 
z
M 1428 4750 
Q 1922 4750 2215 4408 
Q 2509 4066 2509 3481 
Q 2509 2891 2217 2550 
Q 1925 2209 1428 2209 
Q 931 2209 642 2551 
Q 353 2894 353 3481 
Q 353 4063 643 4406 
Q 934 4750 1428 4750 
z
" transform="scale(0.015625)"/>
     </defs>
     <use xlink:href="#DejaVuSans-30"/>
     <use xlink:href="#DejaVuSans-25" x="63.623047"/>
    </g>
   </g>
   <g id="text_22">
    <!-- 14% -->
    <g style="fill: #2c2c2c" transform="translate(465.35147 514.944666) scale(0.1 -0.1)">
     <defs>
      <path id="DejaVuSans-31" d="M 794 531 
L 1825 531 
L 1825 4091 
L 703 3866 
L 703 4441 
L 1819 4666 
L 2450 4666 
L 2450 531 
L 3481 531 
L 3481 0 
L 794 0 
L 794 531 
z
" transform="scale(0.015625)"/>
      <path id="DejaVuSans-34" d="M 2419 4116 
L 825 1625 
L 2419 1625 
L 2419 4116 
z
M 2253 4666 
L 3047 4666 
L 3047 1625 
L 3713 1625 
L 3713 1100 
L 3047 1100 
L 3047 0 
L 2419 0 
L 2419 1100 
L 313 1100 
L 313 1709 
L 2253 4666 
z
" transform="scale(0.015625)"/>
     </defs>
     <use xlink:href="#DejaVuSans-31"/>
     <use xlink:href="#DejaVuSans-34" x="63.623047"/>
     <use xlink:href="#DejaVuSans-25" x="127.246094"/>
    </g>
   </g>
   <g id="text_23">
    <!-- 22% -->
    <g style="fill: #2c2c2c" transform="translate(482.167376 485.550877) scale(0.1 -0.1)">
     <defs>
      <path id="DejaVuSans-32" d="M 1228 531 
L 3431 531 
L 3431 0 
L 469 0 
L 469 531 
Q 828 903 1448 1529 
Q 2069 2156 2228 2338 
Q 2531 2678 2651 2914 
Q 2772 3150 2772 3378 
Q 2772 3750 2511 3984 
Q 2250 4219 1831 4219 
Q 1534 4219 1204 4116 
Q 875 4013 500 3803 
L 500 4441 
Q 881 4594 1212 4672 
Q 1544 4750 1819 4750 
Q 2544 4750 2975 4387 
Q 3406 4025 3406 3419 
Q 3406 3131 3298 2873 
Q 3191 2616 2906 2266 
Q 2828 2175 2409 1742 
Q 1991 1309 1228 531 
z
" transform="scale(0.015625)"/>
     </defs>
     <use xlink:href="#DejaVuSans-32"/>
     <use xlink:href="#DejaVuSans-32" x="63.623047"/>
     <use xlink:href="#DejaVuSans-25" x="127.246094"/>
    </g>
   </g>
   <g id="text_24">
    <!-- 23% -->
    <g style="fill: #2c2c2c" transform="translate(484.521603 456.157088) scale(0.1 -0.1)">
     <defs>
      <path id="DejaVuSans-33" d="M 2597 2516 
Q 3050 2419 3304 2112 
Q 3559 1806 3559 1356 
Q 3559 666 3084 287 
Q 2609 -91 1734 -91 
Q 1441 -91 1130 -33 
Q 819 25 488 141 
L 488 750 
Q 750 597 1062 519 
Q 1375 441 1716 441 
Q 2309 441 2620 675 
Q 2931 909 2931 1356 
Q 2931 1769 2642 2001 
Q 2353 2234 1838 2234 
L 1294 2234 
L 1294 2753 
L 1863 2753 
Q 2328 2753 2575 2939 
Q 2822 3125 2822 3475 
Q 2822 3834 2567 4026 
Q 2313 4219 1838 4219 
Q 1578 4219 1281 4162 
Q 984 4106 628 3988 
L 628 4550 
Q 988 4650 1302 4700 
Q 1616 4750 1894 4750 
Q 2613 4750 3031 4423 
Q 3450 4097 3450 3541 
Q 3450 3153 3228 2886 
Q 3006 2619 2597 2516 
z
" transform="scale(0.015625)"/>
     </defs>
     <use xlink:href="#DejaVuSans-32"/>
     <use xlink:href="#DejaVuSans-33" x="63.623047"/>
     <use xlink:href="#DejaVuSans-25" x="127.246094"/>
    </g>
   </g>
   <g id="text_25">
    <!-- 33% -->
    <g style="fill: #2c2c2c" transform="translate(505.709645 426.763299) scale(0.1 -0.1)">
     <use xlink:href="#DejaVuSans-33"/>
     <use xlink:href="#DejaVuSans-33" x="63.623047"/>
     <use xlink:href="#DejaVuSans-25" x="127.246094"/>
    </g>
   </g>
   <g id="text_26">
    <!-- 38% -->
    <g style="fill: #2c2c2c" transform="translate(514.537996 397.369511) scale(0.1 -0.1)">
     <defs>
      <path id="DejaVuSans-38" d="M 2034 2216 
Q 1584 2216 1326 1975 
Q 1069 1734 1069 1313 
Q 1069 891 1326 650 
Q 1584 409 2034 409 
Q 2484 409 2743 651 
Q 3003 894 3003 1313 
Q 3003 1734 2745 1975 
Q 2488 2216 2034 2216 
z
M 1403 2484 
Q 997 2584 770 2862 
Q 544 3141 544 3541 
Q 544 4100 942 4425 
Q 1341 4750 2034 4750 
Q 2731 4750 3128 4425 
Q 3525 4100 3525 3541 
Q 3525 3141 3298 2862 
Q 3072 2584 2669 2484 
Q 3125 2378 3379 2068 
Q 3634 1759 3634 1313 
Q 3634 634 3220 271 
Q 2806 -91 2034 -91 
Q 1263 -91 848 271 
Q 434 634 434 1313 
Q 434 1759 690 2068 
Q 947 2378 1403 2484 
z
M 1172 3481 
Q 1172 3119 1398 2916 
Q 1625 2713 2034 2713 
Q 2441 2713 2670 2916 
Q 2900 3119 2900 3481 
Q 2900 3844 2670 4047 
Q 2441 4250 2034 4250 
Q 1625 4250 1398 4047 
Q 1172 3844 1172 3481 
z
" transform="scale(0.015625)"/>
     </defs>
     <use xlink:href="#DejaVuSans-33"/>
     <use xlink:href="#DejaVuSans-38" x="63.623047"/>
     <use xlink:href="#DejaVuSans-25" x="127.246094"/>
    </g>
   </g>
   <g id="text_27">
    <!-- 43% -->
    <g style="fill: #2c2c2c" transform="translate(525.888732 367.975722) scale(0.1 -0.1)">
     <use xlink:href="#DejaVuSans-34"/>
     <use xlink:href="#DejaVuSans-33" x="63.623047"/>
     <use xlink:href="#DejaVuSans-25" x="127.246094"/>
    </g>
   </g>
   <g id="text_28">
    <!-- 50% -->
    <g style="fill: #2c2c2c" transform="translate(541.023048 338.581933) scale(0.1 -0.1)">
     <defs>
      <path id="DejaVuSans-35" d="M 691 4666 
L 3169 4666 
L 3169 4134 
L 1269 4134 
L 1269 2991 
Q 1406 3038 1543 3061 
Q 1681 3084 1819 3084 
Q 2600 3084 3056 2656 
Q 3513 2228 3513 1497 
Q 3513 744 3044 326 
Q 2575 -91 1722 -91 
Q 1428 -91 1123 -41 
Q 819 9 494 109 
L 494 744 
Q 775 591 1075 516 
Q 1375 441 1709 441 
Q 2250 441 2565 725 
Q 2881 1009 2881 1497 
Q 2881 1984 2565 2268 
Q 2250 2553 1709 2553 
Q 1456 2553 1204 2497 
Q 953 2441 691 2322 
L 691 4666 
z
" transform="scale(0.015625)"/>
     </defs>
     <use xlink:href="#DejaVuSans-35"/>
     <use xlink:href="#DejaVuSans-30" x="63.623047"/>
     <use xlink:href="#DejaVuSans-25" x="127.246094"/>
    </g>
   </g>
   <g id="text_29">
    <!-- 50% -->
    <g style="fill: #2c2c2c" transform="translate(541.023048 309.188144) scale(0.1 -0.1)">
     <use xlink:href="#DejaVuSans-35"/>
     <use xlink:href="#DejaVuSans-30" x="63.623047"/>
     <use xlink:href="#DejaVuSans-25" x="127.246094"/>
    </g>
   </g>
   <g id="text_30">
    <!-- 50% -->
    <g style="fill: #2c2c2c" transform="translate(541.023048 279.794356) scale(0.1 -0.1)">
     <use xlink:href="#DejaVuSans-35"/>
     <use xlink:href="#DejaVuSans-30" x="63.623047"/>
     <use xlink:href="#DejaVuSans-25" x="127.246094"/>
    </g>
   </g>
   <g id="text_31">
    <!-- 56% -->
    <g style="fill: #2c2c2c" transform="translate(552.794182 250.400567) scale(0.1 -0.1)">
     <use xlink:href="#DejaVuSans-35"/>
     <use xlink:href="#DejaVuSans-36" x="63.623047"/>
     <use xlink:href="#DejaVuSans-25" x="127.246094"/>
    </g>
   </g>
   <g id="text_32">
    <!-- 57% -->
    <g style="fill: #2c2c2c" transform="translate(556.157363 221.006778) scale(0.1 -0.1)">
     <defs>
      <path id="DejaVuSans-37" d="M 525 4666 
L 3525 4666 
L 3525 4397 
L 1831 0 
L 1172 0 
L 2766 4134 
L 525 4134 
L 525 4666 
z
" transform="scale(0.015625)"/>
     </defs>
     <use xlink:href="#DejaVuSans-35"/>
     <use xlink:href="#DejaVuSans-37" x="63.623047"/>
     <use xlink:href="#DejaVuSans-25" x="127.246094"/>
    </g>
   </g>
   <g id="text_33">
    <!-- 60% -->
    <g style="fill: #2c2c2c" transform="translate(562.211089 191.612989) scale(0.1 -0.1)">
     <use xlink:href="#DejaVuSans-36"/>
     <use xlink:href="#DejaVuSans-30" x="63.623047"/>
     <use xlink:href="#DejaVuSans-25" x="127.246094"/>
    </g>
   </g>
   <g id="text_34">
    <!-- 76% -->
    <g style="fill: #2c2c2c" transform="translate(595.819707 162.219201) scale(0.1 -0.1)">
     <use xlink:href="#DejaVuSans-37"/>
     <use xlink:href="#DejaVuSans-36" x="63.623047"/>
     <use xlink:href="#DejaVuSans-25" x="127.246094"/>
    </g>
   </g>
   <g id="text_35">
    <!-- 100% -->
    <g style="fill: #2c2c2c" transform="translate(646.963256 132.825412) scale(0.1 -0.1)">
     <use xlink:href="#DejaVuSans-31"/>
     <use xlink:href="#DejaVuSans-30" x="63.623047"/>
     <use xlink:href="#DejaVuSans-30" x="127.246094"/>
     <use xlink:href="#DejaVuSans-25" x="190.869141"/>
    </g>
   </g>
   <g id="text_36">
    <!-- 100% -->
    <g style="fill: #2c2c2c" transform="translate(646.963256 103.431623) scale(0.1 -0.1)">
     <use xlink:href="#DejaVuSans-31"/>
     <use xlink:href="#DejaVuSans-30" x="63.623047"/>
     <use xlink:href="#DejaVuSans-30" x="127.246094"/>
     <use xlink:href="#DejaVuSans-25" x="190.869141"/>
    </g>
   </g>
   <g id="text_37">
    <!-- 100% -->
    <g style="fill: #2c2c2c" transform="translate(646.963256 74.037834) scale(0.1 -0.1)">
     <use xlink:href="#DejaVuSans-31"/>
     <use xlink:href="#DejaVuSans-30" x="63.623047"/>
     <use xlink:href="#DejaVuSans-30" x="127.246094"/>
     <use xlink:href="#DejaVuSans-25" x="190.869141"/>
    </g>
   </g>
   <g id="text_38">
    <!-- 100% -->
    <g style="fill: #2c2c2c" transform="translate(646.963256 44.644046) scale(0.1 -0.1)">
     <use xlink:href="#DejaVuSans-31"/>
     <use xlink:href="#DejaVuSans-30" x="63.623047"/>
     <use xlink:href="#DejaVuSans-30" x="127.246094"/>
     <use xlink:href="#DejaVuSans-25" x="190.869141"/>
    </g>
   </g>
   <g id="text_39">
    <!-- n=1 -->
    <g style="fill: #2c2c2c" transform="translate(438.261046 544.338454) scale(0.1 -0.1)">
     <defs>
      <path id="DejaVuSans-6e" d="M 3513 2113 
L 3513 0 
L 2938 0 
L 2938 2094 
Q 2938 2591 2744 2837 
Q 2550 3084 2163 3084 
Q 1697 3084 1428 2787 
Q 1159 2491 1159 1978 
L 1159 0 
L 581 0 
L 581 3500 
L 1159 3500 
L 1159 2956 
Q 1366 3272 1645 3428 
Q 1925 3584 2291 3584 
Q 2894 3584 3203 3211 
Q 3513 2838 3513 2113 
z
" transform="scale(0.015625)"/>
      <path id="DejaVuSans-3d" d="M 678 2906 
L 4684 2906 
L 4684 2381 
L 678 2381 
L 678 2906 
z
M 678 1631 
L 4684 1631 
L 4684 1100 
L 678 1100 
L 678 1631 
z
" transform="scale(0.015625)"/>
     </defs>
     <use xlink:href="#DejaVuSans-6e"/>
     <use xlink:href="#DejaVuSans-3d" x="63.378906"/>
     <use xlink:href="#DejaVuSans-31" x="147.167969"/>
    </g>
   </g>
   <g id="text_40">
    <!-- n=7 -->
    <g style="fill: #2c2c2c" transform="translate(438.261046 514.944666) scale(0.1 -0.1)">
     <use xlink:href="#DejaVuSans-6e"/>
     <use xlink:href="#DejaVuSans-3d" x="63.378906"/>
     <use xlink:href="#DejaVuSans-37" x="147.167969"/>
    </g>
   </g>
   <g id="text_41">
    <!-- n=9 -->
    <g style="fill: #2c2c2c" transform="translate(438.261046 485.550877) scale(0.1 -0.1)">
     <defs>
      <path id="DejaVuSans-39" d="M 703 97 
L 703 672 
Q 941 559 1184 500 
Q 1428 441 1663 441 
Q 2288 441 2617 861 
Q 2947 1281 2994 2138 
Q 2813 1869 2534 1725 
Q 2256 1581 1919 1581 
Q 1219 1581 811 2004 
Q 403 2428 403 3163 
Q 403 3881 828 4315 
Q 1253 4750 1959 4750 
Q 2769 4750 3195 4129 
Q 3622 3509 3622 2328 
Q 3622 1225 3098 567 
Q 2575 -91 1691 -91 
Q 1453 -91 1209 -44 
Q 966 3 703 97 
z
M 1959 2075 
Q 2384 2075 2632 2365 
Q 2881 2656 2881 3163 
Q 2881 3666 2632 3958 
Q 2384 4250 1959 4250 
Q 1534 4250 1286 3958 
Q 1038 3666 1038 3163 
Q 1038 2656 1286 2365 
Q 1534 2075 1959 2075 
z
" transform="scale(0.015625)"/>
     </defs>
     <use xlink:href="#DejaVuSans-6e"/>
     <use xlink:href="#DejaVuSans-3d" x="63.378906"/>
     <use xlink:href="#DejaVuSans-39" x="147.167969"/>
    </g>
   </g>
   <g id="text_42">
    <!-- n=30 -->
    <g style="fill: #2c2c2c" transform="translate(438.261046 456.157088) scale(0.1 -0.1)">
     <use xlink:href="#DejaVuSans-6e"/>
     <use xlink:href="#DejaVuSans-3d" x="63.378906"/>
     <use xlink:href="#DejaVuSans-33" x="147.167969"/>
     <use xlink:href="#DejaVuSans-30" x="210.791016"/>
    </g>
   </g>
   <g id="text_43">
    <!-- n=3 -->
    <g style="fill: #2c2c2c" transform="translate(438.261046 426.763299) scale(0.1 -0.1)">
     <use xlink:href="#DejaVuSans-6e"/>
     <use xlink:href="#DejaVuSans-3d" x="63.378906"/>
     <use xlink:href="#DejaVuSans-33" x="147.167969"/>
    </g>
   </g>
   <g id="text_44">
    <!-- n=8 -->
    <g style="fill: #2c2c2c" transform="translate(438.261046 397.369511) scale(0.1 -0.1)">
     <use xlink:href="#DejaVuSans-6e"/>
     <use xlink:href="#DejaVuSans-3d" x="63.378906"/>
     <use xlink:href="#DejaVuSans-38" x="147.167969"/>
    </g>
   </g>
   <g id="text_45">
    <!-- n=7 -->
    <g style="fill: #2c2c2c" transform="translate(438.261046 367.975722) scale(0.1 -0.1)">
     <use xlink:href="#DejaVuSans-6e"/>
     <use xlink:href="#DejaVuSans-3d" x="63.378906"/>
     <use xlink:href="#DejaVuSans-37" x="147.167969"/>
    </g>
   </g>
   <g id="text_46">
    <!-- n=8 -->
    <g style="fill: #2c2c2c" transform="translate(438.261046 338.581933) scale(0.1 -0.1)">
     <use xlink:href="#DejaVuSans-6e"/>
     <use xlink:href="#DejaVuSans-3d" x="63.378906"/>
     <use xlink:href="#DejaVuSans-38" x="147.167969"/>
    </g>
   </g>
   <g id="text_47">
    <!-- n=6 -->
    <g style="fill: #2c2c2c" transform="translate(438.261046 309.188144) scale(0.1 -0.1)">
     <use xlink:href="#DejaVuSans-6e"/>
     <use xlink:href="#DejaVuSans-3d" x="63.378906"/>
     <use xlink:href="#DejaVuSans-36" x="147.167969"/>
    </g>
   </g>
   <g id="text_48">
    <!-- n=2 -->
    <g style="fill: #2c2c2c" transform="translate(438.261046 279.794356) scale(0.1 -0.1)">
     <use xlink:href="#DejaVuSans-6e"/>
     <use xlink:href="#DejaVuSans-3d" x="63.378906"/>
     <use xlink:href="#DejaVuSans-32" x="147.167969"/>
    </g>
   </g>
   <g id="text_49">
    <!-- n=9 -->
    <g style="fill: #2c2c2c" transform="translate(438.261046 250.400567) scale(0.1 -0.1)">
     <use xlink:href="#DejaVuSans-6e"/>
     <use xlink:href="#DejaVuSans-3d" x="63.378906"/>
     <use xlink:href="#DejaVuSans-39" x="147.167969"/>
    </g>
   </g>
   <g id="text_50">
    <!-- n=7 -->
    <g style="fill: #2c2c2c" transform="translate(438.261046 221.006778) scale(0.1 -0.1)">
     <use xlink:href="#DejaVuSans-6e"/>
     <use xlink:href="#DejaVuSans-3d" x="63.378906"/>
     <use xlink:href="#DejaVuSans-37" x="147.167969"/>
    </g>
   </g>
   <g id="text_51">
    <!-- n=5 -->
    <g style="fill: #2c2c2c" transform="translate(438.261046 191.612989) scale(0.1 -0.1)">
     <use xlink:href="#DejaVuSans-6e"/>
     <use xlink:href="#DejaVuSans-3d" x="63.378906"/>
     <use xlink:href="#DejaVuSans-35" x="147.167969"/>
    </g>
   </g>
   <g id="text_52">
    <!-- n=29 -->
    <g style="fill: #2c2c2c" transform="translate(438.261046 162.219201) scale(0.1 -0.1)">
     <use xlink:href="#DejaVuSans-6e"/>
     <use xlink:href="#DejaVuSans-3d" x="63.378906"/>
     <use xlink:href="#DejaVuSans-32" x="147.167969"/>
     <use xlink:href="#DejaVuSans-39" x="210.791016"/>
    </g>
   </g>
   <g id="text_53">
    <!-- n=1 -->
    <g style="fill: #2c2c2c" transform="translate(438.261046 132.825412) scale(0.1 -0.1)">
     <use xlink:href="#DejaVuSans-6e"/>
     <use xlink:href="#DejaVuSans-3d" x="63.378906"/>
     <use xlink:href="#DejaVuSans-31" x="147.167969"/>
    </g>
   </g>
   <g id="text_54">
    <!-- n=2 -->
    <g style="fill: #2c2c2c" transform="translate(438.261046 103.431623) scale(0.1 -0.1)">
     <use xlink:href="#DejaVuSans-6e"/>
     <use xlink:href="#DejaVuSans-3d" x="63.378906"/>
     <use xlink:href="#DejaVuSans-32" x="147.167969"/>
    </g>
   </g>
   <g id="text_55">
    <!-- n=1 -->
    <g style="fill: #2c2c2c" transform="translate(438.261046 74.037834) scale(0.1 -0.1)">
     <use xlink:href="#DejaVuSans-6e"/>
     <use xlink:href="#DejaVuSans-3d" x="63.378906"/>
     <use xlink:href="#DejaVuSans-31" x="147.167969"/>
    </g>
   </g>
   <g id="text_56">
    <!-- n=2 -->
    <g style="fill: #2c2c2c" transform="translate(438.261046 44.644046) scale(0.1 -0.1)">
     <use xlink:href="#DejaVuSans-6e"/>
     <use xlink:href="#DejaVuSans-3d" x="63.378906"/>
     <use xlink:href="#DejaVuSans-32" x="147.167969"/>
    </g>
   </g>
  </g>
 </g>
 <defs>
  <clipPath id="pe35cb1a62d">
   <rect x="434.023438" y="7.2" width="211.880416" height="569.06375"/>
  </clipPath>
 </defs>
</svg>
