<?xml version="1.0" encoding="utf-8" standalone="no"?>
<!DOCTYPE svg PUBLIC "-//W3C//DTD SVG 1.1//EN"
  "http://www.w3.org/Graphics/SVG/1.1/DTD/svg11.dtd">
<svg xmlns:xlink="http://www.w3.org/1999/xlink" width="683.497785pt" height="596.79625pt" viewBox="0 0 683.497785 596.79625" xmlns="http://www.w3.org/2000/svg" version="1.1">
 <metadata>
  <rdf:RDF xmlns:dc="http://purl.org/dc/elements/1.1/" xmlns:cc="http://creativecommons.org/ns#" xmlns:rdf="http://www.w3.org/1999/02/22-rdf-syntax-ns#">
   <cc:Work>
    <dc:type rdf:resource="http://purl.org/dc/dcmitype/StillImage"/>
    <dc:date>2025-10-04T12:21:46.564109</dc:date>
    <dc:format>image/svg+xml</dc:format>
    <dc:creator>
     <cc:Agent>
      <dc:title>Matplotlib v3.7.2, https://matplotlib.org/</dc:title>
     </cc:Agent>
    </dc:creator>
   </cc:Work>
  </rdf:RDF>
 </metadata>
 <defs>
  <style type="text/css">*{stroke-linejoin: round; stroke-linecap: butt}</style>
 </defs>
 <g id="figure_1">
  <g id="patch_1">
   <path d="M 0 596.79625 
L 683.497785 596.79625 
L 683.497785 0 
L 0 0 
L 0 596.79625 
z
" style="fill: none"/>
  </g>
  <g id="axes_1">
   <g id="patch_2">
    <path d="M 20.878125 559.24 
L 675.299394 559.24 
L 675.299394 7.2 
L 20.878125 7.2 
L 20.878125 559.24 
z
" style="fill: none"/>
   </g>
   <g id="patch_3">
    <path d="M 23.560179 559.24 
L 28.924288 559.24 
L 28.924288 534.974505 
L 23.560179 534.974505 
z
" clip-path="url(#p411e42f65d)" style="fill: #5e8aff"/>
   </g>
   <g id="patch_4">
    <path d="M 34.288397 559.24 
L 39.652506 559.24 
L 39.652506 559.24 
L 34.288397 559.24 
z
" clip-path="url(#p411e42f65d)" style="fill: #5e8aff"/>
   </g>
   <g id="patch_5">
    <path d="M 45.016614 559.24 
L 50.380723 559.24 
L 50.380723 559.24 
L 45.016614 559.24 
z
" clip-path="url(#p411e42f65d)" style="fill: #5e8aff"/>
   </g>
   <g id="patch_6">
    <path d="M 55.744832 559.24 
L 61.108941 559.24 
L 61.108941 559.24 
L 55.744832 559.24 
z
" clip-path="url(#p411e42f65d)" style="fill: #5e8aff"/>
   </g>
   <g id="patch_7">
    <path d="M 66.473049 559.24 
L 71.837158 559.24 
L 71.837158 559.24 
L 66.473049 559.24 
z
" clip-path="url(#p411e42f65d)" style="fill: #5e8aff"/>
   </g>
   <g id="patch_8">
    <path d="M 77.201267 559.24 
L 82.565376 559.24 
L 82.565376 559.24 
L 77.201267 559.24 
z
" clip-path="url(#p411e42f65d)" style="fill: #5e8aff"/>
   </g>
   <g id="patch_9">
    <path d="M 87.929485 559.24 
L 93.293593 559.24 
L 93.293593 559.24 
L 87.929485 559.24 
z
" clip-path="url(#p411e42f65d)" style="fill: #5e8aff"/>
   </g>
   <g id="patch_10">
    <path d="M 98.657702 559.24 
L 104.021811 559.24 
L 104.021811 559.24 
L 98.657702 559.24 
z
" clip-path="url(#p411e42f65d)" style="fill: #5e8aff"/>
   </g>
   <g id="patch_11">
    <path d="M 109.38592 559.24 
L 114.750028 559.24 
L 114.750028 559.24 
L 109.38592 559.24 
z
" clip-path="url(#p411e42f65d)" style="fill: #5e8aff"/>
   </g>
   <g id="patch_12">
    <path d="M 120.114137 559.24 
L 125.478246 559.24 
L 125.478246 559.24 
L 120.114137 559.24 
z
" clip-path="url(#p411e42f65d)" style="fill: #5e8aff"/>
   </g>
   <g id="patch_13">
    <path d="M 130.842355 559.24 
L 136.206463 559.24 
L 136.206463 559.24 
L 130.842355 559.24 
z
" clip-path="url(#p411e42f65d)" style="fill: #5e8aff"/>
   </g>
   <g id="patch_14">
    <path d="M 141.570572 559.24 
L 146.934681 559.24 
L 146.934681 559.24 
L 141.570572 559.24 
z
" clip-path="url(#p411e42f65d)" style="fill: #5e8aff"/>
   </g>
   <g id="patch_15">
    <path d="M 152.29879 559.24 
L 157.662898 559.24 
L 157.662898 559.24 
L 152.29879 559.24 
z
" clip-path="url(#p411e42f65d)" style="fill: #5e8aff"/>
   </g>
   <g id="patch_16">
    <path d="M 163.027007 559.24 
L 168.391116 559.24 
L 168.391116 559.24 
L 163.027007 559.24 
z
" clip-path="url(#p411e42f65d)" style="fill: #5e8aff"/>
   </g>
   <g id="patch_17">
    <path d="M 173.755225 559.24 
L 179.119333 559.24 
L 179.119333 559.24 
L 173.755225 559.24 
z
" clip-path="url(#p411e42f65d)" style="fill: #5e8aff"/>
   </g>
   <g id="patch_18">
    <path d="M 184.483442 559.24 
L 189.847551 559.24 
L 189.847551 559.24 
L 184.483442 559.24 
z
" clip-path="url(#p411e42f65d)" style="fill: #5e8aff"/>
   </g>
   <g id="patch_19">
    <path d="M 195.21166 559.24 
L 200.575769 559.24 
L 200.575769 559.24 
L 195.21166 559.24 
z
" clip-path="url(#p411e42f65d)" style="fill: #5e8aff"/>
   </g>
   <g id="patch_20">
    <path d="M 205.939877 559.24 
L 211.303986 559.24 
L 211.303986 559.24 
L 205.939877 559.24 
z
" clip-path="url(#p411e42f65d)" style="fill: #5e8aff"/>
   </g>
   <g id="patch_21">
    <path d="M 216.668095 559.24 
L 222.032204 559.24 
L 222.032204 559.24 
L 216.668095 559.24 
z
" clip-path="url(#p411e42f65d)" style="fill: #5e8aff"/>
   </g>
   <g id="patch_22">
    <path d="M 227.396312 559.24 
L 232.760421 559.24 
L 232.760421 559.24 
L 227.396312 559.24 
z
" clip-path="url(#p411e42f65d)" style="fill: #5e8aff"/>
   </g>
   <g id="patch_23">
    <path d="M 238.12453 559.24 
L 243.488639 559.24 
L 243.488639 559.24 
L 238.12453 559.24 
z
" clip-path="url(#p411e42f65d)" style="fill: #5e8aff"/>
   </g>
   <g id="patch_24">
    <path d="M 248.852747 559.24 
L 254.216856 559.24 
L 254.216856 559.24 
L 248.852747 559.24 
z
" clip-path="url(#p411e42f65d)" style="fill: #5e8aff"/>
   </g>
   <g id="patch_25">
    <path d="M 259.580965 559.24 
L 264.945074 559.24 
L 264.945074 559.24 
L 259.580965 559.24 
z
" clip-path="url(#p411e42f65d)" style="fill: #5e8aff"/>
   </g>
   <g id="patch_26">
    <path d="M 270.309182 559.24 
L 275.673291 559.24 
L 275.673291 559.24 
L 270.309182 559.24 
z
" clip-path="url(#p411e42f65d)" style="fill: #5e8aff"/>
   </g>
   <g id="patch_27">
    <path d="M 281.0374 559.24 
L 286.401509 559.24 
L 286.401509 559.24 
L 281.0374 559.24 
z
" clip-path="url(#p411e42f65d)" style="fill: #5e8aff"/>
   </g>
   <g id="patch_28">
    <path d="M 291.765618 559.24 
L 297.129726 559.24 
L 297.129726 559.24 
L 291.765618 559.24 
z
" clip-path="url(#p411e42f65d)" style="fill: #5e8aff"/>
   </g>
   <g id="patch_29">
    <path d="M 302.493835 559.24 
L 307.857944 559.24 
L 307.857944 559.24 
L 302.493835 559.24 
z
" clip-path="url(#p411e42f65d)" style="fill: #5e8aff"/>
   </g>
   <g id="patch_30">
    <path d="M 313.222053 559.24 
L 318.586161 559.24 
L 318.586161 559.24 
L 313.222053 559.24 
z
" clip-path="url(#p411e42f65d)" style="fill: #5e8aff"/>
   </g>
   <g id="patch_31">
    <path d="M 323.95027 559.24 
L 329.314379 559.24 
L 329.314379 559.24 
L 323.95027 559.24 
z
" clip-path="url(#p411e42f65d)" style="fill: #5e8aff"/>
   </g>
   <g id="patch_32">
    <path d="M 334.678488 559.24 
L 340.042596 559.24 
L 340.042596 559.24 
L 334.678488 559.24 
z
" clip-path="url(#p411e42f65d)" style="fill: #5e8aff"/>
   </g>
   <g id="patch_33">
    <path d="M 345.406705 559.24 
L 350.770814 559.24 
L 350.770814 559.24 
L 345.406705 559.24 
z
" clip-path="url(#p411e42f65d)" style="fill: #5e8aff"/>
   </g>
   <g id="patch_34">
    <path d="M 356.134923 559.24 
L 361.499031 559.24 
L 361.499031 559.24 
L 356.134923 559.24 
z
" clip-path="url(#p411e42f65d)" style="fill: #5e8aff"/>
   </g>
   <g id="patch_35">
    <path d="M 366.86314 559.24 
L 372.227249 559.24 
L 372.227249 559.24 
L 366.86314 559.24 
z
" clip-path="url(#p411e42f65d)" style="fill: #5e8aff"/>
   </g>
   <g id="patch_36">
    <path d="M 377.591358 559.24 
L 382.955466 559.24 
L 382.955466 559.24 
L 377.591358 559.24 
z
" clip-path="url(#p411e42f65d)" style="fill: #5e8aff"/>
   </g>
   <g id="patch_37">
    <path d="M 388.319575 559.24 
L 393.683684 559.24 
L 393.683684 559.24 
L 388.319575 559.24 
z
" clip-path="url(#p411e42f65d)" style="fill: #5e8aff"/>
   </g>
   <g id="patch_38">
    <path d="M 399.047793 559.24 
L 404.411902 559.24 
L 404.411902 559.24 
L 399.047793 559.24 
z
" clip-path="url(#p411e42f65d)" style="fill: #5e8aff"/>
   </g>
   <g id="patch_39">
    <path d="M 409.77601 559.24 
L 415.140119 559.24 
L 415.140119 526.886007 
L 409.77601 526.886007 
z
" clip-path="url(#p411e42f65d)" style="fill: #5e8aff"/>
   </g>
   <g id="patch_40">
    <path d="M 420.504228 559.24 
L 425.868337 559.24 
L 425.868337 543.063004 
L 420.504228 543.063004 
z
" clip-path="url(#p411e42f65d)" style="fill: #5e8aff"/>
   </g>
   <g id="patch_41">
    <path d="M 431.232445 559.24 
L 436.596554 559.24 
L 436.596554 551.151502 
L 431.232445 551.151502 
z
" clip-path="url(#p411e42f65d)" style="fill: #5e8aff"/>
   </g>
   <g id="patch_42">
    <path d="M 441.960663 559.24 
L 447.324772 559.24 
L 447.324772 559.24 
L 441.960663 559.24 
z
" clip-path="url(#p411e42f65d)" style="fill: #5e8aff"/>
   </g>
   <g id="patch_43">
    <path d="M 452.68888 559.24 
L 458.052989 559.24 
L 458.052989 526.886007 
L 452.68888 526.886007 
z
" clip-path="url(#p411e42f65d)" style="fill: #5e8aff"/>
   </g>
   <g id="patch_44">
    <path d="M 463.417098 559.24 
L 468.781207 559.24 
L 468.781207 551.151502 
L 463.417098 551.151502 
z
" clip-path="url(#p411e42f65d)" style="fill: #5e8aff"/>
   </g>
   <g id="patch_45">
    <path d="M 474.145315 559.24 
L 479.509424 559.24 
L 479.509424 551.151502 
L 474.145315 551.151502 
z
" clip-path="url(#p411e42f65d)" style="fill: #5e8aff"/>
   </g>
   <g id="patch_46">
    <path d="M 484.873533 559.24 
L 490.237642 559.24 
L 490.237642 559.24 
L 484.873533 559.24 
z
" clip-path="url(#p411e42f65d)" style="fill: #5e8aff"/>
   </g>
   <g id="patch_47">
    <path d="M 495.60175 559.24 
L 500.965859 559.24 
L 500.965859 534.974505 
L 495.60175 534.974505 
z
" clip-path="url(#p411e42f65d)" style="fill: #5e8aff"/>
   </g>
   <g id="patch_48">
    <path d="M 506.329968 559.24 
L 511.694077 559.24 
L 511.694077 543.063004 
L 506.329968 543.063004 
z
" clip-path="url(#p411e42f65d)" style="fill: #5e8aff"/>
   </g>
   <g id="patch_49">
    <path d="M 517.058186 559.24 
L 522.422294 559.24 
L 522.422294 559.24 
L 517.058186 559.24 
z
" clip-path="url(#p411e42f65d)" style="fill: #5e8aff"/>
   </g>
   <g id="patch_50">
    <path d="M 527.786403 559.24 
L 533.150512 559.24 
L 533.150512 551.151502 
L 527.786403 551.151502 
z
" clip-path="url(#p411e42f65d)" style="fill: #5e8aff"/>
   </g>
   <g id="patch_51">
    <path d="M 538.514621 559.24 
L 543.878729 559.24 
L 543.878729 518.797509 
L 538.514621 518.797509 
z
" clip-path="url(#p411e42f65d)" style="fill: #5e8aff"/>
   </g>
   <g id="patch_52">
    <path d="M 549.242838 559.24 
L 554.606947 559.24 
L 554.606947 559.24 
L 549.242838 559.24 
z
" clip-path="url(#p411e42f65d)" style="fill: #5e8aff"/>
   </g>
   <g id="patch_53">
    <path d="M 559.971056 559.24 
L 565.335164 559.24 
L 565.335164 494.532015 
L 559.971056 494.532015 
z
" clip-path="url(#p411e42f65d)" style="fill: #5e8aff"/>
   </g>
   <g id="patch_54">
    <path d="M 570.699273 559.24 
L 576.063382 559.24 
L 576.063382 518.797509 
L 570.699273 518.797509 
z
" clip-path="url(#p411e42f65d)" style="fill: #5e8aff"/>
   </g>
   <g id="patch_55">
    <path d="M 581.427491 559.24 
L 586.791599 559.24 
L 586.791599 526.886007 
L 581.427491 526.886007 
z
" clip-path="url(#p411e42f65d)" style="fill: #5e8aff"/>
   </g>
   <g id="patch_56">
    <path d="M 592.155708 559.24 
L 597.519817 559.24 
L 597.519817 543.063004 
L 592.155708 543.063004 
z
" clip-path="url(#p411e42f65d)" style="fill: #5e8aff"/>
   </g>
   <g id="patch_57">
    <path d="M 602.883926 559.24 
L 608.248034 559.24 
L 608.248034 502.620513 
L 602.883926 502.620513 
z
" clip-path="url(#p411e42f65d)" style="fill: #5e8aff"/>
   </g>
   <g id="patch_58">
    <path d="M 613.612143 559.24 
L 618.976252 559.24 
L 618.976252 534.974505 
L 613.612143 534.974505 
z
" clip-path="url(#p411e42f65d)" style="fill: #5e8aff"/>
   </g>
   <g id="patch_59">
    <path d="M 624.340361 559.24 
L 629.70447 559.24 
L 629.70447 526.886007 
L 624.340361 526.886007 
z
" clip-path="url(#p411e42f65d)" style="fill: #5e8aff"/>
   </g>
   <g id="patch_60">
    <path d="M 635.068578 559.24 
L 640.432687 559.24 
L 640.432687 543.063004 
L 635.068578 543.063004 
z
" clip-path="url(#p411e42f65d)" style="fill: #5e8aff"/>
   </g>
   <g id="patch_61">
    <path d="M 645.796796 559.24 
L 651.160905 559.24 
L 651.160905 518.797509 
L 645.796796 518.797509 
z
" clip-path="url(#p411e42f65d)" style="fill: #5e8aff"/>
   </g>
   <g id="patch_62">
    <path d="M 656.525013 559.24 
L 661.889122 559.24 
L 661.889122 518.797509 
L 656.525013 518.797509 
z
" clip-path="url(#p411e42f65d)" style="fill: #5e8aff"/>
   </g>
   <g id="patch_63">
    <path d="M 667.253231 559.24 
L 672.61734 559.24 
L 672.61734 33.487619 
L 667.253231 33.487619 
z
" clip-path="url(#p411e42f65d)" style="fill: #5e8aff"/>
   </g>
   <g id="matplotlib.axis_1">
    <g id="xtick_1">
     <g id="text_1">
      <!-- 0 -->
      <g style="fill: #2c2c2c" transform="translate(23.060984 573.838437) scale(0.1 -0.1)">
       <defs>
        <path id="DejaVuSans-30" d="M 2034 4250 
Q 1547 4250 1301 3770 
Q 1056 3291 1056 2328 
Q 1056 1369 1301 889 
Q 1547 409 2034 409 
Q 2525 409 2770 889 
Q 3016 1369 3016 2328 
Q 3016 3291 2770 3770 
Q 2525 4250 2034 4250 
z
M 2034 4750 
Q 2819 4750 3233 4129 
Q 3647 3509 3647 2328 
Q 3647 1150 3233 529 
Q 2819 -91 2034 -91 
Q 1250 -91 836 529 
Q 422 1150 422 2328 
Q 422 3509 836 4129 
Q 1250 4750 2034 4750 
z
" transform="scale(0.015625)"/>
       </defs>
       <use xlink:href="#DejaVuSans-30"/>
      </g>
     </g>
    </g>
    <g id="xtick_2">
     <g id="text_2">
      <!-- 30 -->
      <g style="fill: #2c2c2c" transform="translate(341.72626 573.838437) scale(0.1 -0.1)">
       <defs>
        <path id="DejaVuSans-33" d="M 2597 2516 
Q 3050 2419 3304 2112 
Q 3559 1806 3559 1356 
Q 3559 666 3084 287 
Q 2609 -91 1734 -91 
Q 1441 -91 1130 -33 
Q 819 25 488 141 
L 488 750 
Q 750 597 1062 519 
Q 1375 441 1716 441 
Q 2309 441 2620 675 
Q 2931 909 2931 1356 
Q 2931 1769 2642 2001 
Q 2353 2234 1838 2234 
L 1294 2234 
L 1294 2753 
L 1863 2753 
Q 2328 2753 2575 2939 
Q 2822 3125 2822 3475 
Q 2822 3834 2567 4026 
Q 2313 4219 1838 4219 
Q 1578 4219 1281 4162 
Q 984 4106 628 3988 
L 628 4550 
Q 988 4650 1302 4700 
Q 1616 4750 1894 4750 
Q 2613 4750 3031 4423 
Q 3450 4097 3450 3541 
Q 3450 3153 3228 2886 
Q 3006 2619 2597 2516 
z
" transform="scale(0.015625)"/>
       </defs>
       <use xlink:href="#DejaVuSans-33"/>
       <use xlink:href="#DejaVuSans-30" x="63.623047"/>
      </g>
     </g>
    </g>
    <g id="xtick_3">
     <g id="text_3">
      <!-- 36 -->
      <g style="fill: #2c2c2c" transform="translate(406.095565 573.838437) scale(0.1 -0.1)">
       <defs>
        <path id="DejaVuSans-36" d="M 2113 2584 
Q 1688 2584 1439 2293 
Q 1191 2003 1191 1497 
Q 1191 994 1439 701 
Q 1688 409 2113 409 
Q 2538 409 2786 701 
Q 3034 994 3034 1497 
Q 3034 2003 2786 2293 
Q 2538 2584 2113 2584 
z
M 3366 4563 
L 3366 3988 
Q 3128 4100 2886 4159 
Q 2644 4219 2406 4219 
Q 1781 4219 1451 3797 
Q 1122 3375 1075 2522 
Q 1259 2794 1537 2939 
Q 1816 3084 2150 3084 
Q 2853 3084 3261 2657 
Q 3669 2231 3669 1497 
Q 3669 778 3244 343 
Q 2819 -91 2113 -91 
Q 1303 -91 875 529 
Q 447 1150 447 2328 
Q 447 3434 972 4092 
Q 1497 4750 2381 4750 
Q 2619 4750 2861 4703 
Q 3103 4656 3366 4563 
z
" transform="scale(0.015625)"/>
       </defs>
       <use xlink:href="#DejaVuSans-33"/>
       <use xlink:href="#DejaVuSans-36" x="63.623047"/>
      </g>
     </g>
    </g>
    <g id="xtick_4">
     <g id="text_4">
      <!-- 60 -->
      <g style="fill: #2c2c2c" transform="translate(663.572785 573.838437) scale(0.1 -0.1)">
       <use xlink:href="#DejaVuSans-36"/>
       <use xlink:href="#DejaVuSans-30" x="63.623047"/>
      </g>
     </g>
    </g>
    <g id="text_5">
     <!-- Кол-во баллов -->
     <g transform="translate(310.337978 587.516562) scale(0.1 -0.1)">
      <defs>
       <path id="DejaVuSans-41a" d="M 628 4666 
L 1259 4666 
L 1259 2359 
L 3516 4666 
L 4325 4666 
L 2522 2822 
L 4419 0 
L 3731 0 
L 2113 2403 
L 1259 1531 
L 1259 0 
L 628 0 
L 628 4666 
z
" transform="scale(0.015625)"/>
       <path id="DejaVuSans-43e" d="M 1959 3097 
Q 1497 3097 1228 2736 
Q 959 2375 959 1747 
Q 959 1119 1226 758 
Q 1494 397 1959 397 
Q 2419 397 2687 759 
Q 2956 1122 2956 1747 
Q 2956 2369 2687 2733 
Q 2419 3097 1959 3097 
z
M 1959 3584 
Q 2709 3584 3137 3096 
Q 3566 2609 3566 1747 
Q 3566 888 3137 398 
Q 2709 -91 1959 -91 
Q 1206 -91 779 398 
Q 353 888 353 1747 
Q 353 2609 779 3096 
Q 1206 3584 1959 3584 
z
" transform="scale(0.015625)"/>
       <path id="DejaVuSans-43b" d="M 238 0 
L 238 478 
Q 806 566 981 959 
Q 1194 1513 1194 2928 
L 1194 3500 
L 3559 3500 
L 3559 0 
L 2984 0 
L 2984 3041 
L 1769 3041 
L 1769 2694 
Q 1769 1344 1494 738 
Q 1200 91 238 0 
z
" transform="scale(0.015625)"/>
       <path id="DejaVuSans-2d" d="M 313 2009 
L 1997 2009 
L 1997 1497 
L 313 1497 
L 313 2009 
z
" transform="scale(0.015625)"/>
       <path id="DejaVuSans-432" d="M 1156 1613 
L 1156 459 
L 1975 459 
Q 2369 459 2575 607 
Q 2781 756 2781 1038 
Q 2781 1319 2575 1466 
Q 2369 1613 1975 1613 
L 1156 1613 
z
M 1156 3041 
L 1156 2072 
L 1913 2072 
Q 2238 2072 2444 2201 
Q 2650 2331 2650 2563 
Q 2650 2794 2444 2917 
Q 2238 3041 1913 3041 
L 1156 3041 
z
M 581 3500 
L 1950 3500 
Q 2566 3500 2897 3275 
Q 3228 3050 3228 2634 
Q 3228 2313 3059 2123 
Q 2891 1934 2559 1888 
Q 2956 1813 3175 1575 
Q 3394 1338 3394 981 
Q 3394 513 3033 256 
Q 2672 0 2003 0 
L 581 0 
L 581 3500 
z
" transform="scale(0.015625)"/>
       <path id="DejaVuSans-20" transform="scale(0.015625)"/>
       <path id="DejaVuSans-431" d="M 1991 3584 
Q 2741 3584 3169 3096 
Q 3597 2609 3597 1747 
Q 3597 888 3169 398 
Q 2741 -91 1991 -91 
Q 1238 -91 822 384 
Q 406 859 384 1747 
L 366 2463 
Q 350 2834 350 2963 
Q 350 3463 531 3831 
Q 816 4409 1308 4659 
Q 1800 4909 2625 4916 
Q 3006 4919 3175 4972 
L 3334 4516 
Q 3181 4453 3041 4450 
L 2259 4397 
Q 1866 4369 1628 4231 
Q 1006 3866 947 3388 
L 925 3213 
Q 1331 3584 1991 3584 
z
M 1991 3097 
Q 1528 3097 1259 2736 
Q 991 2375 991 1747 
Q 991 1119 1258 758 
Q 1525 397 1991 397 
Q 2450 397 2719 759 
Q 2988 1122 2988 1747 
Q 2988 2369 2719 2733 
Q 2450 3097 1991 3097 
z
" transform="scale(0.015625)"/>
       <path id="DejaVuSans-430" d="M 2194 1759 
Q 1497 1759 1228 1600 
Q 959 1441 959 1056 
Q 959 750 1161 570 
Q 1363 391 1709 391 
Q 2188 391 2477 730 
Q 2766 1069 2766 1631 
L 2766 1759 
L 2194 1759 
z
M 3341 1997 
L 3341 0 
L 2766 0 
L 2766 531 
Q 2569 213 2275 61 
Q 1981 -91 1556 -91 
Q 1019 -91 701 211 
Q 384 513 384 1019 
Q 384 1609 779 1909 
Q 1175 2209 1959 2209 
L 2766 2209 
L 2766 2266 
Q 2766 2663 2505 2880 
Q 2244 3097 1772 3097 
Q 1472 3097 1187 3025 
Q 903 2953 641 2809 
L 641 3341 
Q 956 3463 1253 3523 
Q 1550 3584 1831 3584 
Q 2591 3584 2966 3190 
Q 3341 2797 3341 1997 
z
" transform="scale(0.015625)"/>
      </defs>
      <use xlink:href="#DejaVuSans-41a"/>
      <use xlink:href="#DejaVuSans-43e" x="70.996094"/>
      <use xlink:href="#DejaVuSans-43b" x="132.177734"/>
      <use xlink:href="#DejaVuSans-2d" x="196.09375"/>
      <use xlink:href="#DejaVuSans-432" x="232.177734"/>
      <use xlink:href="#DejaVuSans-43e" x="291.113281"/>
      <use xlink:href="#DejaVuSans-20" x="352.294922"/>
      <use xlink:href="#DejaVuSans-431" x="384.082031"/>
      <use xlink:href="#DejaVuSans-430" x="445.751953"/>
      <use xlink:href="#DejaVuSans-43b" x="507.03125"/>
      <use xlink:href="#DejaVuSans-43b" x="570.947266"/>
      <use xlink:href="#DejaVuSans-43e" x="634.863281"/>
      <use xlink:href="#DejaVuSans-432" x="696.044922"/>
     </g>
    </g>
   </g>
   <g id="matplotlib.axis_2">
    <g id="text_6">
     <!-- Кол-во людей -->
     <g transform="translate(14.798438 319.612969) rotate(-90) scale(0.1 -0.1)">
      <defs>
       <path id="DejaVuSans-44e" d="M 3431 3097 
Q 2969 3097 2700 2736 
Q 2431 2375 2431 1747 
Q 2431 1119 2698 758 
Q 2966 397 3431 397 
Q 3891 397 4159 759 
Q 4428 1122 4428 1747 
Q 4428 2369 4159 2733 
Q 3891 3097 3431 3097 
z
M 1844 2103 
Q 1903 2697 2292 3140 
Q 2681 3584 3431 3584 
Q 4181 3584 4609 3096 
Q 5038 2609 5038 1747 
Q 5038 888 4609 398 
Q 4181 -91 3431 -91 
Q 2678 -91 2267 381 
Q 1856 853 1828 1628 
L 1178 1628 
L 1178 0 
L 603 0 
L 603 3500 
L 1178 3500 
L 1178 2103 
L 1844 2103 
z
" transform="scale(0.015625)"/>
       <path id="DejaVuSans-434" d="M 1384 459 
L 3053 459 
L 3053 3041 
L 1844 3041 
L 1844 2603 
Q 1844 1316 1475 628 
L 1384 459 
z
M 550 459 
Q 834 584 959 850 
Q 1266 1509 1266 2838 
L 1266 3500 
L 3631 3500 
L 3631 459 
L 4091 459 
L 4091 -884 
L 3631 -884 
L 3631 0 
L 794 0 
L 794 -884 
L 334 -884 
L 334 459 
L 550 459 
z
" transform="scale(0.015625)"/>
       <path id="DejaVuSans-435" d="M 3597 1894 
L 3597 1613 
L 953 1613 
Q 991 1019 1311 708 
Q 1631 397 2203 397 
Q 2534 397 2845 478 
Q 3156 559 3463 722 
L 3463 178 
Q 3153 47 2828 -22 
Q 2503 -91 2169 -91 
Q 1331 -91 842 396 
Q 353 884 353 1716 
Q 353 2575 817 3079 
Q 1281 3584 2069 3584 
Q 2775 3584 3186 3129 
Q 3597 2675 3597 1894 
z
M 3022 2063 
Q 3016 2534 2758 2815 
Q 2500 3097 2075 3097 
Q 1594 3097 1305 2825 
Q 1016 2553 972 2059 
L 3022 2063 
z
" transform="scale(0.015625)"/>
       <path id="DejaVuSans-439" d="M 3578 3500 
L 3578 0 
L 3006 0 
L 3006 2809 
L 1319 0 
L 581 0 
L 581 3500 
L 1153 3500 
L 1153 697 
L 2838 3500 
L 3578 3500 
z
M 1103 4862 
L 1472 4862 
Q 1506 4628 1657 4510 
Q 1809 4393 2081 4393 
Q 2350 4393 2500 4509 
Q 2650 4625 2691 4862 
L 3059 4862 
Q 3028 4415 2781 4190 
Q 2534 3965 2081 3965 
Q 1628 3965 1381 4190 
Q 1134 4415 1103 4862 
z
" transform="scale(0.015625)"/>
      </defs>
      <use xlink:href="#DejaVuSans-41a"/>
      <use xlink:href="#DejaVuSans-43e" x="70.996094"/>
      <use xlink:href="#DejaVuSans-43b" x="132.177734"/>
      <use xlink:href="#DejaVuSans-2d" x="196.09375"/>
      <use xlink:href="#DejaVuSans-432" x="232.177734"/>
      <use xlink:href="#DejaVuSans-43e" x="291.113281"/>
      <use xlink:href="#DejaVuSans-20" x="352.294922"/>
      <use xlink:href="#DejaVuSans-43b" x="384.082031"/>
      <use xlink:href="#DejaVuSans-44e" x="447.998047"/>
      <use xlink:href="#DejaVuSans-434" x="532.177734"/>
      <use xlink:href="#DejaVuSans-435" x="601.318359"/>
      <use xlink:href="#DejaVuSans-439" x="662.841797"/>
     </g>
    </g>
   </g>
   <g id="patch_64">
    <path d="M 20.878125 559.24 
L 675.299394 559.24 
" style="fill: none; stroke: #5c5c5c; stroke-width: 0.5; stroke-linejoin: miter; stroke-linecap: square"/>
   </g>
  </g>
 </g>
 <defs>
  <clipPath id="p411e42f65d">
   <rect x="20.878125" y="7.2" width="654.421269" height="552.04"/>
  </clipPath>
 </defs>
</svg>
